<?xml version="1.0" encoding="UTF-8"?>
<svg version="1.1" xmlns="http://www.w3.org/2000/svg" width="300" height="228">
<path d="M0 0 C0.84348999 0.00054382 1.68697998 0.00108765 2.55603027 0.00164795 C15.28400057 0.03940476 27.23459772 0.72346802 39.5 4.375 C40.22880371 4.57335449 40.95760742 4.77170898 41.70849609 4.97607422 C67.14784581 11.94431623 89.22426278 26.61832233 107.5 45.375 C108.35271484 46.16003906 108.35271484 46.16003906 109.22265625 46.9609375 C137.28030063 73.40094433 147.55138174 112.35125314 149.5 149.375 C136.3 149.375 123.1 149.375 109.5 149.375 C109.108125 145.930625 108.71625 142.48625 108.3125 138.9375 C104.47778179 108.53489108 90.76521825 81.59952581 66.37109375 62.46484375 C41.58239738 44.42137088 12.57320898 37.14965571 -17.6953125 41.69921875 C-37.14734429 45.15425109 -54.06965906 53.11500219 -69.5 65.375 C-70.31597656 66.00792969 -71.13195312 66.64085938 -71.97265625 67.29296875 C-92.43628432 84.21967345 -104.1315105 110.49336841 -107.5 136.375 C-107.995 142.81 -107.995 142.81 -108.5 149.375 C-121.7 149.375 -134.9 149.375 -148.5 149.375 C-148.5 132.8423913 -148.5 132.8423913 -147.375 125.75 C-147.24230713 124.91009521 -147.10961426 124.07019043 -146.97290039 123.20483398 C-142.00156202 93.94067614 -128.3333438 68.21520179 -108.5 46.375 C-107.73429687 45.52550781 -106.96859375 44.67601562 -106.1796875 43.80078125 C-78.47047592 14.63566194 -39.72506587 -0.09615133 0 0 Z " fill="#ffffff" transform="translate(148.5,-0.375)"/>
<path d="M0 0 C1.0010376 0.00563965 2.0020752 0.0112793 3.03344727 0.01708984 C29.76678666 0.4501052 54.03003181 11.34300059 72.8125 30.3125 C91.10028577 50.12907543 99.8125 73.48341544 99.8125 100.3125 C86.6125 100.3125 73.4125 100.3125 59.8125 100.3125 C59.1525 95.3625 58.4925 90.4125 57.8125 85.3125 C52.28561748 68.25811964 43.70962685 55.87249138 27.8125 47.3125 C12.5355281 40.54598733 -4.16484886 38.39644419 -20.1875 44.3125 C-36.24793858 50.81166581 -47.28626603 61.51934228 -54.125 77.37890625 C-56.82419308 84.83145773 -58.06997368 92.48981573 -59.1875 100.3125 C-72.3875 100.3125 -85.5875 100.3125 -99.1875 100.3125 C-99.1875 74.62070682 -90.42614701 51.45334254 -73.1875 32.3125 C-72.50171875 31.54421875 -71.8159375 30.7759375 -71.109375 29.984375 C-52.81323491 10.6040192 -26.552269 -0.15890047 0 0 Z " fill="#ffffff" transform="translate(148.1875,48.6875)"/>
<path d="M0 0 C1.03125 0.7425 2.0625 1.485 3.125 2.25 C12.06892347 10.80505724 17.51940254 21.7461079 19 34 C19 35.98 19 37.96 19 40 C-14 40 -47 40 -81 40 C-83.42612201 35.14775599 -80.56116586 27.75773743 -78.99609375 22.85546875 C-73.97252714 9.94009452 -65.17720288 -0.21221948 -52.6875 -6.375 C-34.71444646 -14.03598798 -15.56265796 -11.85874537 0 0 Z " fill="#ffffff" transform="translate(180,109)"/>
<path d="M0 0 C4.37415276 -0.07493936 8.74795155 -0.12896881 13.12255859 -0.16479492 C14.60634889 -0.17975184 16.09009599 -0.20012495 17.57373047 -0.22631836 C28.58368715 -0.41563319 39.07952978 -0.33460885 48 7 C54.13475744 13.05542868 58.33003757 18.91272639 58.41796875 27.89819336 C58.40378906 28.57116455 58.38960937 29.24413574 58.375 29.9375 C58.36339844 30.64334229 58.35179687 31.34918457 58.33984375 32.07641602 C58.04920198 41.3160462 55.49602756 46.32262384 49.16796875 53.01953125 C39.65025192 61.71409419 26.59900031 61.30691525 14.4375 61.1875 C12.51454102 61.1865332 12.51454102 61.1865332 10.55273438 61.18554688 C1.14060834 61.14060834 1.14060834 61.14060834 0 60 C-0.09386381 58.1281906 -0.11743804 56.2528194 -0.11352539 54.37866211 C-0.11344986 53.17749252 -0.11337433 51.97632294 -0.11329651 50.73875427 C-0.10813522 49.4314888 -0.10297394 48.12422333 -0.09765625 46.77734375 C-0.09579198 45.43355868 -0.09436812 44.08977293 -0.09336853 42.74598694 C-0.08954402 39.20317723 -0.07971432 35.6604083 -0.06866455 32.11761475 C-0.05844899 28.50484773 -0.0538706 24.89207416 -0.04882812 21.27929688 C-0.03809198 14.1861812 -0.02101636 7.09309326 0 0 Z M17 15 C17 24.9 17 34.8 17 45 C29.97100849 46.2004901 29.97100849 46.2004901 36 42 C40.07465371 37.47260699 41.31637998 34.20717675 41.21484375 28.05859375 C40.74750741 23.58066187 38.78120561 20.76064757 35.625 17.6875 C29.7549345 13.91388646 23.99478407 15 17 15 Z " fill="#ffffff" transform="translate(124,167)"/>
<path d="M0 0 C6.40242127 4.45016781 11.31345561 10.31501463 13.8125 17.74609375 C15.47441314 27.16776675 15.21035277 35.78808599 10.40234375 44.21875 C5.73341577 50.83030522 -0.51796842 55.18958322 -8.1875 57.74609375 C-19.39191115 58.9807595 -29.86670409 58.72557686 -39.1875 51.74609375 C-46.00887385 45.68401106 -49.55448967 38.69654723 -50.3828125 29.6015625 C-50.79511104 20.87457682 -48.52044394 13.16772116 -42.9375 6.37109375 C-31.68672338 -5.36048529 -14.30127333 -8.19769418 0 0 Z M-29.1875 15.74609375 C-32.96332563 20.90638878 -32.99144208 26.59147052 -32.1875 32.74609375 C-30.93603687 36.46684166 -28.97647054 39.02673826 -26.0625 41.68359375 C-20.84823838 43.61060348 -15.46480477 43.68671963 -10.3125 41.55859375 C-6.30368712 38.13931217 -3.52185643 34.88137041 -2.94921875 29.51171875 C-2.76614496 23.30648086 -3.41583503 19.74100141 -7.1875 14.74609375 C-11.07255748 11.0964943 -15.43262358 11.24072745 -20.52734375 11.3984375 C-24.3424205 11.8970305 -26.41138218 13.10878182 -29.1875 15.74609375 Z " fill="#ffffff" transform="translate(102.1875,170.25390625)"/>
<path d="M0 0 C6.93 0 13.86 0 21 0 C23.87372694 7.5084454 26.74323611 15.01846086 29.60533142 22.53134632 C30.93444706 26.01971459 32.26540657 29.50735586 33.60058594 32.9934082 C34.88874378 36.35689381 36.17204993 39.72219313 37.45199585 43.08881187 C37.94146954 44.37369428 38.43269555 45.65791054 38.9256897 46.9414463 C39.61523445 48.73759969 40.29801021 50.5363473 40.98046875 52.33520508 C41.37129639 53.35890701 41.76212402 54.38260895 42.16479492 55.43733215 C43 58 43 58 43 61 C40.06097651 61.13481759 37.12810441 61.23399416 34.1875 61.3125 C33.35412109 61.35439453 32.52074219 61.39628906 31.66210938 61.43945312 C29.34318107 61.48601795 27.27201688 61.47163738 25 61 C22.73596454 58.37547734 22.08983404 56.26950211 21 53 C10.11 52.505 10.11 52.505 -1 52 C-1.33 54.31 -1.66 56.62 -2 59 C-4 61 -4 61 -5.87939453 61.22705078 C-6.62302246 61.21657715 -7.36665039 61.20610352 -8.1328125 61.1953125 C-8.93847656 61.18886719 -9.74414062 61.18242187 -10.57421875 61.17578125 C-11.83685547 61.15064453 -11.83685547 61.15064453 -13.125 61.125 C-14.39923828 61.11146484 -14.39923828 61.11146484 -15.69921875 61.09765625 C-17.79959884 61.07405647 -19.89983444 61.03818483 -22 61 C-20.42975274 52.10859993 -17.0801966 43.93356814 -13.8125 35.5625 C-13.22250596 34.03748759 -12.63307104 32.51225874 -12.04418945 30.98681641 C-10.62222013 27.30750311 -9.19329778 23.63094604 -7.76135254 19.95550537 C-6.69949278 17.2281585 -5.64266394 14.49887047 -4.5859375 11.76953125 C-3.06538617 7.84309972 -1.5330139 3.92166346 0 0 Z M10 20 C8.02 25.61 6.04 31.22 4 37 C7.96 37 11.92 37 16 37 C13.71477659 28.43519252 13.71477659 28.43519252 11 20 C10.67 20 10.34 20 10 20 Z " fill="#ffffff" transform="translate(204,167)"/>
<path d="M0 0 C12.94232155 -2.17270061 12.94232155 -2.17270061 19 0 C23.80690619 4.36092943 26.50169264 10.48076378 29.06469727 16.34765625 C29.37334717 16.89292969 29.68199707 17.43820313 30 18 C30.66 18 31.32 18 32 18 C35.3 12.06 38.6 6.12 42 0 C48.27 0 54.54 0 61 0 C60.16716341 3.33134637 59.54258091 5.03855345 57.8125 7.8359375 C57.14130127 8.92563843 57.14130127 8.92563843 56.45654297 10.03735352 C55.97588379 10.80877686 55.49522461 11.5802002 55 12.375 C54.51031738 13.18445068 54.02063477 13.99390137 53.51611328 14.82788086 C51.27122006 18.5084447 49.02786155 22.07128314 46.3046875 25.41796875 C37.9290324 36.25784393 38.67395469 47.75538416 39 61 C36.35409986 61.02684679 33.70846904 61.04676357 31.0625 61.0625 C30.30775391 61.07087891 29.55300781 61.07925781 28.77539062 61.08789062 C26.85005687 61.09652441 24.92464419 61.05224333 23 61 C22.505 60.505 22.505 60.505 22 60 C22.03777609 58.43580425 22.1309141 56.87290669 22.24609375 55.3125 C22.98224508 37.37678159 17.42248635 26.81036172 6.89648438 12.59326172 C0 3.16297631 0 3.16297631 0 0 Z " fill="#ffffff" transform="translate(239,167)"/>
<path d="M0 0 C16.5 0 33 0 50 0 C50 4.95 50 9.9 50 15 C44.39 15 38.78 15 33 15 C33 30.18 33 45.36 33 61 C27.72 61 22.44 61 17 61 C16 60 16 60 15.87974548 58.17137146 C15.88196609 57.37417191 15.88418671 56.57697235 15.88647461 55.75561523 C15.88655014 54.85475693 15.88662567 53.95389862 15.88670349 53.02574158 C15.89186478 52.04658279 15.89702606 51.06742401 15.90234375 50.05859375 C15.9037587 49.06118668 15.90517365 48.0637796 15.90663147 47.03614807 C15.91224886 43.83656876 15.92480429 40.63705831 15.9375 37.4375 C15.94251276 35.27408955 15.94707605 33.11067801 15.95117188 30.94726562 C15.96222394 25.63148371 15.97950021 20.31575354 16 15 C10.72 15 5.44 15 0 15 C0 10.05 0 5.1 0 0 Z " fill="#ffffff" transform="translate(0,167)"/>
</svg>
