<?xml version="1.0" encoding="UTF-8"?>
<svg version="1.1" xmlns="http://www.w3.org/2000/svg" width="1035" height="371">
<path d="M0 0 C1.5769524 1.5769524 1.39615025 3.33458607 1.66430664 5.51977539 C1.78435562 6.48069595 1.9044046 7.44161652 2.02809143 8.43165588 C2.15417282 9.476436 2.28025421 10.52121613 2.41015625 11.59765625 C2.54191757 12.66165146 2.67367889 13.72564667 2.80943298 14.82188416 C3.2311501 18.23494043 3.64688355 21.64869598 4.0625 25.0625 C4.34661268 27.37049106 4.63111273 29.67843447 4.91601562 31.98632812 C5.61518018 37.65700593 6.30942777 43.32826978 7 49 C5.68 49.33 4.36 49.66 3 50 C1.83333333 48.39583333 0.66666667 46.79166667 -0.5 45.1875 C-1.2321875 44.18203125 -1.964375 43.1765625 -2.71875 42.140625 C-4.16127551 40.15468234 -5.59936324 38.16550195 -7.03125 36.171875 C-9.00252471 33.43399346 -10.99603648 30.71402933 -13 28 C-13.61359375 27.154375 -14.2271875 26.30875 -14.859375 25.4375 C-26.62035083 9.88579642 -43.56718516 -0.4340561 -62.96386719 -3.2890625 C-83.9957599 -5.80033327 -107.46272239 -2.74755972 -124.83203125 10.09375 C-126.52256586 11.46003859 -128.19573864 12.84833523 -129.84375 14.265625 C-132 16 -132 16 -134.15625 16.984375 C-136.54164758 18.29836519 -136.89252661 19.54237977 -138 22 C-139.21122749 23.61775442 -140.44270303 25.22043157 -141.6875 26.8125 C-161.27842638 53.77216541 -164.37144912 92.22002626 -159.8125 124.37109375 C-156.65607665 143.54048931 -150.76733161 161.34291155 -139 177 C-138.36578125 177.87978516 -138.36578125 177.87978516 -137.71875 178.77734375 C-126.42388546 193.25709742 -107.7861173 200.62902431 -90 203 C-67.14019389 204.86116883 -44.82453906 199.98567682 -26.9375 185 C-13.0875126 171.85913195 -4.12955267 154.02927348 4 137 C5.32 137.33 6.64 137.66 8 138 C7.58782558 142.46341515 7.14710007 146.92175502 6.671875 151.37890625 C6.21839249 155.66753592 5.83896466 159.95531924 5.50628662 164.25447083 C5.26704186 167.2226754 4.98737909 170.18637953 4.70153809 173.15042114 C4.5678452 174.62612415 4.45056019 176.10341125 4.35021973 177.58175659 C3.52947258 189.44235429 3.52947258 189.44235429 -0.16040039 193.20019531 C-2.72061685 194.76866832 -5.2005866 195.92496059 -8 197 C-9.11246094 197.556875 -10.22492188 198.11375 -11.37109375 198.6875 C-48.57949257 214.61364268 -89.00882853 219.61047865 -127.375 204.6875 C-148.33006801 195.30594236 -164.95335142 179.97642837 -176 160 C-176.54398437 159.03449219 -177.08796875 158.06898438 -177.6484375 157.07421875 C-191.37898594 131.32072814 -194.80116745 96.99612513 -187 69 C-186.6596875 67.77023438 -186.319375 66.54046875 -185.96875 65.2734375 C-177.51286521 37.67754322 -159.54347416 14.39606764 -134.25390625 0.171875 C-94.58449611 -20.84126996 -40.31328987 -18.84289713 0 0 Z " fill="#ffffff" transform="translate(463,81)"/>
<path d="M0 0 C16.5 0 33 0 50 0 C47.36 5.61 44.72 11.22 42 17 C37.08033502 33.82208024 37.84887515 51.3492409 37.8671875 68.72265625 C37.86651217 70.99938467 37.86554024 73.27611301 37.86428833 75.55284119 C37.86282244 80.30061537 37.86493023 85.04837061 37.86962891 89.79614258 C37.87532876 95.84664192 37.87203845 101.89709692 37.86605644 107.94759464 C37.86242356 112.64135567 37.86360184 117.33510637 37.86618423 122.02886772 C37.8668458 124.25853925 37.86605238 126.48821176 37.86370468 128.71788216 C37.41707234 166.15375107 37.41707234 166.15375107 55.00390625 198.2265625 C70.80013913 212.26078897 89.94353438 212.93705584 110 212 C122.94626692 210.80655656 135.31399969 204.65482342 144 195 C158.69447556 175.8155458 158.46809444 153.35125844 158.43359375 130.3046875 C158.43700542 128.3015798 158.44042726 126.29847191 158.44494683 124.29536641 C158.45890257 118.01636464 158.45750415 111.73749921 158.44604492 105.45849609 C158.4345523 99.01958284 158.44867875 92.58108559 158.4754414 86.14222705 C158.49770657 80.57316058 158.50421221 75.00422368 158.49836498 69.43511593 C158.49502229 66.12659891 158.49898227 62.81840458 158.51461601 59.5099144 C158.52960928 55.81863753 158.51878794 52.12826174 158.50170898 48.43701172 C158.51137695 47.36652588 158.52104492 46.29604004 158.53100586 45.19311523 C158.37508109 28.97741785 151.86708185 16.62008709 140.85546875 5.12890625 C139 3 139 3 138 0 C154.5 0 171 0 188 0 C186.35520353 4.11199119 185.45524753 5.90028498 182.75 9.0625 C169.49145469 25.88427937 169.56217007 45.13338739 169.58930969 65.6058979 C169.59385208 69.33777079 169.57960926 73.06918533 169.56091309 76.80101013 C169.52133948 85.39166353 169.50856471 93.98230465 169.49738312 102.57302856 C169.4859605 111.09643915 169.46272065 119.61966895 169.41999817 128.1429882 C169.40656982 131.79199945 169.4105715 135.44071132 169.41540527 139.08973694 C169.36029358 162.76101129 166.33046472 186.11083296 149.4375 204.25 C131.20233707 221.38500227 108.24111947 223.66122085 84.28808594 223.13183594 C62.95177084 222.27635553 42.87971696 214.26715539 28.0625 198.6328125 C11.82738301 177.90843968 11.71404351 152.30187004 11.69503975 127.19123077 C11.69132905 123.24604406 11.67482311 119.30102054 11.65428162 115.355896 C11.60559107 105.56822337 11.5742379 95.78050669 11.55297852 85.99273682 C11.53637872 78.35665609 11.51340012 70.72072389 11.46995777 63.08474231 C11.45191089 59.81096144 11.44138281 56.5374248 11.44125557 53.26358795 C11.44106209 49.61336469 11.42269504 45.96362423 11.40063477 42.31347656 C11.40521194 41.25548355 11.40978912 40.19749054 11.414505 39.10743713 C11.31163398 28.32310697 9.3732941 18.13412048 3.8125 8.8125 C0 2.18235552 0 2.18235552 0 0 Z " fill="#ffffff" transform="translate(548,71)"/>
<path d="M0 0 C1.24534232 0.00092179 2.49068464 0.00184359 3.77376461 0.00279331 C4.46473938 0.00193889 5.15571416 0.00108446 5.86762756 0.00020415 C8.20004874 -0.00145264 10.53239917 0.00407393 12.8648138 0.00952244 C14.52996475 0.00980429 16.19511582 0.00964661 17.86026669 0.00907993 C22.3951976 0.00879189 26.9301023 0.01468967 31.46502709 0.02165389 C36.19895023 0.02788635 40.9328739 0.02849114 45.6668005 0.0296793 C54.63763754 0.03279293 63.60846245 0.04100675 72.57929415 0.05102879 C82.78952046 0.06218893 92.99974733 0.06770012 103.20997822 0.07272422 C124.21919927 0.08318934 145.2284037 0.10153522 166.23761654 0.12304783 C170.19761654 19.26304783 174.15761654 38.40304783 178.23761654 58.12304783 C175.23761654 60.12304783 175.23761654 60.12304783 173.23761654 60.12304783 C171.97589779 58.5092783 171.97589779 58.5092783 170.55011654 56.24023533 C170.02119808 55.40927341 169.49227962 54.5783115 168.94733334 53.72216892 C168.38312679 52.82320896 167.81892025 51.924249 167.23761654 50.99804783 C161.81503822 42.50850909 156.23994319 34.21224193 150.23761654 26.12304783 C149.19154232 24.68638767 149.19154232 24.68638767 148.12433529 23.22070408 C147.4604681 22.34285252 146.79660091 21.46500095 146.11261654 20.56054783 C145.55316341 19.81675877 144.99371029 19.0729697 144.41730404 18.30664158 C138.50714365 12.3858895 132.96003819 10.37489301 124.70636654 10.19726658 C123.82984432 10.15994923 122.95332211 10.12263187 122.05023861 10.08418369 C119.27968706 9.97118672 116.50930235 9.89035193 113.73761654 9.81054783 C111.8469098 9.73911177 109.95628157 9.66556443 108.06574154 9.5898447 C103.45691456 9.40983013 98.84795592 9.25862737 94.23761654 9.12304783 C94.29824346 32.49807589 94.37580854 55.87299371 94.47333145 79.2478981 C94.51822541 90.10218616 94.55765477 100.95644187 94.58405209 111.81079197 C94.60708406 121.27556701 94.64053996 130.74023916 94.6863181 140.20493251 C94.71018031 145.21266869 94.72895488 150.22030339 94.73523045 155.22809505 C94.74131309 159.95017752 94.76142681 164.67200059 94.79189205 169.3939867 C94.80062159 171.11878178 94.80440552 172.84361083 94.8026247 174.56842709 C94.79028978 192.04204123 97.9487558 202.54532635 106.23761654 219.12304783 C90.06761654 219.12304783 73.89761654 219.12304783 57.23761654 219.12304783 C58.78583153 215.25251035 60.43990226 211.56327638 62.23761654 207.81054783 C69.19539726 192.64224728 68.3814109 176.29847347 68.4429388 159.88476658 C68.45254895 158.22725288 68.46256069 156.56974147 68.47293758 154.9122324 C68.4996537 150.46705551 68.5208405 146.02186836 68.54093957 141.5766573 C68.56300794 136.91086874 68.59029329 132.24511057 68.61699581 127.57934666 C68.66664388 118.76840357 68.71168455 109.95744337 68.75501817 101.14646721 C68.80463097 91.10515465 68.85945888 81.06387262 68.91469777 71.02258968 C69.02808897 50.38943758 69.13501907 29.75625625 69.23761654 9.12304783 C63.50732473 9.31067618 57.77866813 9.52297364 52.05011654 9.75781345 C50.10277776 9.83420507 48.15516582 9.90394372 46.2073431 9.96679783 C43.40133955 10.05851602 40.59720107 10.17441888 37.79230404 10.29492283 C36.9264468 10.31802525 36.06058956 10.34112766 35.16849422 10.36493015 C27.08001366 10.75672943 22.48293502 14.49365198 16.98712826 20.16455173 C13.98781485 23.52214204 11.38920227 27.13243972 8.80011654 30.81054783 C7.95706966 31.9936655 7.95706966 31.9936655 7.09699154 33.20068455 C0.85862967 41.99354804 -5.11149005 50.94034604 -10.76238346 60.12304783 C-12.08238346 59.79304783 -13.40238346 59.46304783 -14.76238346 59.12304783 C-14.03234753 52.48081196 -12.82597953 45.9891097 -11.51238346 39.43945408 C-11.29420963 38.34334309 -11.0760358 37.24723209 -10.85125065 36.11790562 C-10.3920885 33.8157005 -9.93145077 31.51378923 -9.46941471 29.21215916 C-8.76000109 25.67366479 -8.05781919 22.13378488 -7.35613346 18.59375095 C-6.9086517 16.3547317 -6.46075003 14.11579632 -6.01238346 11.87695408 C-5.80194401 10.81352283 -5.59150455 9.75009159 -5.37468815 8.65443516 C-5.17778385 7.67929462 -4.98087955 6.70415409 -4.77800846 5.69946384 C-4.60559635 4.83756947 -4.43318424 3.97567509 -4.25554752 3.0876627 C-3.48992588 0.03766012 -3.25365111 0.14493089 0 0 Z " fill="#ffffff" transform="translate(812.7623834609985,70.87695217132568)"/>
<path d="M0 0 C4.95 0 9.9 0 15 0 C14.67 1.98 14.34 3.96 14 6 C13.86876943 7.43276943 13.76095374 8.86800203 13.68359375 10.3046875 C13.64548584 10.97999512 13.60737793 11.65530273 13.56811523 12.35107422 C13.52501221 13.18396973 13.48190918 14.01686523 13.4375 14.875 C13.293125 17.55625 13.14875 20.2375 13 23 C20.26 23 27.52 23 35 23 C34.87625 20.504375 34.7525 18.00875 34.625 15.4375 C34.59100098 14.66591553 34.55700195 13.89433105 34.52197266 13.09936523 C34.4863623 12.46716064 34.45075195 11.83495605 34.4140625 11.18359375 C34.3826416 10.54993896 34.3512207 9.91628418 34.31884766 9.26342773 C33.87483267 6.11146531 32.87446011 3.06061039 32 0 C37.28 0 42.56 0 48 0 C47.67 1.65 47.34 3.3 47 5 C46.91543167 6.41015304 46.872213 7.82339831 46.87060547 9.23608398 C46.86587723 10.43774452 46.86587723 10.43774452 46.86105347 11.66368103 C46.8630777 12.51587723 46.86510193 13.36807343 46.8671875 14.24609375 C46.86623077 15.13482681 46.86527405 16.02355988 46.86428833 16.93922424 C46.8636094 18.81438264 46.86544365 20.68954342 46.86962891 22.56469727 C46.87497484 25.42404503 46.86967744 28.28323527 46.86328125 31.14257812 C46.86394221 32.96875034 46.86522373 34.79492247 46.8671875 36.62109375 C46.86516327 37.47126572 46.86313904 38.32143768 46.86105347 39.19737244 C46.86420563 40.00163162 46.86735779 40.80589081 46.87060547 41.63452148 C46.87140106 42.33447739 46.87219666 43.03443329 46.87301636 43.75559998 C47.02969561 46.52486158 47.54400811 49.26404868 48 52 C42.72 51.67 37.44 51.34 32 51 C32.66 48.69 33.32 46.38 34 44 C34.34771527 41.60421671 34.34771527 41.60421671 34.4140625 39.37890625 C34.44967285 38.66549072 34.4852832 37.9520752 34.52197266 37.21704102 C34.55597168 36.34104248 34.5899707 35.46504395 34.625 34.5625 C34.810625 30.3240625 34.810625 30.3240625 35 26 C27.74 26 20.48 26 13 26 C13.144375 29.01125 13.28875 32.0225 13.4375 35.125 C13.48060303 36.06230957 13.52370605 36.99961914 13.56811523 37.96533203 C13.60622314 38.72185059 13.64433105 39.47836914 13.68359375 40.2578125 C13.72025146 41.0223877 13.75690918 41.78696289 13.79467773 42.57470703 C14.03400057 45.40161906 14.53359607 48.20157644 15 51 C10.05 51 5.1 51 0 51 C0.495 48.03 0.495 48.03 1 45 C1.08147131 43.61304927 1.12772333 42.22332491 1.12939453 40.83398438 C1.13254669 40.07299438 1.13569885 39.31200439 1.13894653 38.5279541 C1.1369223 37.72466675 1.13489807 36.92137939 1.1328125 36.09375 C1.13376923 35.25082397 1.13472595 34.40789795 1.13571167 33.53942871 C1.13638954 31.76440353 1.13456279 29.98937583 1.13037109 28.21435547 C1.12501728 25.50873203 1.13032946 22.80327457 1.13671875 20.09765625 C1.1360579 18.36718714 1.13477659 16.63671813 1.1328125 14.90625 C1.13483673 14.10296265 1.13686096 13.29967529 1.13894653 12.4720459 C1.13579437 11.71105591 1.13264221 10.95006592 1.12939453 10.16601562 C1.12859894 9.50460571 1.12780334 8.8431958 1.12698364 8.16174316 C0.96593443 5.42007474 0.45150447 2.70902682 0 0 Z " fill="#ffffff" transform="translate(92,145)"/>
<path d="M0 0 C11.55 0 23.1 0 35 0 C35.99 4.29 36.98 8.58 38 13 C37.01 13 36.02 13 35 13 C33.6368428 11.56738256 32.33242831 10.07837346 31.0625 8.5625 C27.30229635 4.60373774 24.89602895 3.33753404 19.4375 2.9375 C16.7459375 2.9684375 16.7459375 2.9684375 14 3 C14 9.93 14 16.86 14 24 C22.49135502 21.43806394 22.49135502 21.43806394 28 16 C29 17 29 17 29.09765625 20.81640625 C29.09098089 22.39846682 29.07901875 23.98051159 29.0625 25.5625 C29.05798828 26.36880859 29.05347656 27.17511719 29.04882812 28.00585938 C29.03700518 30.00393756 29.01906914 32.00197783 29 34 C26.49777075 32.82279088 24.74098191 31.77506324 22.625 29.9375 C19.72069527 27.48735082 19.72069527 27.48735082 14 27 C14 33.93 14 40.86 14 48 C23.47982568 48.25606664 23.47982568 48.25606664 31.8125 44.5625 C33.99083987 42.21880622 33.99083987 42.21880622 35 40 C35.66 40 36.32 40 37 40 C37.66 38.35 38.32 36.7 39 35 C39.66 35 40.32 35 41 35 C40.88416889 36.54238266 40.75683428 38.08390272 40.625 39.625 C40.55539063 40.48351562 40.48578125 41.34203125 40.4140625 42.2265625 C40 45 40 45 38 51 C25.46 51 12.92 51 0 51 C0.66 48.36 1.32 45.72 2 43 C2.17915131 40.16045176 2.28147288 37.42478112 2.265625 34.58984375 C2.26753845 33.81870743 2.2694519 33.04757111 2.27142334 32.25306702 C2.27277458 30.63542349 2.26915298 29.01776871 2.26074219 27.40014648 C2.2500124 24.94034251 2.26068108 22.48126625 2.2734375 20.02148438 C2.272116 18.44010257 2.26955381 16.85872122 2.265625 15.27734375 C2.27169769 14.18799782 2.27169769 14.18799782 2.27789307 13.0766449 C2.23307946 8.14059812 1.41823558 4.96382454 0 0 Z " fill="#ffffff" transform="translate(168,145)"/>
<path d="M0 0 C14.52 0 29.04 0 44 0 C44.99 5.28 45.98 10.56 47 16 C46.01 16 45.02 16 44 16 C42.00101471 13.29549049 40.2793899 10.46887718 38.5234375 7.6015625 C35.81979427 4.81421514 34.98636208 4.54015641 31.34228516 3.83740234 C30.52974274 3.67525238 29.71720032 3.51310242 28.8800354 3.34603882 C28.25962372 3.23184601 27.63921204 3.1176532 27 3 C27.09417318 8.3896918 27.20040249 13.77896777 27.31738281 19.16821289 C27.35545768 20.9982264 27.39034638 22.82830927 27.421875 24.65844727 C27.46799633 27.30249685 27.52590831 29.94607758 27.5859375 32.58984375 C27.59748871 33.39646957 27.60903992 34.2030954 27.62094116 35.03416443 C27.76241782 40.58886203 28.65676045 45.60583275 30 51 C24.72 51 19.44 51 14 51 C14.47566406 49.13214844 14.47566406 49.13214844 14.9609375 47.2265625 C16.66192562 38.72162189 16.47130091 30.01577098 16.625 21.375 C16.66325141 19.58982619 16.7023071 17.80466942 16.7421875 16.01953125 C16.83740448 11.67982855 16.92171508 7.34003981 17 3 C12.545 3.495 12.545 3.495 8 4 C8 4.66 8 5.32 8 6 C6.38025441 7.71230248 4.7041054 9.37163262 3 11 C2.071875 11.928125 1.14375 12.85625 0.1875 13.8125 C-0.534375 14.534375 -1.25625 15.25625 -2 16 C-4.40370085 11.1925983 -1.12618501 5.25553006 0 0 Z " fill="#ffffff" transform="translate(20,145)"/>
<path d="M0 0 C63.69 0 127.38 0 193 0 C193 1.32 193 2.64 193 4 C129.31 4 65.62 4 0 4 C0 2.68 0 1.36 0 0 Z " fill="#ffffff" transform="translate(20,224)"/>
</svg>
