<?xml version="1.0" encoding="UTF-8"?>
<svg version="1.1" xmlns="http://www.w3.org/2000/svg" width="900" height="600">
<path d="M0 0 C1.06506271 0.02917007 1.06506271 0.02917007 2.15164185 0.05892944 C17.19778544 0.5231896 31.17871968 2.89506781 44.6875 9.875 C46.29818359 10.62910156 46.29818359 10.62910156 47.94140625 11.3984375 C68.92087394 21.30485099 85.14930234 36.87198465 96.6875 56.875 C97.14511719 57.638125 97.60273438 58.40125 98.07421875 59.1875 C100.6875 63.58881579 100.6875 63.58881579 100.6875 65.875 C101.3475 65.875 102.0075 65.875 102.6875 65.875 C102.6875 45.415 102.6875 24.955 102.6875 3.875 C127.67083168 3.67445595 127.67083168 3.67445595 138.421875 3.63085938 C145.72251844 3.60111288 153.02284468 3.56614353 160.32324219 3.49780273 C166.21718417 3.44298119 172.11078541 3.41347479 178.00496292 3.40061378 C180.23975606 3.39146313 182.47453317 3.37359754 184.70917892 3.34634972 C201.77724212 3.14674461 217.14861563 4.93718532 232.625 12.6875 C233.67252441 13.19941895 233.67252441 13.19941895 234.74121094 13.72167969 C257.27167358 25.05455443 273.0749443 43.92885853 281.4375 67.5 C285.28276834 80.08019888 286.72204607 92.35982149 287.25 105.4375 C287.31477539 106.95053711 287.31477539 106.95053711 287.38085938 108.49414062 C287.48579618 110.95432575 287.58795701 113.41459175 287.6875 115.875 C292.9411088 102.05080382 298.19223516 88.22594765 303.375 74.375 C306.39673329 66.30133748 309.44114764 58.23690149 312.51928711 50.18457031 C314.27625606 45.58668369 316.02483737 40.98582427 317.75942993 36.37944031 C318.74124405 33.77222108 319.72492969 31.16570914 320.70855713 28.55917358 C321.41804863 26.67661217 322.12483421 24.79303165 322.83154297 22.90942383 C323.27385254 21.73790771 323.71616211 20.5663916 324.171875 19.359375 C324.56084961 18.32522461 324.94982422 17.29107422 325.35058594 16.22558594 C327.01263401 12.06014624 328.86605652 7.97324783 330.6875 3.875 C349.1675 3.875 367.6475 3.875 386.6875 3.875 C392.30706399 17.36195358 392.30706399 17.36195358 394.6328125 23.68359375 C395.01031647 24.70556602 395.01031647 24.70556602 395.39544678 25.7481842 C395.92870283 27.19225738 396.46091836 28.63671519 396.99212646 30.08154297 C398.41115243 33.94049968 399.83849053 37.79637986 401.265625 41.65234375 C401.69710342 42.81876907 401.69710342 42.81876907 402.13729858 44.00875854 C404.90447977 51.47994264 407.72708669 58.92949381 410.5625 66.375 C413.72991891 74.69736944 416.87029505 83.0271898 419.9309082 91.3894043 C422.4133225 98.16047523 424.94968884 104.91099222 427.48815918 111.66119385 C432.32626461 124.52934496 437.12116306 137.41297311 441.875 150.3125 C442.17172607 151.11746918 442.46845215 151.92243835 442.77416992 152.75180054 C446.83233498 163.7671969 450.85572085 174.79406479 454.76049805 185.86499023 C456.8347888 191.69732106 459.13766638 197.38105866 461.63452148 203.04638672 C462.73106653 205.99203266 463.26983381 208.76618567 463.6875 211.875 C456.10696272 211.92576484 448.5264694 211.96076094 440.94580078 211.98486328 C438.36765912 211.99491262 435.78952882 212.00855426 433.21142578 212.02587891 C429.50290111 212.05017367 425.79452732 212.06149396 422.0859375 212.0703125 C420.93572113 212.08063507 419.78550476 212.09095764 418.60043335 212.10159302 C407.6178155 212.10312823 407.6178155 212.10312823 403.6875 209.875 C402.13598633 207.26464844 402.13598633 207.26464844 401.01953125 203.984375 C400.60123047 202.79972656 400.18292969 201.61507812 399.75195312 200.39453125 C399.33880859 199.15058594 398.92566406 197.90664063 398.5 196.625 C397.65510255 194.18133607 396.80753257 191.73859419 395.95703125 189.296875 C395.40946167 187.66637207 395.40946167 187.66637207 394.85083008 186.00292969 C393.54651034 182.32458265 393.54651034 182.32458265 390.6875 176.875 C368.9075 176.875 347.1275 176.875 324.6875 176.875 C319.01103788 188.22792424 314.3128046 200.05477714 309.6875 211.875 C290.8775 211.875 272.0675 211.875 252.6875 211.875 C251.40639494 208.03168483 252.23283791 206.90561597 253.77734375 203.21875 C254.45893555 201.56166016 254.45893555 201.56166016 255.15429688 199.87109375 C255.63962891 198.71738281 256.12496094 197.56367188 256.625 196.375 C257.57620969 194.09566219 258.52304035 191.81449048 259.46484375 189.53125 C259.89015381 188.51869141 260.31546387 187.50613281 260.75366211 186.46289062 C261.8572132 183.86322095 261.8572132 183.86322095 261.6875 180.875 C261.06746094 181.56464844 260.44742187 182.25429688 259.80859375 182.96484375 C243.29829591 200.48450478 219.66206224 210.88472998 195.6875 211.875 C188.56919625 212.04855848 181.44802187 212.01614094 174.328125 212.0078125 C172.28643787 212.00848723 170.24475082 212.00945866 168.20306396 212.01071167 C163.95372746 212.0121767 159.70441215 212.0100701 155.45507812 212.00537109 C149.99737012 211.99963067 144.53971083 212.00298734 139.08200455 212.00894356 C134.88030627 212.01254442 130.6786197 212.01141354 126.47692108 212.00881577 C124.46258285 212.00814743 122.44824356 212.00897168 120.43390656 212.01129532 C117.63592161 212.01381872 114.83801791 212.00998772 112.04003906 212.00439453 C111.20378998 212.00641876 110.36754089 212.00844299 109.50595093 212.01052856 C103.80177179 211.98927179 103.80177179 211.98927179 102.6875 210.875 C102.56412826 209.03468011 102.50958692 207.18970589 102.48217773 205.34545898 C102.46223251 204.16431015 102.44228729 202.98316132 102.42173767 201.76622009 C102.39666893 199.83813255 102.39666893 199.83813255 102.37109375 197.87109375 C102.35031265 196.56294205 102.32953156 195.25479034 102.30812073 193.90699768 C102.252837 190.42344553 102.20345569 186.9398334 102.15527344 183.45617676 C102.10510426 179.9036727 102.04939433 176.3512561 101.99414062 172.79882812 C101.88648209 165.82429454 101.78505433 158.84968202 101.6875 151.875 C100.88695901 153.15113996 100.0870279 154.42766252 99.28735352 155.7043457 C98.84182632 156.415168 98.39629913 157.1259903 97.93727112 157.85835266 C96.9652698 159.42678694 96.02171199 161.01286264 95.08984375 162.60546875 C90.62812769 170.08925383 85.14548899 176.17894055 79.10839844 182.39404297 C77.86947429 183.68533401 76.66937093 185.01364964 75.4765625 186.34765625 C66.44558371 196.15716769 53.98401241 202.99034246 41.6875 207.875 C40.86765625 208.21917969 40.0478125 208.56335938 39.203125 208.91796875 C36.39295612 210.02926281 33.57203783 210.97335742 30.6875 211.875 C28.90279297 212.43767578 28.90279297 212.43767578 27.08203125 213.01171875 C17.09269401 215.82471029 7.20113735 216.2518456 -3.125 216.25 C-4.4234082 216.25161133 -5.72181641 216.25322266 -7.05957031 216.25488281 C-29.71367765 215.99528647 -49.47301828 210.342915 -68.3125 197.875 C-69.26640625 197.26527344 -70.2203125 196.65554688 -71.203125 196.02734375 C-93.02456379 181.51402833 -109.383376 157.84915969 -115.33056641 132.22460938 C-120.44600088 104.2712763 -115.89127089 76.17295148 -101.3125 51.875 C-112.2025 51.875 -123.0925 51.875 -134.3125 51.875 C-134.30726318 56.50869629 -134.30202637 61.14239258 -134.29663086 65.91650391 C-134.28007485 81.21148259 -134.26896978 96.50646162 -134.26068783 111.80144691 C-134.25553207 121.07645754 -134.24850306 130.35145967 -134.23706055 139.62646484 C-134.22709175 147.7107746 -134.22064133 155.7950782 -134.21841151 163.87939394 C-134.21710814 168.15975288 -134.21404588 172.44009423 -134.20676994 176.72044754 C-134.19997511 180.75048211 -134.1978901 184.78049186 -134.19939232 188.81053162 C-134.19911755 190.28834035 -134.19713299 191.76614993 -134.19329453 193.2439537 C-134.18830325 195.26497545 -134.19011498 197.28601056 -134.19224548 199.30703735 C-134.19132369 200.43715555 -134.1904019 201.56727375 -134.18945217 202.73163795 C-134.3125 205.875 -134.3125 205.875 -135.3125 211.875 C-153.4625 211.875 -171.6125 211.875 -190.3125 211.875 C-191.12671566 207.8039217 -191.44719441 204.56178801 -191.47071838 200.46525574 C-191.4805072 199.17101685 -191.49029602 197.87677795 -191.50038147 196.5433197 C-191.50628492 195.11636389 -191.51209541 193.6894077 -191.51782227 192.26245117 C-191.52740623 190.75434097 -191.53741662 189.24623343 -191.54782104 187.73812866 C-191.57481999 183.64972919 -191.59585663 179.56131823 -191.61582303 175.47287917 C-191.63771353 171.19806951 -191.66508722 166.92329504 -191.69187927 162.64851379 C-191.74176475 154.55615105 -191.78671894 146.46376873 -191.82990164 138.37136775 C-191.87930946 129.15737728 -191.93421443 119.94342213 -191.98958123 110.72946584 C-192.10333764 91.77800858 -192.2094648 72.82651879 -192.3125 53.875 C-204.8525 53.545 -217.3925 53.215 -230.3125 52.875 C-230.3125 36.705 -230.3125 20.535 -230.3125 3.875 C-185.1025 3.875 -139.8925 3.875 -93.3125 3.875 C-92.35463004 7.70647984 -92.11274125 10.89543783 -91.99609375 14.828125 C-91.97531265 15.48834656 -91.95453156 16.14856812 -91.93312073 16.82879639 C-91.86799853 18.92743015 -91.80891498 21.02618372 -91.75 23.125 C-91.70677921 24.55209547 -91.6631638 25.97917905 -91.61914062 27.40625 C-91.51235589 30.89570722 -91.41098434 34.38529753 -91.3125 37.875 C-90.69375 37.215 -90.075 36.555 -89.4375 35.875 C-87.3125 33.875 -87.3125 33.875 -85.3125 33.875 C-85.11398438 33.32457031 -84.91546875 32.77414062 -84.7109375 32.20703125 C-82.73817904 28.91726365 -79.93815186 26.86325291 -76.9375 24.5625 C-75.9925769 23.83401855 -75.9925769 23.83401855 -75.02856445 23.09082031 C-52.92206235 6.33208179 -27.5046903 -0.77542245 0 0 Z M160.6875 50.875 C160.59184877 52.3424896 160.56561691 53.81456884 160.56724548 55.28517151 C160.56587082 56.23734558 160.56449615 57.18951965 160.56307983 58.17054749 C160.56667511 59.22358566 160.57027039 60.27662384 160.57397461 61.36157227 C160.57382858 62.46387177 160.57368256 63.56617126 160.5735321 64.70187378 C160.57423179 68.36507092 160.58202676 72.02821794 160.58984375 75.69140625 C160.59170773 78.22346468 160.59313173 80.75552348 160.59413147 83.2875824 C160.59756654 89.28348249 160.60545731 95.27936089 160.61548096 101.27525228 C160.62664323 108.09981058 160.63215283 114.92436972 160.63717639 121.74893486 C160.64763996 135.79096664 160.6652387 149.83298233 160.6875 163.875 C175.60914029 167.77291175 192.61455443 164.71400952 205.96875 157.52734375 C217.39655453 150.58199703 224.23864835 139.70621153 227.6875 126.875 C231.33768148 108.18313109 230.86143215 86.20001957 220.171875 69.98046875 C219.43710937 68.93826172 219.43710937 68.93826172 218.6875 67.875 C217.965625 66.823125 217.24375 65.77125 216.5 64.6875 C205.06813635 53.25563635 190.85952221 49.75924124 175.21289062 49.73828125 C173.74625977 49.74408203 173.74625977 49.74408203 172.25 49.75 C171.24517578 49.74613281 170.24035156 49.74226563 169.20507812 49.73828125 C167.77518555 49.74021484 167.77518555 49.74021484 166.31640625 49.7421875 C165.45088135 49.74331543 164.58535645 49.74444336 163.69360352 49.74560547 C161.68919936 49.65325852 161.68919936 49.65325852 160.6875 50.875 Z M-40.3125 64.875 C-40.3125 65.535 -40.3125 66.195 -40.3125 66.875 C-40.910625 67.13539063 -41.50875 67.39578125 -42.125 67.6640625 C-44.45897847 68.95608629 -45.65223195 70.18368813 -47.3125 72.25 C-48.90637729 74.21635948 -50.44325002 75.99600786 -52.3046875 77.71875 C-60.56659141 86.59145614 -62.81307519 100.0471044 -62.55859375 111.73828125 C-61.26478572 128.22919945 -54.2010357 140.85016884 -42.12109375 151.875 C-28.90258734 162.84706972 -13.09996166 165.67508212 3.58203125 164.70703125 C17.69107869 163.22827782 30.09777757 156.19418183 39.6875 145.875 C40.33074219 145.18921875 40.97398437 144.5034375 41.63671875 143.796875 C51.9894246 131.6700612 54.54529082 117.3932158 53.6875 101.875 C51.44923827 87.01787687 44.26588983 75.17347523 32.6875 65.875 C32.14351563 65.42125 31.59953125 64.9675 31.0390625 64.5 C10.74803006 48.66309664 -20.13378598 50.11363443 -40.3125 64.875 Z M358.6875 77.875 C355.03057635 86.01460425 352.12950121 94.30994646 349.36083984 102.78393555 C347.93127362 107.15518444 346.47832501 111.50969448 344.90625 115.83203125 C344.4875061 116.98505737 344.4875061 116.98505737 344.06030273 118.16137695 C343.53517583 119.59594328 343.00381586 121.02824943 342.46508789 122.45776367 C341.15255458 126.0538256 340.38503455 129.03885288 340.6875 132.875 C353.14681411 134.2484677 365.20752771 133.90884386 377.6875 132.875 C377.11727848 127.96586494 376.07433511 123.65134674 374.39453125 119.0078125 C374.16769653 118.37471664 373.94086182 117.74162079 373.70715332 117.08934021 C372.97757489 115.05728758 372.23888869 113.02868342 371.5 111 C370.99761899 109.60562931 370.49591207 108.21101558 369.99487305 106.81616211 C369.0112185 104.07966555 368.02453637 101.34429475 367.03515625 98.60986328 C365.33346827 93.89384468 363.66154817 89.16777754 362 84.4375 C361.53786818 83.1262641 361.07564315 81.81506104 360.61328125 80.50390625 C360.30777344 79.63636719 360.00226562 78.76882813 359.6875 77.875 C359.3575 77.875 359.0275 77.875 358.6875 77.875 Z " fill="#ffffff" transform="translate(268.3125,305.125)"/>
<path d="M0 0 C1.18980469 0.25652344 2.37960937 0.51304688 3.60546875 0.77734375 C16.99271062 4.0097037 29.47894969 9.43931074 41 17 C40.47145125 21.79265154 39.1179987 24.95668377 36.625 29.0625 C33.9785699 33.48845816 31.47752391 37.95450964 29.12890625 42.546875 C28.64147949 43.49941162 28.15405273 44.45194824 27.65185547 45.43334961 C26.68382073 47.33665633 25.72306705 49.24368567 24.77001953 51.15454102 C24.32384277 52.02780029 23.87766602 52.90105957 23.41796875 53.80078125 C23.02375732 54.58622314 22.6295459 55.37166504 22.22338867 56.1809082 C21 58 21 58 18 59 C16.16015625 57.9609375 16.16015625 57.9609375 14.0625 56.375 C2.89670655 48.5752318 -12.25967579 43.01840222 -26 45 C-30.80498465 46.65591518 -34.05000659 48.70455444 -37.0625 52.8125 C-38.17630802 56.59944728 -39.08031093 60.13362405 -38 64 C-34.70079856 68.76483182 -31.51708489 71.25014481 -26.125 73.4375 C-25.44663086 73.7247998 -24.76826172 74.01209961 -24.06933594 74.30810547 C-16.9538886 77.21265947 -9.60057102 79.33901098 -2.23779297 81.51538086 C17.10716496 87.25170497 31.21107789 94.7724332 41.35546875 112.6796875 C44.12269875 118.26673144 46.09570932 124.06773964 48 130 C52.74243013 118.96603648 57.28892252 107.86319491 61.6875 96.6875 C62.13843018 95.54506836 62.58936035 94.40263672 63.05395508 93.22558594 C65.79077251 86.24091101 68.38303952 79.21652303 70.88598633 72.14477539 C72.22176804 68.37396579 73.59972424 64.62232889 75 60.875 C75.45375 59.65554687 75.9075 58.43609375 76.375 57.1796875 C77.62614004 53.89854128 78.97463808 50.66493067 80.33984375 47.4296875 C83.53303161 39.81313945 86.40085284 32.07627399 89.27319336 24.33447266 C90.41063969 21.27335204 91.56722499 18.22236226 92.75830078 15.18164062 C93.50854562 13.2592673 94.22574599 11.32288751 94.87841797 9.36523438 C95.71484375 7.171875 95.71484375 7.171875 98 4 C100.02627563 3.47616577 100.02627563 3.47616577 102.45947266 3.31005859 C103.3561113 3.24733765 104.25274994 3.1846167 105.17655945 3.11999512 C109.76473682 2.92499938 114.34149291 2.85735279 118.93359375 2.8671875 C119.93334732 2.86623077 120.93310089 2.86527405 121.96315002 2.86428833 C124.0564073 2.86361284 126.14966676 2.86542266 128.24291992 2.86962891 C131.45300939 2.87502608 134.66296147 2.86964221 137.87304688 2.86328125 C139.91406281 2.86394137 141.95507866 2.86522115 143.99609375 2.8671875 C145.43510292 2.86415115 145.43510292 2.86415115 146.90318298 2.86105347 C147.79163406 2.86420563 148.68008514 2.86735779 149.59545898 2.87060547 C150.37582016 2.87140106 151.15618134 2.87219666 151.96018982 2.87301636 C154 3 154 3 157 4 C158.22578163 6.64271237 159.26434454 9.20552019 160.25 11.9375 C160.86937116 13.59520926 161.4891745 15.25275709 162.109375 16.91015625 C162.42326172 17.75980957 162.73714844 18.60946289 163.06054688 19.48486328 C164.21179609 22.56702788 165.41999679 25.62453071 166.6328125 28.68286133 C169.64418279 36.29521882 172.42600582 43.96860753 175.09814453 51.70581055 C177.76516697 59.40026495 180.561435 67.04574082 183.375 74.6875 C187.20709281 85.09842303 191.00742743 95.51975225 194.74365234 105.96557617 C197.77581568 114.42768801 200.88897111 122.85938266 204.0012207 131.29226685 C205.77176257 136.09228115 207.53829925 140.89376842 209.3046875 145.6953125 C209.67465851 146.7009726 210.04462952 147.70663269 210.42581177 148.74276733 C213.55489907 157.25049655 216.67823592 165.76033057 219.79837036 174.27134705 C221.68242596 179.41042384 223.56954436 184.54832675 225.46395874 189.68359375 C226.5227472 192.55802847 227.57356161 195.43537011 228.625 198.3125 C229.16423096 199.7658374 229.16423096 199.7658374 229.71435547 201.24853516 C230.02775879 202.11140137 230.34116211 202.97426758 230.6640625 203.86328125 C230.92654785 204.57782471 231.1890332 205.29236816 231.45947266 206.02856445 C232 208 232 208 232 212 C212.53 212 193.06 212 173 212 C169.73209391 204.8106066 166.79271374 197.93499154 164.3125 190.5 C163.72921722 188.75908596 163.14213735 187.01943827 162.55078125 185.28125 C162.17433472 184.15299805 162.17433472 184.15299805 161.7902832 183.00195312 C160.97833059 180.73951925 160.97833059 180.73951925 159 178 C155.69536599 176.89845533 153.17389081 176.84181283 149.69262695 176.79467773 C148.39150467 176.77473251 147.09038239 176.75478729 145.74983215 176.73423767 C144.3293164 176.71725454 142.9087994 176.70037569 141.48828125 176.68359375 C140.03524694 176.66301863 138.58221854 176.64202201 137.12919617 176.62062073 C133.3070047 176.56545766 129.48475974 176.51602302 125.66247559 176.46777344 C121.76126348 176.41751628 117.86012895 176.36185222 113.95898438 176.30664062 C106.30605531 176.19912959 98.65306167 176.09766902 91 176 C90.80337769 176.668535 90.60675537 177.33707001 90.4041748 178.02586365 C90.14124634 178.91250198 89.87831787 179.79914032 89.60742188 180.71264648 C89.34892456 181.58743149 89.09042725 182.46221649 88.82409668 183.36351013 C87.58005062 187.34352232 86.05490935 191.19559663 84.5 195.0625 C83.90400435 196.55248912 83.3102503 198.04337685 82.71875 199.53515625 C82.46029297 200.178479 82.20183594 200.82180176 81.93554688 201.48461914 C80.52081149 205.28838185 79.26771095 209.14514967 78 213 C71.82934861 213.02495131 65.6587274 213.04297757 59.48803711 213.05493164 C57.3942819 213.05992175 55.3005301 213.06671621 53.20678711 213.07543945 C30.89861344 213.16597155 30.89861344 213.16597155 20 212 C20.56620527 207.30858495 21.20564205 202.65934325 22 198 C21.42894531 198.43570313 20.85789062 198.87140625 20.26953125 199.3203125 C0.47645216 213.85831336 -22.21730098 217.39226507 -46.1875 214.25 C-67.2804255 210.69724576 -92.55253638 203.85830042 -108 188 C-109 185 -109 185 -107.59375 182.06640625 C-106.90597884 180.89243457 -106.20731143 179.72480341 -105.5 178.5625 C-105.13342285 177.94068848 -104.7668457 177.31887695 -104.38916016 176.67822266 C-103.26854285 174.77989597 -102.13540845 172.88950806 -101 171 C-96.82865401 163.98140747 -92.88521072 156.96235049 -89.359375 149.59375 C-88.09264295 147.17676701 -86.70367716 145.12458563 -85 143 C-81.34983025 144.62519463 -78.40689485 146.87940099 -75.25 149.3125 C-62.0090945 159.32913307 -48.88635103 165.37984002 -31.80859375 163.796875 C-25.32481788 162.75947086 -20.44654784 159.82740847 -16 155 C-14.51782099 152.31875482 -14.1256294 150.04241624 -14 147 C-13.96003906 146.16855469 -13.92007813 145.33710938 -13.87890625 144.48046875 C-13.97617479 140.15526118 -14.46170502 136.84511583 -17.5625 133.6875 C-24.2335701 128.89183113 -33.00171506 127.35994823 -40.82470703 125.23144531 C-80.28593445 114.44997074 -80.28593445 114.44997074 -91.15625 97.671875 C-99.44353135 82.93208931 -100.61892266 62.76857033 -96.8125 46.375 C-96.25517046 44.5682154 -95.65099007 42.77518978 -95 41 C-94.64808594 40.01128906 -94.29617188 39.02257812 -93.93359375 38.00390625 C-87.67565763 21.79110144 -78.14682562 10.21626703 -62.33984375 2.7421875 C-43.78018815 -4.63794065 -19.30915887 -4.20809814 0 0 Z M126 82 C119.63342687 98.19702648 113.32633361 114.42550846 108 131 C109.89221096 132.89221096 113.18927425 132.13056512 115.703125 132.1328125 C116.37792908 132.13376923 117.05273315 132.13472595 117.74798584 132.13571167 C119.18046156 132.13639366 120.61294034 132.13453805 122.04541016 132.13037109 C124.22695994 132.12505613 126.4083007 132.13029809 128.58984375 132.13671875 C129.98177129 132.13605732 131.37369869 132.13477482 132.765625 132.1328125 C134.66489746 132.13112061 134.66489746 132.13112061 136.60253906 132.12939453 C139.54043933 132.01750267 142.14964677 131.68438381 145 131 C142.90034589 122.35849593 139.96064591 114.12725001 136.81152344 105.82788086 C135.99563534 103.67598827 135.18870925 101.52088609 134.3828125 99.36523438 C133.85989724 97.97636576 133.33647759 96.58768693 132.8125 95.19921875 C132.4561145 94.24749031 132.4561145 94.24749031 132.0925293 93.27653503 C130.6124191 89.39082513 128.91587934 85.68940997 127 82 C126.67 82 126.34 82 126 82 Z " fill="#ffffff" transform="translate(600,79)"/>
<path d="M0 0 C1.59803112 0.00238731 3.19606508 0.00328914 4.7940979 0.0027771 C8.12772421 0.00589193 11.4609164 0.02236408 14.79443359 0.04931641 C19.07187105 0.08346067 23.34883644 0.0909396 27.62639427 0.08942604 C30.91887942 0.08996883 34.21126095 0.10091857 37.5037117 0.11542892 C39.08180585 0.12179848 40.65991173 0.12573619 42.23801804 0.12721634 C44.43541422 0.13153842 46.63230234 0.14900998 48.82958984 0.17041016 C50.08009125 0.17803375 51.33059265 0.18565735 52.61898804 0.19351196 C55.5390625 0.4609375 55.5390625 0.4609375 57.5390625 2.4609375 C57.9765625 5.8984375 57.9765625 5.8984375 57.5390625 9.4609375 C53.66710411 12.59809812 50.37174118 12.86875285 45.48828125 12.97265625 C44.82947464 12.99060745 44.17066803 13.00855865 43.49189758 13.02705383 C41.40351619 13.08090406 39.3153599 13.11496858 37.2265625 13.1484375 C35.8040053 13.1816332 34.38147771 13.21612494 32.95898438 13.25195312 C29.48589335 13.33661351 26.01272337 13.4035452 22.5390625 13.4609375 C23.0340625 16.4309375 23.0340625 16.4309375 23.5390625 19.4609375 C24.62509766 19.45570068 25.71113281 19.45046387 26.83007812 19.44506836 C63.11778776 19.28609988 63.11778776 19.28609988 77.9140625 19.7734375 C78.88537109 19.79591553 79.85667969 19.81839355 80.85742188 19.84155273 C81.72947266 19.87708252 82.60152344 19.9126123 83.5 19.94921875 C84.24040527 19.97540283 84.98081055 20.00158691 85.74365234 20.02856445 C87.5390625 20.4609375 87.5390625 20.4609375 89.5390625 23.4609375 C89.9765625 26.4609375 89.9765625 26.4609375 89.5390625 29.4609375 C86.08240932 32.07758705 83.48913433 32.84110694 79.19799805 32.89331055 C78.1572966 32.91310471 77.11659515 32.93289886 76.0443573 32.95329285 C74.9327272 32.95968277 73.82109711 32.96607269 72.67578125 32.97265625 C71.52866165 32.99060745 70.38154205 33.00855865 69.19966125 33.02705383 C65.54199886 33.0811615 61.88446703 33.11505501 58.2265625 33.1484375 C55.74412246 33.18161006 53.26169964 33.21609965 50.77929688 33.25195312 C44.69933581 33.3368884 38.61935787 33.40523656 32.5390625 33.4609375 C32.5390625 35.1109375 32.5390625 36.7609375 32.5390625 38.4609375 C33.15641769 38.47124496 33.77377289 38.48155243 34.40983582 38.49217224 C40.94980818 38.60200613 47.48969011 38.71641461 54.02954102 38.83325195 C56.45660474 38.87604572 58.883688 38.91774788 61.31079102 38.95825195 C73.42723405 39.1611529 85.54331951 39.38860177 97.65234375 39.87109375 C98.52996872 39.89981064 99.40759369 39.92852753 100.31181335 39.95811462 C106.30550192 40.22737692 106.30550192 40.22737692 108.5390625 42.4609375 C108.9140625 45.8984375 108.9140625 45.8984375 108.5390625 49.4609375 C106.38504133 51.64300235 105.01754323 52.39374546 101.97003174 52.82170105 C101.00184509 52.81503922 100.03365845 52.80837738 99.03613281 52.80151367 C97.38487396 52.80117378 97.38487396 52.80117378 95.70025635 52.80082703 C94.51784363 52.78534317 93.33543091 52.76985931 92.1171875 52.75390625 C90.90206482 52.74966141 89.68694214 52.74541656 88.43499756 52.74104309 C84.55279411 52.72424626 80.67110914 52.68659088 76.7890625 52.6484375 C74.15755958 52.63339202 71.52604852 52.61970338 68.89453125 52.60742188 C62.44253133 52.57433935 55.99083396 52.52412929 49.5390625 52.4609375 C48.8790625 54.7709375 48.2190625 57.0809375 47.5390625 59.4609375 C48.38042503 59.45700989 48.38042503 59.45700989 49.23878479 59.45300293 C64.99179441 59.39021938 80.72783692 59.61025976 96.4765625 59.9609375 C98.73241708 60.00933873 100.98827645 60.05751675 103.24414062 60.10546875 C108.67583897 60.2214004 114.10747277 60.34002924 119.5390625 60.4609375 C121.5703125 64.1328125 121.5703125 64.1328125 121.2890625 67.0859375 C120.5390625 69.4609375 120.5390625 69.4609375 118.5390625 71.4609375 C110.17867059 72.9693377 101.42488166 72.59665312 92.95387077 72.59903717 C89.24064476 72.6034242 85.52758171 72.63447547 81.81445312 72.66015625 C77.12014206 72.69061002 72.42610887 72.71323727 67.73168945 72.71142578 C63.90499495 72.71064051 60.07910957 72.73389025 56.25262642 72.7733078 C54.8009867 72.78376885 53.34925369 72.78529094 51.89759636 72.77765656 C49.87824342 72.76807512 47.85881491 72.79193331 45.83959961 72.81738281 C44.11851234 72.82285126 44.11851234 72.82285126 42.36265564 72.82843018 C39.31200324 73.18973088 39.31200324 73.18973088 37.64527893 76.00115967 C37.28022751 76.81288635 36.91517609 77.62461304 36.5390625 78.4609375 C39.71348301 80.04814776 43.14176473 79.62304146 46.62890625 79.63452148 C47.88273605 79.644552 47.88273605 79.644552 49.16189575 79.65478516 C50.97999606 79.66885127 52.79811419 79.68074034 54.61624146 79.69073296 C57.49023936 79.70710918 60.36410464 79.73034417 63.23803711 79.75563049 C71.41025216 79.82650978 79.58252072 79.88662468 87.75488281 79.93774414 C92.74985824 79.96946975 97.74468059 80.01072622 102.73953247 80.05793953 C104.64695492 80.07399565 106.55441266 80.08630043 108.46188354 80.09484673 C111.12448753 80.10695036 113.78672898 80.13107778 116.44921875 80.15795898 C117.63996506 80.1588427 117.63996506 80.1588427 118.85476685 80.15974426 C124.31116404 80.23303904 124.31116404 80.23303904 126.5390625 82.4609375 C126.9765625 85.8984375 126.9765625 85.8984375 126.5390625 89.4609375 C122.11645328 93.41786648 117.02474953 92.90173042 111.42456055 92.89331055 C109.90190834 92.90859802 109.90190834 92.90859802 108.34849548 92.92419434 C104.99920141 92.95434551 101.65019326 92.96359374 98.30078125 92.97265625 C95.97621203 92.98950132 93.65165194 93.00765132 91.32710266 93.02705383 C85.21319427 93.0745784 79.09932284 93.10437206 72.98529053 93.13049316 C66.7446767 93.16028613 60.50419028 93.20682085 54.26367188 93.25195312 C42.02220203 93.33801432 29.78070598 93.40534724 17.5390625 93.4609375 C17.5390625 95.4409375 17.5390625 97.4209375 17.5390625 99.4609375 C18.45526367 99.45570068 19.37146484 99.45046387 20.31542969 99.44506836 C43.22644543 99.32857919 66.13877484 99.44150913 89.04853439 99.69826221 C92.93773392 99.74184727 96.82682974 99.78057571 100.71618652 99.80709839 C104.42876222 99.83280373 108.14090768 99.87296631 111.85321808 99.92406082 C113.23989953 99.94073599 114.62665256 99.95229906 116.0134201 99.95856857 C117.92117492 99.96811297 119.82879749 99.99780086 121.73632812 100.02856445 C123.35166443 100.04521904 123.35166443 100.04521904 124.99963379 100.06221008 C125.83764526 100.19379013 126.67565674 100.32537018 127.5390625 100.4609375 C129.69408781 103.69347546 130.00762385 104.71244673 129.5390625 108.4609375 C127.80583993 110.89230749 126.80642483 111.41061538 123.84149647 111.96866512 C122.78245452 112.02564855 121.72341257 112.08263197 120.63227844 112.14134216 C119.4662742 112.20562849 118.30026997 112.26991482 117.09893227 112.33614922 C111.74567871 112.52380308 106.4039347 112.59237099 101.04760742 112.57446289 C99.87528061 112.57460892 98.7029538 112.57475494 97.49510193 112.5749054 C93.66989202 112.57421591 89.84473252 112.56646923 86.01953125 112.55859375 C83.34768084 112.55672614 80.67583313 112.55525458 78.00398254 112.55430603 C71.7216144 112.55121659 65.43926396 112.54303587 59.15690356 112.53295654 C51.99591857 112.52172065 44.83493266 112.51626624 37.67394102 112.51126111 C22.96230585 112.50085085 8.25068448 112.48329836 -6.4609375 112.4609375 C-5.6771875 113.2446875 -4.8934375 114.0284375 -4.0859375 114.8359375 C-2.54427083 116.37760417 -1.00260417 117.91927083 0.5390625 119.4609375 C2.84077095 119.76969647 2.84077095 119.76969647 5.54956055 119.72595215 C7.13962418 119.73836189 7.13962418 119.73836189 8.7618103 119.75102234 C10.51360092 119.74954948 10.51360092 119.74954948 12.30078125 119.74804688 C14.13982529 119.75829643 14.13982529 119.75829643 16.01602173 119.76875305 C18.6854599 119.7823721 21.35463505 119.79239539 24.02407837 119.79646301 C28.24228431 119.80316455 32.46032929 119.8249041 36.6784668 119.84899902 C45.63196104 119.89801143 54.58548933 119.93031039 63.5390625 119.9609375 C73.20411958 119.99399835 82.86911387 120.02985986 92.53407383 120.08506823 C96.73003435 120.10846265 100.92588311 120.12216915 105.12190247 120.12856293 C108.34042216 120.13587692 111.55886837 120.15589057 114.77734375 120.17382812 C116.52913437 120.17235527 116.52913437 120.17235527 118.3163147 120.17085266 C119.37635712 120.17912582 120.43639954 120.18739899 121.52856445 120.19592285 C122.45329056 120.19885597 123.37801666 120.20178909 124.33076477 120.2048111 C126.5390625 120.4609375 126.5390625 120.4609375 128.5390625 122.4609375 C128.88396572 126.51355037 128.84070132 128.00847926 126.5390625 131.4609375 C115.80533154 134.11380409 102.95317997 132.68933211 91.9296875 132.77734375 C89.74965046 132.79794964 87.56961709 132.81894697 85.3895874 132.84031677 C79.68842565 132.89516242 73.98723013 132.94473502 68.28601074 132.99316406 C62.45366456 133.04365528 56.62136663 133.09919627 50.7890625 133.15429688 C39.37243718 133.26141875 27.95576973 133.36296323 16.5390625 133.4609375 C20.61537967 134.85943386 24.46226128 135.88027927 28.7265625 136.5234375 C31.81979089 136.99423075 34.56683597 137.47019532 37.5390625 138.4609375 C40.05784231 138.55507853 42.54940217 138.5942428 45.06811523 138.58691406 C45.83266022 138.5887822 46.5972052 138.59065033 47.38491821 138.59257507 C49.04476522 138.59657756 50.70461774 138.59865377 52.36446953 138.59903717 C55.89173187 138.60245238 59.4188098 138.62381152 62.94600773 138.64426804 C69.51391629 138.682305 76.08162691 138.71354925 82.6496582 138.71142578 C87.21805322 138.71063965 91.78577204 138.7339574 96.35399055 138.7733078 C98.09508285 138.78378275 99.83625304 138.78528083 101.57736015 138.77765656 C104.01252571 138.76805513 106.44563549 138.78917403 108.88061523 138.81738281 C109.60022934 138.80718613 110.31984344 138.79698944 111.06126404 138.78648376 C114.80155376 138.86423676 116.27731541 139.21121337 119.02552795 141.83319092 C120.5390625 144.4609375 120.5390625 144.4609375 120.4140625 147.1484375 C119.5390625 149.4609375 119.5390625 149.4609375 117.5390625 151.4609375 C114.92269897 151.73268127 114.92269897 151.73268127 111.56396484 151.76391602 C110.30860931 151.78055801 109.05325378 151.79720001 107.75985718 151.81434631 C106.38157187 151.82291349 105.00328613 151.83141087 103.625 151.83984375 C102.21211604 151.85602318 100.79924322 151.87320365 99.38638306 151.89134216 C95.65766598 151.93710784 91.92893359 151.97185001 88.20007324 152.00354004 C82.25321076 152.05530159 76.3065158 152.12106901 70.35985184 152.19175529 C68.29056452 152.21439985 66.22129733 152.23080131 64.15194702 152.24647522 C60.61235773 152.28394651 57.07720884 152.3551054 53.5390625 152.4609375 C52.2601413 152.49185989 52.2601413 152.49185989 50.9553833 152.52340698 C48.5962637 152.61536015 48.5962637 152.61536015 45.5390625 153.4609375 C43.81706865 155.94295912 43.81706865 155.94295912 42.5390625 158.4609375 C43.33419754 158.46680374 44.12933258 158.47266998 44.94856262 158.47871399 C52.43835846 158.53659402 59.92781983 158.60864308 67.41731739 158.69665241 C71.26785506 158.74139921 75.11828588 158.78064548 78.96899414 158.80737305 C82.68447815 158.83336357 86.3995519 158.87373485 90.11478233 158.92412376 C91.53291411 158.94082146 92.95111689 158.95231767 94.36933327 158.95855141 C96.3541649 158.96816004 98.33886832 158.99790034 100.32348633 159.02856445 C101.45377762 159.03966751 102.58406891 159.05077057 103.74861145 159.06221008 C106.5390625 159.4609375 106.5390625 159.4609375 108.40409851 160.76530457 C110.31122231 163.61454204 109.89934686 166.15833088 109.5390625 169.4609375 C105.93544613 171.86334841 104.24498035 171.73222122 99.95629883 171.77978516 C99.29261795 171.78983078 98.62893707 171.7998764 97.94514465 171.81022644 C95.75380308 171.84109063 93.56258385 171.85810218 91.37109375 171.875 C89.85079391 171.89370909 88.33050449 171.91328231 86.81022644 171.9336853 C82.81049738 171.98504007 78.81073464 172.02464776 74.81085205 172.06182861 C70.7286341 172.10184738 66.64655664 172.1529494 62.56445312 172.203125 C54.55608552 172.29992385 46.54764845 172.38431584 38.5390625 172.4609375 C38.2090625 174.4409375 37.8790625 176.4209375 37.5390625 178.4609375 C38.38018333 178.47306778 38.38018333 178.47306778 39.23829651 178.48544312 C45.09504176 178.57175967 50.95145907 178.67127393 56.80786133 178.77832031 C58.99107336 178.81651155 61.1743462 178.85138134 63.35766602 178.8828125 C66.50298741 178.92867729 69.64789374 178.98663646 72.79296875 179.046875 C73.7630336 179.05842621 74.73309845 179.06997742 75.7325592 179.08187866 C81.03373803 179.19631784 85.51824553 179.73171353 90.5390625 181.4609375 C91.84974708 186.70367582 91.84974708 186.70367582 90.64990234 189.62817383 C87.21609594 192.60962013 83.47875535 192.04442398 79.078125 192.03515625 C78.13657562 192.04932083 77.19502625 192.06348541 76.22494507 192.07807922 C73.20453707 192.12004363 70.1847208 192.13519956 67.1640625 192.1484375 C63.21866045 192.18715556 59.27340981 192.23607564 55.328125 192.28515625 C54.38318176 192.29489471 53.43823853 192.30463318 52.46466064 192.31466675 C45.4531297 192.40168465 38.51865229 192.75299579 31.5390625 193.4609375 C31.5390625 195.4409375 31.5390625 197.4209375 31.5390625 199.4609375 C32.2503833 199.45570068 32.9617041 199.45046387 33.69458008 199.44506836 C36.91356525 199.42429732 40.13253633 199.41127692 43.3515625 199.3984375 C45.03088867 199.38586914 45.03088867 199.38586914 46.74414062 199.37304688 C48.35385742 199.36821289 48.35385742 199.36821289 49.99609375 199.36328125 C50.98585205 199.35804443 51.97561035 199.35280762 52.99536133 199.34741211 C55.5390625 199.4609375 55.5390625 199.4609375 58.5390625 200.4609375 C59.92456447 203.23194144 59.7268092 205.3944081 59.5390625 208.4609375 C58.8790625 209.4509375 58.2190625 210.4409375 57.5390625 211.4609375 C55.06603308 211.7582932 52.84237992 211.86026764 50.3671875 211.83325195 C49.62883667 211.83690262 48.89048584 211.84055328 48.12976074 211.84431458 C45.68262928 211.85243825 43.23615624 211.83879544 40.7890625 211.82421875 C39.09277344 211.82370036 37.39648378 211.82421725 35.70019531 211.82572937 C32.14248708 211.82563957 28.58500507 211.81519352 25.02734375 211.79711914 C20.46053569 211.7744316 15.89405837 211.77388695 11.32720947 211.78063679 C7.82370042 211.78397378 4.32026716 211.77735179 0.81677246 211.76750755 C-0.86738692 211.7636506 -2.55155472 211.76250938 -4.23571777 211.7640934 C-6.58699692 211.7644631 -8.93784755 211.75187103 -11.2890625 211.7355957 C-12.33954773 211.73931183 -12.33954773 211.73931183 -13.41125488 211.74310303 C-18.23219538 211.68967962 -18.23219538 211.68967962 -20.4609375 209.4609375 C-20.73085656 206.77254365 -20.54831107 204.16951814 -20.4609375 201.4609375 C-14.46755057 199.4160371 -8.82769989 199.04277591 -2.5234375 198.8359375 C-1.55341797 198.79726563 -0.58339844 198.75859375 0.41601562 198.71875 C2.79018326 198.62518674 5.16435742 198.53944542 7.5390625 198.4609375 C6.39915919 195.90394612 6.39915919 195.90394612 4.5390625 193.4609375 C2.1502467 192.68497989 2.1502467 192.68497989 -0.60327148 192.75732422 C-2.17521523 192.71235306 -2.17521523 192.71235306 -3.77891541 192.66647339 C-4.91019363 192.65794342 -6.04147186 192.64941345 -7.20703125 192.640625 C-8.36969009 192.61042267 -9.53234894 192.58022034 -10.73023987 192.54910278 C-14.45287257 192.45491266 -18.17506514 192.39306874 -21.8984375 192.3359375 C-25.61797157 192.26821792 -29.33690836 192.1933635 -33.05592346 192.10134888 C-35.37163695 192.04505113 -37.68775903 192.00330862 -40.00401306 191.97750854 C-41.58068504 191.94199387 -41.58068504 191.94199387 -43.18920898 191.90576172 C-44.11281723 191.89197479 -45.03642548 191.87818787 -45.98802185 191.86398315 C-48.87865193 191.39285674 -50.28711354 190.37669196 -52.4609375 188.4609375 C-51.5859375 181.5859375 -51.5859375 181.5859375 -50.4609375 180.4609375 C-45.12621123 179.49592029 -39.87643748 179.25828312 -34.46484375 179.14453125 C-33.63129868 179.12375015 -32.7977536 179.10296906 -31.93894958 179.08155823 C-29.30052189 179.01665894 -26.66200259 178.95745772 -24.0234375 178.8984375 C-22.22460026 178.85519544 -20.42577196 178.81157942 -18.62695312 178.76757812 C-14.2383729 178.66103951 -9.8497014 178.55960775 -5.4609375 178.4609375 C-6.24223821 175.96541266 -6.24223821 175.96541266 -7.4609375 173.4609375 C-10.49634282 172.44913573 -12.59348666 172.31899094 -15.77099609 172.28735352 C-16.8557724 172.27386368 -17.94054871 172.26037384 -19.05819702 172.24647522 C-20.23008575 172.23603683 -21.40197449 172.22559845 -22.609375 172.21484375 C-25.08333691 172.18190819 -27.55729516 172.1486965 -30.03125 172.11523438 C-33.93747458 172.06779533 -37.843684 172.02335971 -41.75 171.98413086 C-45.51578233 171.94442848 -49.2812602 171.89288124 -53.046875 171.83984375 C-54.79863541 171.82722252 -54.79863541 171.82722252 -56.58578491 171.81434631 C-57.67686554 171.79770432 -58.76794617 171.78106232 -59.89208984 171.76391602 C-60.84900726 171.75360855 -61.80592468 171.74330109 -62.7918396 171.73268127 C-65.65931287 171.44074069 -67.84890516 170.65175236 -70.4609375 169.4609375 C-70.4609375 166.8209375 -70.4609375 164.1809375 -70.4609375 161.4609375 C-66.95365459 159.87738913 -64.23654786 159.21403512 -60.39526367 159.23388672 C-59.41462448 159.23403778 -58.43398529 159.23418884 -57.42362976 159.23434448 C-56.377621 159.24466705 -55.33161224 159.25498962 -54.25390625 159.265625 C-52.63310905 159.26986984 -52.63310905 159.26986984 -50.97956848 159.27420044 C-47.53574449 159.28537618 -44.09218261 159.31047632 -40.6484375 159.3359375 C-38.31055064 159.34597065 -35.97265969 159.35509592 -33.63476562 159.36328125 C-27.91006715 159.385307 -22.18552105 159.41875882 -16.4609375 159.4609375 C-16.7909375 157.4809375 -17.1209375 155.5009375 -17.4609375 153.4609375 C-24.01943734 152.29673127 -30.52677416 152.23975684 -37.17578125 152.14453125 C-38.38665909 152.12375015 -39.59753693 152.10296906 -40.84510803 152.08155823 C-44.6961626 152.01640726 -48.54728277 151.95733836 -52.3984375 151.8984375 C-55.01628271 151.8552195 -57.63412138 151.81160418 -60.25195312 151.76757812 C-66.65487945 151.66076131 -73.0578704 151.55893215 -79.4609375 151.4609375 C-81.58189171 147.71473103 -81.48988718 145.67027708 -80.4609375 141.4609375 C-76.47452236 137.47452236 -64.43770534 139.21533485 -59.30859375 139.14453125 C-58.05332382 139.12375015 -56.79805389 139.10296906 -55.50474548 139.08155823 C-52.18894633 139.02745007 -48.87313475 138.97714137 -45.55725098 138.92871094 C-42.16506872 138.8782181 -38.77296938 138.82267798 -35.38085938 138.76757812 C-28.74095173 138.66073963 -22.10098151 138.55891392 -15.4609375 138.4609375 C-15.1309375 136.8109375 -14.8009375 135.1609375 -14.4609375 133.4609375 C-15.71881577 133.44880722 -15.71881577 133.44880722 -17.00210571 133.43643188 C-24.91765247 133.35838515 -32.83303148 133.27106414 -40.74836159 133.17341042 C-44.8173954 133.12353443 -48.88640434 133.07720386 -52.95556641 133.0390625 C-56.88494181 133.00209949 -60.81410468 132.95571015 -64.74329758 132.90287399 C-66.23990513 132.88438842 -67.73655815 132.86925906 -69.23323441 132.85759354 C-71.33490867 132.84063052 -73.43610235 132.81157288 -75.53759766 132.77978516 C-76.73228668 132.76646149 -77.92697571 132.75313782 -79.15786743 132.7394104 C-82.65948491 132.4441985 -86.85342051 132.06845449 -89.4609375 129.4609375 C-89.6484375 126.0234375 -89.6484375 126.0234375 -89.4609375 122.4609375 C-86.83479484 119.83479484 -85.57766752 120.16144447 -81.90966797 120.05029297 C-80.16808914 119.99045731 -80.16808914 119.99045731 -78.3913269 119.92941284 C-77.13297028 119.89598785 -75.87461365 119.86256287 -74.578125 119.828125 C-73.29358429 119.78656281 -72.00904358 119.74500061 -70.68557739 119.70217896 C-67.269609 119.59176185 -63.85339921 119.49293395 -60.43701172 119.39648438 C-56.95127872 119.29603564 -53.46589649 119.1846735 -49.98046875 119.07421875 C-43.14092913 118.85908612 -36.3010727 118.65619007 -29.4609375 118.4609375 C-30.4096875 118.0071875 -31.3584375 117.5534375 -32.3359375 117.0859375 C-35.4609375 115.4609375 -35.4609375 115.4609375 -37.4609375 113.4609375 C-39.43666201 113.13814217 -39.43666201 113.13814217 -41.72363281 113.15795898 C-42.60504944 113.14131699 -43.48646606 113.12467499 -44.39459229 113.10752869 C-45.34976746 113.09911453 -46.30494263 113.09070038 -47.2890625 113.08203125 C-48.27082458 113.06503677 -49.25258667 113.0480423 -50.26409912 113.03053284 C-53.41297919 112.97727875 -56.56184695 112.93708696 -59.7109375 112.8984375 C-62.84567457 112.85441165 -65.98031271 112.807549 -69.1149292 112.75563049 C-71.06704307 112.72386521 -73.01924285 112.69691688 -74.97149658 112.67539978 C-84.02928288 112.53872795 -84.02928288 112.53872795 -88.4609375 111.4609375 C-90.41325576 109.08420222 -90.50189319 107.89097225 -90.2109375 104.8359375 C-89.4609375 102.4609375 -89.4609375 102.4609375 -87.4609375 100.4609375 C-84.74093393 100.21537379 -82.11519493 100.08737264 -79.390625 100.046875 C-78.19628342 100.01782578 -78.19628342 100.01782578 -76.97781372 99.9881897 C-74.43063116 99.92833276 -71.88340355 99.88198471 -69.3359375 99.8359375 C-67.6106572 99.79776329 -65.88539607 99.75871189 -64.16015625 99.71875 C-59.92723874 99.62262641 -55.69423201 99.53861842 -51.4609375 99.4609375 C-51.30282362 96.40823287 -51.30282362 96.40823287 -52.4609375 93.4609375 C-53.37907227 93.44635498 -54.29720703 93.43177246 -55.24316406 93.41674805 C-58.65781659 93.35560235 -62.07167422 93.28143533 -65.48583984 93.19848633 C-66.96196888 93.16528395 -68.43822344 93.13723733 -69.91455078 93.11450195 C-72.03993082 93.08086799 -74.16416554 93.02855231 -76.2890625 92.97265625 C-77.5668457 92.94647217 -78.84462891 92.92028809 -80.16113281 92.89331055 C-83.6135106 92.44094586 -85.10200188 91.99280811 -87.4609375 89.4609375 C-87.8359375 85.8984375 -87.8359375 85.8984375 -87.4609375 82.4609375 C-84.93750339 79.93750339 -84.04840593 80.21082214 -80.55859375 80.1875 C-79.58599609 80.166875 -78.61339844 80.14625 -77.61132812 80.125 C-75.55672415 80.0990088 -73.50200748 80.08074928 -71.44726562 80.0703125 C-70.47337891 80.04710937 -69.49949219 80.02390625 -68.49609375 80 C-67.15623413 79.98767334 -67.15623413 79.98767334 -65.78930664 79.97509766 C-63.32027628 79.65771716 -63.32027628 79.65771716 -61.70874023 77.61474609 C-60.32792178 75.39846716 -60.32792178 75.39846716 -59.4609375 72.4609375 C-60.3065625 72.47253906 -61.1521875 72.48414063 -62.0234375 72.49609375 C-74.4506878 72.59494688 -74.4506878 72.59494688 -80.4609375 71.4609375 C-82.4609375 69.4609375 -82.4609375 69.4609375 -82.7734375 66.5234375 C-82.4609375 63.4609375 -82.4609375 63.4609375 -81.421875 61.84375 C-78.46883035 59.76132409 -75.27609259 59.62991687 -71.7734375 59.2734375 C-71.07154297 59.19158203 -70.36964844 59.10972656 -69.64648438 59.02539062 C-67.91927024 58.82564477 -66.19023747 58.64173762 -64.4609375 58.4609375 C-63.8009375 56.4809375 -63.1409375 54.5009375 -62.4609375 52.4609375 C-63.4303125 52.1515625 -64.3996875 51.8421875 -65.3984375 51.5234375 C-68.4609375 50.4609375 -68.4609375 50.4609375 -69.4609375 49.4609375 C-69.7109375 46.0234375 -69.7109375 46.0234375 -69.4609375 42.4609375 C-66.24964017 40.32007261 -64.70681709 40.13385939 -60.9609375 39.7109375 C-56.52787297 39.03415659 -56.52787297 39.03415659 -53.3984375 35.9609375 C-52.3929737 32.20720597 -51.59878658 28.47027455 -50.98828125 24.6328125 C-50.4609375 22.4609375 -50.4609375 22.4609375 -48.4609375 20.4609375 C-45.99594253 19.88365531 -43.57643563 19.39017108 -41.0859375 18.9609375 C-35.03712549 17.93738477 -35.03712549 17.93738477 -29.4609375 15.4609375 C-29.615625 14.130625 -29.615625 14.130625 -29.7734375 12.7734375 C-29.4609375 9.4609375 -29.4609375 9.4609375 -27.4609375 6.8359375 C-18.58721075 -0.18909618 -10.80878316 -0.10666661 0 0 Z M3.5390625 12.4609375 C3.80562822 15.39537152 3.80562822 15.39537152 4.5390625 18.4609375 C6.0240625 19.4509375 6.0240625 19.4509375 7.5390625 20.4609375 C7.5390625 18.1509375 7.5390625 15.8409375 7.5390625 13.4609375 C6.2190625 13.1309375 4.8990625 12.8009375 3.5390625 12.4609375 Z M11.5390625 33.4609375 C11.8690625 35.4409375 12.1990625 37.4209375 12.5390625 39.4609375 C16.23447836 40.41118729 18.84364664 40.41118729 22.5390625 39.4609375 C21.8790625 37.1509375 21.2190625 34.8409375 20.5390625 32.4609375 C16.91961351 31.12040084 14.96539083 31.84294912 11.5390625 33.4609375 Z M-16.4609375 92.4609375 C-16.10908011 95.06468217 -15.73854335 97.03046085 -14.3046875 99.25390625 C-11.53917415 101.06438003 -9.22836322 100.82127144 -5.9609375 100.7734375 C-4.81625 100.76957031 -3.6715625 100.76570313 -2.4921875 100.76171875 C0.71462795 100.6832164 0.71462795 100.6832164 3.5390625 98.4609375 C2.11671188 95.32389127 2.11671188 95.32389127 -0.4609375 92.4609375 C-3.50839569 92.00198295 -5.710734 91.8792097 -8.7109375 92.0859375 C-9.82855469 92.12654297 -9.82855469 92.12654297 -10.96875 92.16796875 C-12.80072743 92.23842942 -14.63120901 92.34604757 -16.4609375 92.4609375 Z " fill="#fff" transform="translate(160.4609375,81.5390625)"/>
<path d="M0 0 C1.3422464 -0.00472824 1.3422464 -0.00472824 2.71160889 -0.009552 C3.67206116 -0.00752777 4.63251343 -0.00550354 5.62207031 -0.00341797 C6.6184552 -0.00437469 7.61484009 -0.00533142 8.64141846 -0.00631714 C10.74955305 -0.00699733 12.85768975 -0.00515426 14.96582031 -0.00097656 C18.17420228 0.00435137 21.38244282 -0.00091535 24.59082031 -0.00732422 C26.64290395 -0.00666297 28.6949875 -0.00538083 30.74707031 -0.00341797 C31.69942566 -0.0054422 32.65178101 -0.00746643 33.63299561 -0.009552 C34.54043518 -0.00639984 35.44787476 -0.00324768 36.3828125 0 C37.56384552 0.00119339 37.56384552 0.00119339 38.76873779 0.00241089 C42.3643058 0.17268333 45.88225955 0.65288736 49.45019531 1.12939453 C49.45442725 1.73309372 49.45865919 2.33679291 49.46301937 2.95878601 C49.56679253 17.71875386 49.67549509 32.47867941 49.78953457 47.23857117 C49.84456939 54.37664292 49.89799881 61.51471965 49.94750977 68.65283203 C49.99071985 74.88192368 50.03708379 81.11098294 50.08707386 87.34002399 C50.1133824 90.6314069 50.13775032 93.9227847 50.15926933 97.21420288 C50.23767279 113.82750793 50.23767279 113.82750793 50.7824707 130.43017578 C50.83762344 131.58300049 50.89277618 132.7358252 50.94960022 133.92358398 C52.22959007 142.12063786 56.91298193 148.68778151 62.76269531 154.37939453 C72.19414928 160.52080641 82.06983288 162.52311296 93.13769531 160.31689453 C96.68674774 159.46634576 99.3970229 158.16484281 102.45019531 156.12939453 C103.11019531 156.12939453 103.77019531 156.12939453 104.45019531 156.12939453 C104.78019531 155.13939453 105.11019531 154.14939453 105.45019531 153.12939453 C106.19269531 152.44876953 106.93519531 151.76814453 107.70019531 151.06689453 C114.22763082 144.65693915 116.01843549 137.088319 116.19921875 128.19099426 C116.19994385 126.94589584 116.20066895 125.70079742 116.20141602 124.41796875 C116.21977 123.06672723 116.24027307 121.71551348 116.26274109 120.36433411 C116.31722913 116.72660569 116.34195885 113.08923279 116.36102319 109.45116949 C116.38617444 105.63797795 116.43914286 101.82517081 116.48905945 98.01223755 C116.57923018 90.8055329 116.64467296 83.59882818 116.70105571 76.3917886 C116.76650777 68.18108321 116.85979542 59.97076619 116.95532858 51.76036429 C117.15108129 34.88361584 117.31217953 18.00671193 117.45019531 1.12939453 C120.50092566 0.96449845 123.55171094 0.80076391 126.60253906 0.63769531 C127.89194397 0.56782158 127.89194397 0.56782158 129.20739746 0.49653625 C134.9579699 0.19034277 140.6904511 -0.02702226 146.45019531 0.00439453 C147.15917969 0.00052734 147.86816406 -0.00333984 148.59863281 -0.00732422 C154.50916885 0.00276202 160.39776546 0.31796561 166.29785156 0.63769531 C167.17896606 0.68479141 168.06008057 0.73188751 168.96789551 0.78041077 C171.12870115 0.89601131 173.28945369 1.01260354 175.45019531 1.12939453 C175.54390174 19.79321049 175.61430284 38.45697828 175.657444 57.12098122 C175.67801331 65.78825398 175.70602532 74.45538004 175.75195312 83.12255859 C175.7919943 90.68249917 175.81766898 98.24233342 175.82654929 105.8023771 C175.831735 109.80030707 175.84380366 113.79793302 175.87311554 117.79576492 C175.90055891 121.56984742 175.90858299 125.34350488 175.90262604 129.11767769 C175.90422637 131.14038179 175.92559605 133.16304115 175.94787598 135.18562317 C175.89410605 147.3043905 173.06666855 158.35916328 167.13769531 168.94189453 C166.74525635 169.65909668 166.35281738 170.37629883 165.94848633 171.11523438 C161.01553849 179.94662443 155.30202388 186.75397818 147.45019531 193.12939453 C146.66644531 193.81001953 145.88269531 194.49064453 145.07519531 195.19189453 C121.91934317 212.28311873 92.08963919 215.85907641 64.07519531 212.44189453 C46.31574748 209.40409424 31.54315715 202.27217309 17.45019531 191.12939453 C16.29003906 190.34628906 16.29003906 190.34628906 15.10644531 189.54736328 C14.28660156 188.84546875 14.28660156 188.84546875 13.45019531 188.12939453 C13.45019531 187.13939453 13.45019531 186.14939453 13.45019531 185.12939453 C12.46019531 184.79939453 11.47019531 184.46939453 10.45019531 184.12939453 C8.87159281 182.03050357 7.45994833 179.97551515 6.07519531 177.75439453 C5.67671387 177.12315674 5.27823242 176.49191895 4.86767578 175.84155273 C-4.73558878 160.3413752 -7.67469551 146.30102034 -7.75512695 128.27783203 C-7.76472098 126.88750426 -7.77473192 125.49717932 -7.78512573 124.1068573 C-7.81201584 120.35333669 -7.83311079 116.59980371 -7.85312772 112.846241 C-7.87508606 108.91578198 -7.90242629 104.98536039 -7.92918396 101.05493164 C-7.97897832 93.62140707 -8.02396599 86.18786157 -8.06720632 78.7542963 C-8.11669244 70.28749988 -8.17156817 61.82074104 -8.22688591 53.35398102 C-8.34050229 35.94582031 -8.44738514 18.53762464 -8.54980469 1.12939453 C-5.60768027 0.35278945 -3.04898665 0.00309339 0 0 Z " fill="#ffffff" transform="translate(323.5498046875,81.87060546875)"/>
<path d="M0 0 C8.35369378 -0.23223282 16.70602883 -0.4096369 25.06215763 -0.51812172 C28.94291134 -0.57020536 32.82144946 -0.64076793 36.70092773 -0.75439453 C40.44884721 -0.86347433 44.19464412 -0.92292256 47.94402885 -0.94877243 C49.37041081 -0.96717824 50.79668291 -1.00312786 52.22215462 -1.05730057 C63.38664373 -1.46451155 63.38664373 -1.46451155 67.40977478 2.18745422 C69.20329163 4.7221975 70.63765505 7.21446754 72 10 C72.63808594 10.98871094 73.27617188 11.97742188 73.93359375 12.99609375 C74.67802734 14.20458984 74.67802734 14.20458984 75.4375 15.4375 C77.88013498 19.32701111 80.45852236 23.05577286 83.1875 26.75 C85.32246391 29.6430605 87.37898399 32.4807222 89.125 35.625 C91.0975213 39.17553834 93.31287374 42.45940946 95.6328125 45.7890625 C97.07303923 48.11811486 98.05489512 50.43471532 99 53 C102.89070011 49.50018798 105.47534742 45.44542163 108.25 41.0625 C108.73742676 40.30179199 109.22485352 39.54108398 109.72705078 38.75732422 C112.50074169 34.41379179 115.20758838 30.03474218 117.875 25.625 C118.49576416 24.67222168 119.11652832 23.71944336 119.75610352 22.73779297 C121.49076858 19.99429882 122.80936999 17.2098463 124.1105957 14.23852539 C126.86570534 8.58556727 129.76533761 3.65616884 135 0 C144.6011831 -2.95115399 155.18465324 -1.88465077 165.0970459 -1.30462646 C168.80937156 -1.1083635 172.52419068 -1.0231022 176.24023438 -0.92773438 C183.50026275 -0.72540432 190.74800981 -0.4023841 198 0 C196.61618111 4.39261386 195.12923797 7.52961435 192.3125 11.1875 C189.5724615 14.83924196 186.98174441 18.50307846 184.5625 22.375 C181.66854068 27.00139755 178.60603231 31.48269455 175.47680664 35.95263672 C172.72109449 39.90964623 170.08677671 43.9308814 167.5 48 C163.95113006 53.57723333 160.24447789 59.02224004 156.45703125 64.44140625 C153.53364982 68.64822343 150.70749648 72.91920416 147.875 77.1875 C144.67147233 82.01309238 141.45973175 86.82600047 138.125 91.5625 C137.5990625 92.31144531 137.073125 93.06039062 136.53125 93.83203125 C135.45524205 95.35546087 134.37117241 96.87321286 133.28125 98.38671875 C132.7346875 99.16660156 132.188125 99.94648438 131.625 100.75 C130.90183594 101.76320313 130.90183594 101.76320313 130.1640625 102.796875 C127.32853367 108.16344635 127.83887909 114.55645241 127.81054688 120.4777832 C127.80225357 121.41339584 127.79396027 122.34900848 127.78541565 123.31297302 C127.76807168 125.33617311 127.75288967 127.35939264 127.73963928 129.38262367 C127.71855668 132.58010137 127.69154246 135.77748037 127.66296387 138.97489929 C127.59324955 146.90958729 127.5335916 154.84434483 127.47393799 162.77911377 C127.42309918 169.49588048 127.36833106 176.21259178 127.30812073 182.92928123 C127.28146786 186.08746595 127.26070763 189.24565568 127.2401123 192.40388489 C127.22351967 194.32565563 127.20664875 196.24742401 127.18945312 198.16918945 C127.18526871 199.05383881 127.18108429 199.93848816 127.17677307 200.84994507 C127.11385445 206.88614555 127.11385445 206.88614555 126 208 C124.28134591 208.0935919 122.55884256 208.11744611 120.83764648 208.11352539 C119.73658066 208.11344986 118.63551483 208.11337433 117.50108337 208.11329651 C116.3031868 208.10813522 115.10529022 208.10297394 113.87109375 208.09765625 C112.65172623 208.0962413 111.4323587 208.09482635 110.17604065 208.09336853 C106.2631693 208.08774967 102.35035419 208.07519396 98.4375 208.0625 C95.79231853 208.05748743 93.14713617 208.0529241 90.50195312 208.04882812 C84.00128274 208.03777411 77.50064539 208.02101764 71 208 C70.22426597 196.33952551 69.88027906 184.74689755 69.92303085 173.06181526 C69.93469512 168.52489819 69.9138243 163.98806356 69.8984375 159.45117188 C69.88015597 153.73475465 69.87167172 148.01888483 69.90039062 142.30249023 C69.92301965 137.62586849 69.91141125 132.95040203 69.87738419 128.27386284 C69.870666 126.5106177 69.87615272 124.74727746 69.89474106 122.98411751 C70.00324181 112.00520901 69.24381774 104.80909041 62 96 C60.82309754 94.34054543 59.65510508 92.67470031 58.5 91 C57.91766602 90.17806152 57.33533203 89.35612305 56.73535156 88.50927734 C54.99715269 85.99588286 53.35765997 83.44044703 51.734375 80.8515625 C48.19860339 75.26945373 44.49896848 69.81533609 40.75 64.375 C35.59888225 56.8655084 30.55877318 49.30053301 25.64379883 41.63476562 C22.8027936 37.21245121 19.86500653 32.88038869 16.81640625 28.59765625 C14.0168443 24.59398163 11.32945448 20.5161493 8.63842773 16.43896484 C8.23954346 15.83648926 7.84065918 15.23401367 7.4296875 14.61328125 C7.03620117 14.01725098 6.64271484 13.4212207 6.23730469 12.80712891 C4.94656064 10.92194985 3.57395579 9.11450483 2.1953125 7.29296875 C0 4 0 4 0 0 Z " fill="#ffffff" transform="translate(665,309)"/>
<path d="M0 0 C0.99 0 1.98 0 3 0 C3 0.66 3 1.32 3 2 C21.15 2 39.3 2 58 2 C58 2.33 58 2.66 58 3 C39.19 3 20.38 3 1 3 C0.67 2.01 0.34 1.02 0 0 Z " fill="#fff" transform="translate(520,514)"/>
<path d="M0 0 C0.99 0 1.98 0 3 0 C3 0.66 3 1.32 3 2 C9.27 2 15.54 2 22 2 C22 2.33 22 2.66 22 3 C15.07 3 8.14 3 1 3 C0.67 2.01 0.34 1.02 0 0 Z " fill="#fff" transform="translate(520,514)"/>
<path d="M0 0 C4.875 4.625 4.875 4.625 6 8 C4.35 7.67 2.7 7.34 1 7 C0.67 4.69 0.34 2.38 0 0 Z " fill="#fff" transform="translate(740,326)"/>
<path d="M0 0 C1.32 0.99 2.64 1.98 4 3 C3.67 3.99 3.34 4.98 3 6 C0.4375 7.1875 0.4375 7.1875 -2 8 C-1.34 5.36 -0.68 2.72 0 0 Z " fill="#fff" transform="translate(563,402)"/>
<path d="M0 0 C3.875 4.75 3.875 4.75 5 7 C4.01 7.33 3.02 7.66 2 8 C1.34 7.67 0.68 7.34 0 7 C0 4.69 0 2.38 0 0 Z " fill="#fff" transform="translate(747,335)"/>
<path d="M0 0 C0.66 1.32 1.32 2.64 2 4 C0.02 6.97 0.02 6.97 -2 10 C-3 8 -3 8 -2.44140625 6.0546875 C-2.15136719 5.33539063 -1.86132812 4.61609375 -1.5625 3.875 C-1.27503906 3.15054688 -0.98757813 2.42609375 -0.69140625 1.6796875 C-0.46324219 1.12539062 -0.23507812 0.57109375 0 0 Z " fill="#fff" transform="translate(680,127)"/>
</svg>
