<?xml version="1.0" encoding="UTF-8" standalone="no"?><!DOCTYPE svg PUBLIC "-//W3C//DTD SVG 1.1//EN" "http://www.w3.org/Graphics/SVG/1.1/DTD/svg11.dtd"><svg width="100%" height="100%" viewBox="0 0 472521 265784" version="1.1" xmlns="http://www.w3.org/2000/svg" xmlns:xlink="http://www.w3.org/1999/xlink" xml:space="preserve" xmlns:serif="http://www.serif.com/" style="fill-rule:evenodd;clip-rule:evenodd;stroke-linejoin:round;stroke-miterlimit:2;"><g id="IMG_9992.JPG"><path d="M216678.433,129635.204c0,3723.504 0.996,3724.154 -6.988,3761.208c-53.375,247.779 -117.887,216.675 -1784.133,1936.25c-252.638,260.725 -1781.683,1860.071 -1849.138,1898.508c-21.217,12.092 -144.638,13.767 -166.529,2.146c-65.763,-34.904 -743.112,-728.096 -827.121,-812.454c-111.071,-111.533 -163.796,-88.758 -163.288,-246.396c0.421,-131.254 48.758,-116.988 1826.837,-1908.817c552,-556.267 559.95,-545.388 1107.867,-1108.05c261.825,-268.871 215.938,-330.671 215.938,-1084.142c0,-3586.767 -3.442,-3590.104 24.95,-3660.058c41.383,-101.963 207.058,-108.633 227.221,-109.446c269.008,-10.833 1019.75,-2.113 1108.417,-1.083c267.333,3.104 278.7,68.608 285.958,335.175c0.004,0.179 0.004,917.383 0.004,997.158l0.004,0Z" style="fill:#d2ee01;"/><path d="M288978.383,131863.971c168.733,131.792 168.121,130.375 182.233,142.338c122.062,103.45 111.7,113.287 161.908,265.575c-435.058,-21.733 -435.121,-19.462 -9092.212,-19.462c-603.958,0 -804.767,-60.904 -814.408,262.129c-25.129,842.154 115.283,1056.154 -224.083,1402.85c-87.504,89.392 -1015.875,1037.8 -1100.529,1110.762c-206.317,177.821 -407.529,-57.054 -401.571,-183.337c3.825,-81.083 10.792,-87.321 677.529,-755.35c556.312,-557.396 607.275,-558.767 609.321,-907.904c4.425,-755.225 -9.75,-762.592 -21.946,-799.3c-52.758,-158.775 -168.021,-129.846 -1162.567,-129.846c-1453.221,0 -1540.292,32.233 -1582.021,-172.887c-26.925,-132.346 -6.433,-2453.242 -4.55,-2666.558c1.671,-189.442 -23.6,-230.45 153.812,-297.321c81.133,-30.583 2541.338,-9.608 2762.317,-7.721c205.675,1.754 248.929,-2.558 291.85,198.717c3.629,17.021 1.2,2150.017 2.004,2213.5c2.35,185.017 -18.4,225.979 158.683,283.371c55.629,18.029 8673.371,-12.279 9187.554,16.679c164.929,9.288 177.267,35.812 216.671,43.771l0.004,-0.004Z" style="fill:#fff;"/><path d="M288978.383,131863.971c-163.921,-224.1 -173.662,-214.462 -375.862,-405c-114.921,-108.296 -106.717,-112.95 -221.371,-221.658c-1009.396,-957.029 -1403.979,-1467.213 -1627.804,-1554.208c-65.592,-25.496 -67.379,-21.775 -2089.846,-21.775c-2309.783,0 -2329.013,10.142 -2397.108,-64.929c-69.483,-76.6 -75.783,-88.942 -55.646,-1291.554c2.421,-144.579 16.721,-254.358 238.242,-279.896c73.042,-8.421 1834.042,29.021 1993.504,32.408c2923,62.146 2930.688,23.417 3119.283,103.088c52.912,22.354 76.592,32.354 527.825,486.762c1563.042,1574.046 2982.35,2980.671 2990.842,2992.125c158.55,213.929 23.546,276.842 -504.696,804.708c-139.242,139.142 -135.504,140.579 -274.396,279.638c-326.525,326.917 -372.704,13.317 -829,-372.188c-95.992,-81.096 -107.683,-57.221 -149.825,-79.613c-50.208,-152.292 -39.846,-162.129 -161.908,-265.575c-14.113,-11.958 -13.5,-10.542 -182.233,-142.338l-0,0.004Z" style="fill:#d2ee01;"/><path d="M248244.229,132738.438c-0.625,185.933 27.275,551.929 -74.721,625.087c-20.008,14.35 -443.192,169.708 -479.438,-184.683c-1.146,-11.204 -1.375,-4623.1 0.038,-4648.929c14.858,-271.508 153.271,-223.475 1175.413,-223.475c1230.358,0 1441.579,-37.096 1995.462,330.604c694.042,460.746 637.058,1623.008 205.725,2206.279c-313.679,424.171 -731.3,494.871 -733.154,496.25c-110.525,82.342 7.717,241.938 20.071,258.612c540.867,730.029 525.442,739.029 1069.329,1466.829c13.604,18.204 158.537,212.142 158.642,235.65c0.496,109.954 -147.837,117.229 -163.983,118.021c-386.85,18.971 -507.779,-110.454 -538.196,-143.004c-88.996,-95.246 -523.683,-733.083 -700.058,-969.167c-550.096,-736.329 -517.363,-871.004 -870.862,-883.033c-16.65,-0.567 -841.425,-3.433 -883.658,2.846c-217.867,32.392 -180.608,166.017 -180.608,1312.117l-0,-0.004Z" style="fill:#fff;"/><path d="M228155.371,132170.788c31.508,-0.417 63.017,-0.837 94.525,-1.254c31.446,-0.942 27.358,74.771 58.804,73.825c4.446,-0.133 310.096,-981.083 386.067,-1167.263c66.279,-162.425 875.462,-2572.4 917.546,-2641.167c112.712,-184.179 525.808,-164.825 554.129,-29.633c34.808,166.175 -58.396,151.533 -653.229,2019.25c-65.35,205.196 -67.517,203.617 -654.167,1889.592c-68.242,196.121 -46.479,202.483 -175.713,530.504c-115.75,293.804 -109.396,577.854 -432.021,556.708c-294.521,-19.304 -287.967,-303.029 -691.617,-1316.688c-162.733,-408.658 -411.242,-1122.704 -445.417,-1220.896c-24.879,-71.479 -39.788,-65.404 -333.408,-885.358c-52.05,-145.35 -73.625,-302.638 -159.771,-395.8c-100.987,-109.217 -142.454,-59.875 -203.137,76.3c-18.025,40.45 12.233,50.346 -174.458,525.346c-43.504,110.683 -339.762,941.5 -712.596,1908.754c-189.75,492.279 -172.017,496.071 -362.075,986.833c-27.058,69.871 -100.846,398.462 -459.992,308.417c-172.154,-43.162 -120.833,-109.317 -479.621,-1080.783c-151.1,-409.121 -907.833,-2655.933 -985.737,-2887.238c-311.967,-926.258 -336.704,-923.008 -327.567,-1007.246c17.083,-157.504 446.7,-144.337 560.417,9.892c44.158,59.887 35.317,65.129 1081.388,3108.938c22.571,65.679 49.413,129.825 72.796,195.221c76.658,214.375 110.762,423.679 115.171,434.208c9.575,22.867 33.692,42.592 58.204,46.292c142.15,21.467 140.904,-19.383 189.633,-153.062c24.846,-68.158 18.971,-69.496 296.737,-856.867c48.712,-138.083 541.692,-1453.275 589.029,-1579.562c421.108,-1123.45 418.625,-1124.708 475.846,-1211.725c87.146,-132.525 338.171,-110.075 414.55,33.729c70.763,133.229 66.104,133.004 670.533,1762.458c670.808,1808.408 656.546,1811.321 715.146,1968.271l0.004,0.004Z" style="fill:#fff;"/><path d="M220714.779,131888.879c-1201.067,0 -1210.562,-12.304 -1339.188,63.421c-84.312,49.637 -517.446,1130.621 -654.254,1341.421c-24.75,38.133 -100.442,154.763 -556.6,114.629c-240.629,-21.171 -87.667,-297.587 -74.912,-320.633c87.65,-158.392 1065.596,-2195.325 1259.071,-2583.171c713.521,-1430.346 697.021,-1435.942 760.508,-1559.362c181.792,-353.413 227.438,-606.408 494.987,-634.671c270.504,-28.579 354.263,52.887 499.133,353.492c32.758,67.975 268.438,556.996 400.163,854.125c163.538,368.892 396.458,825.567 530.025,1120.046c77.625,171.137 993.738,2093.112 998.638,2104.608c105.942,248.796 303.167,523.1 199.758,625.508c-23.462,23.233 -62.763,62.154 -411.417,33.292c-246.846,-20.433 -259.987,-167.842 -400.704,-460.95c-71.708,-149.367 -344.717,-774.712 -386.679,-861.038c-110.363,-227.029 -174.421,-190.721 -1318.533,-190.721l0.004,0.004Z" style="fill:#fff;"/><path d="M270860.892,130632.671c24.05,-722.654 -5.675,-1137.925 11.067,-1229.221c50.483,-275.258 330.571,-168.725 359.95,-157.55c129.237,49.158 106.05,193.163 106.05,1275.938c0,1658.396 17.188,1692.079 -92.471,1759.738c-53.575,33.058 -400.738,33.242 -435.696,33.262c-9213.096,4.958 -9217.692,-9.604 -9292.396,20.863c-152.263,62.1 -102.987,393.271 -109.208,1067.812c-3.388,367.154 -87.512,365.558 -532.458,815.712c-593.254,600.2 -871.85,884.638 -942.708,913.908c-114.342,47.229 -334.033,-157.479 -290.65,-281.738c80.229,-229.792 1242.992,-1163.025 1302.533,-1448.192c31.046,-148.692 2.333,-3884.842 16.387,-3987.6c35.892,-262.412 402.808,-235.788 443.475,-4.542c7.896,44.908 1.087,2138.146 4.738,2217.525c0.837,18.196 7.121,154.875 99.992,204.529c60.613,32.413 65.546,28.663 4977.942,28.663c1485.983,0 1529.396,20.133 1581.712,-104.679c65.338,-155.883 10.604,-2228.529 33.6,-2353.229c45.096,-244.542 350.1,-160.354 357.517,-157.433c150.217,59.167 96.017,322.688 104.079,2273.154c1.479,357.746 115.917,342.175 472.175,342.188c1675.004,0.05 1683.796,7.083 1750.367,-40.537c94.829,-67.838 74.013,-93.921 74.013,-1188.579l-0.008,0.008Z" style="fill:#fff;"/><path d="M241705.921,131408.479c0,1867.371 12.567,1892.887 -74.879,1955.308c-41.6,29.696 -308.158,106.621 -505.708,-88.492c-5.467,-5.4 -2642.975,-3222.192 -2878.567,-3549.079c-10.938,-15.175 -133.383,-185.075 -139.863,-187.371c-111.037,-39.308 -140.746,55.433 -144.567,67.617c-32.521,103.717 7.342,106.471 7.342,1358.696c0,2286.467 6.167,2296.65 -40.817,2352.867c-128.458,153.704 -548.283,104.371 -599.017,-20.938c-26.108,-64.483 -24.587,-67.158 -24.329,-4548.538c0.021,-346.617 5.846,-449.333 366.183,-441.571c361.992,7.796 344.662,114.675 692.038,530.442c253.321,303.196 657.033,831.129 986.175,1228.354c454.313,548.283 434.763,560.888 886.888,1108.121c36.171,43.779 33.812,44.712 441.575,555.787c165.529,207.467 224.742,362.663 317.775,366.879c111.058,5.029 111.146,-120.038 111.158,-133.963c0.1,-141.871 -23.558,-141.158 -23.558,-1773.25c0,-1744.375 -12.108,-1765.675 68.433,-1832.942c4.821,-4.025 511.292,-207.908 552.096,165.079c1.887,17.25 1.637,16.212 1.637,2886.988l0.004,0.004Z" style="fill:#fff;"/><path d="M244653.992,132910.408c1807.942,0 1860.808,-1.379 1896.529,7.575c201.812,50.587 161.167,382.792 69.254,447.058c-67.663,47.308 -76.258,40.321 -1854.95,40.321c-1523.642,0 -1579.413,23.846 -1633.546,-123.642c-21.038,-57.317 -18.538,-59.517 -18.538,-4200.663c0,-592.754 -72.787,-771.029 322.142,-774.596c239.375,-2.163 2302.587,-20.812 2992.308,0.404c413.433,12.717 215.292,432.804 213.442,434.762c-96.208,101.7 -123.908,53.242 -2652.383,69.038c-254.625,1.592 -313.529,17.442 -317.621,270.746c-21.475,1329.292 8.429,1358.954 113.45,1398.608c110.071,41.558 2430.204,6.433 2535.058,21.329c284.704,40.446 216.221,420.479 111.396,469.387c-164.35,76.679 -2495.117,-2.408 -2644.733,46.646c-122.7,40.229 -134.738,84.592 -115.208,1609.967c4.413,344.663 159.533,283.063 983.404,283.063l-0.004,-0.004Z" style="fill:#fff;"/><path d="M212010.808,126421.146c15.688,-708.488 -6.225,-776.433 160.212,-814.95c25.487,-5.9 314.967,-5.954 342.363,-5.958c3926.767,-0.763 3930.142,0.021 3997.837,32.404c81.117,38.804 112.1,59.312 89.15,1120.492c-6.417,296.758 -153.504,269.554 -429.571,269.558c-3572.254,0.071 -3570.562,9.067 -3880.9,-0.129c-341.625,-10.121 -278.954,-212.746 -279.092,-601.413l0,-0.004Z" style="fill:#d2ef01;"/><path d="M289225.633,136377.858c-83.833,-84.271 -80.1,-85.533 -163.987,-169.733c-201.383,-202.129 -171.112,-263.712 37.775,-474.592c1138.696,-1149.55 1377.454,-1375.712 1500.35,-1492.129c151.65,-143.654 504.596,-537.442 1108.496,-1108.188c281.529,-266.075 333.3,-451.671 607.5,-178.371c605.1,603.104 754.725,680.037 655.767,889.283c-28.842,60.979 -2316.092,2306.35 -2816.925,2834.242c-256.917,270.796 -341.442,234.675 -373.362,221.033c-56.058,-23.958 -57.467,-24.558 -555.608,-521.546l-0.004,-0Z" style="fill:#d2ee01;"/><path d="M278346.208,129573.767c11.258,0.037 491.025,-19.133 564.208,49.158c77.821,72.617 66.471,90.471 66.3,1674.725c-0.004,26.233 -0.033,318.604 -2.483,327.925c-50.95,193.85 -94.758,181.892 -296.004,182.917c-150.013,0.763 -1831.029,9.333 -1875.179,-4.688c-178.4,-56.654 -157.433,-98.242 -159.754,-283.617c-1.783,-142.558 -20.825,-1663.417 5.396,-1782.108c49.425,-223.712 152.85,-130.254 1697.517,-164.313Z" style="fill:#fefefe;"/><path d="M250812.067,129854.65c-25.629,236.863 3.938,874.508 -947.925,1009.25c-105.471,14.929 -193.383,27.375 -1331.446,13.938c-156.929,-1.854 -179.492,25.546 -272.554,-100.454c-44.875,-60.758 -38.192,-68.942 -38.033,-1363.838c0.017,-148.937 -22.9,-388.437 60.462,-471.983c75.379,-75.542 142.204,-61.121 1026.271,-61.083c433.175,0.021 1067.9,-75 1399.513,446.579c80.45,126.538 101.229,484.65 103.721,527.596l-0.008,-0.004Z" style="fill:#fefefe;"/><path d="M232684.388,132910.408c1646.383,0 1761.354,-0.346 1780.013,1.821c313.942,36.421 204.112,365.212 149.412,422.529c-80.404,84.25 -207.608,70.329 -266.963,70.625c-230.529,1.142 -2339.592,11.571 -2881.65,-0.288c-334.596,-7.321 -269.054,-246.921 -269.062,-555.833c-0.075,-4371.821 -3.213,-4375.438 26.679,-4444.9c44.138,-102.558 272.575,-107.55 352.279,-93.275c212.475,38.062 175.075,201.367 175.075,1213.283c0,3254.029 -6.954,3268.783 48.629,3323.9c80.087,79.408 300.171,62.138 885.583,62.138l0.004,0Z" style="fill:#fff;"/><path d="M274402.85,128859.396c0,-839.058 -11.8,-1167.687 49.888,-1231.425c25.208,-26.046 345.025,-188.504 418.725,127.338c2.179,9.329 1.892,8.879 1.892,2988.192c0,1315.746 30.213,1351.929 -175.213,1560.838c-101.037,102.754 -1026.404,1043.829 -1270.029,1277.438c-242.733,232.754 -453.454,-20.321 -426.867,-184.438c21.917,-135.292 1284.221,-1270.675 1357.258,-1433.608c50.658,-113.013 44.35,-118.679 44.35,-3104.338l-0.004,0.004Z" style="fill:#fff;"/><path d="M236036.646,130965.163c0,2302.163 10.8,2323.892 -69.1,2390.175c-50.704,42.063 -471.133,155.233 -486.917,-175.629c-1.675,-35.083 -2.025,-4623.154 0.083,-4650.671c26.008,-338.904 481.512,-235.304 530.533,-113.896c29.258,72.463 25.396,75.758 25.396,2550.021l0.004,0Z" style="fill:#fff;"/><path d="M220122.771,130283.054c264.721,-573.65 362.458,-924.996 452.975,-1022.179c74.267,-79.733 103.992,-78.712 168.062,8.8c64.996,88.771 60.683,147.375 102.708,245.279c126.896,295.621 136.9,289.179 265.183,584.304c398.5,916.779 412.121,909.629 441.454,991.337c83.654,233.017 -36.888,233.063 -283.871,231.283c-1228.725,-8.846 -1226.954,6.625 -1333.517,1.579c-136.75,-6.475 -169.371,-0.596 -189.233,-136.05c-3.408,-23.229 343.604,-828.05 376.233,-904.354l0.004,-0Z" style="fill:#fefefe;"/><path d="M272987.275,131075.992c0,-3313.962 -0.212,-3312.575 1.45,-3329.129c31.808,-317.029 428.237,-300.471 446.842,6.708c0.975,16.092 2.738,4036.137 -1.25,4094.15c-1.983,28.821 -18.617,270.746 -319.467,168.329c-160.225,-54.542 -127.571,-247.804 -127.571,-940.058l-0.004,-0Z" style="fill:#fff;"/><path d="M270205.471,133403.213c-4.225,35.879 3.787,72.5 -0.442,108.383c-41.029,348.375 -432.446,309.821 -459.958,0.108c-3.204,-36.075 -31.65,-356.275 59.921,-448.742c18.129,-18.308 182.8,-60.429 223.729,-52.288c238.05,47.362 135.425,146.5 176.75,392.538Z" style="fill:#fff;"/><path d="M268104.054,127973.125c6.75,-215.475 2.921,-214.575 7.287,-232.679c43.5,-180.35 243.296,-151.925 267.529,-148.475c130.046,18.504 198.021,100.521 178.458,489.354c-16.658,331.158 -337.933,225.708 -381.683,191.708c-105.467,-81.962 -54.367,-107.133 -71.592,-299.904l0,-0.004Z" style="fill:#fff;"/><path d="M270623.717,133403.217c0.504,-36.671 -0.462,-73.35 0.042,-110.021c0.45,-32.633 5.221,-380.225 314.379,-260.013c37.004,14.388 151.554,58.929 114.212,482.95c-24.867,282.362 -282.017,286.896 -393.975,135.367c-47.533,-64.337 -25.567,-71.771 -34.663,-248.279l0.004,-0.004Z" style="fill:#fff;"/></g></svg>