<?xml version="1.0" encoding="UTF-8" standalone="no"?><!DOCTYPE svg PUBLIC "-//W3C//DTD SVG 1.1//EN" "http://www.w3.org/Graphics/SVG/1.1/DTD/svg11.dtd"><svg width="100%" height="100%" viewBox="0 0 27217 15309" version="1.1" xmlns="http://www.w3.org/2000/svg" xmlns:xlink="http://www.w3.org/1999/xlink" xml:space="preserve" xmlns:serif="http://www.serif.com/" style="fill-rule:evenodd;clip-rule:evenodd;stroke-linejoin:round;stroke-miterlimit:2;"><g id="Background"><path d="M20730.146,7083.244c0.828,-24.216 -15.22,-248.559 42.406,-254.412c14.708,-1.494 488.097,5.418 530.538,6.038c698.232,10.195 707.058,11.373 764.842,68.142c64.289,63.159 751.081,737.884 796.312,796.857c49.279,64.25 -229.731,286.85 -232.32,287.375c-29.974,6.08 -140.087,-104.798 -150.798,-115.583c-49.761,-50.106 -600.679,-604.851 -624.321,-624.022c-68.847,-55.829 -841.052,-14.258 -1086.148,-28.078c-32.813,-1.85 -39.861,-124.959 -40.511,-136.317Z" style="fill:#d2ee01;"/><path d="M4653.089,7083.244c1.317,-44.674 -1.03,-89.407 0.286,-134.081c2.862,-97.111 371.661,-64.437 385.233,-26.171c17.375,48.991 5.733,1052.195 4.672,1143.685c-1.358,117.025 -90.961,174.079 -173.755,258.145c-685.875,696.417 -678.157,705.723 -711.623,716.28c-31.267,9.864 -262.445,-227.129 -262.561,-256.827c-0.17,-43.442 642.62,-652.269 732.487,-752.836c30.674,-34.326 25.261,-38.501 25.261,-948.195Z" style="fill:#d2ef01;"/><path d="M4159.578,6244.493c761.38,7.298 760.615,-0.879 826.639,2.884c62.183,3.544 67.852,326.898 -0.979,339.783c-10.359,1.939 -1004.817,0.748 -1013.014,0.432c-72.311,-2.785 -49.305,-214.557 -48.955,-275.071c0.606,-104.841 236.027,-68.028 236.308,-68.028Z" style="fill:#d2ee01;"/><path d="M22680.257,8380.911c285.162,-285.224 389.341,-406.357 431.348,-401.017c22.921,2.914 200.247,187.706 205.242,196.495c20.205,35.555 1.125,42.859 -689.482,736.326c-94.692,95.084 -117.185,11.569 -247.375,-115.929c-82.603,-80.894 3.257,-119.786 300.267,-415.876Z" style="fill:#d2ee01;"/></g></svg>