<?xml version="1.0" encoding="UTF-8"?>
<svg version="1.1" xmlns="http://www.w3.org/2000/svg" width="520" height="320">
<path d="M0 0 C9.24 0 18.48 0 28 0 C29.76021491 4.69390643 31.44585722 9.23034294 32.91357422 13.99438477 C33.42958694 15.66266075 33.42958694 15.66266075 33.95602417 17.36463928 C34.31858307 18.54497238 34.68114197 19.72530548 35.0546875 20.94140625 C35.64088493 22.8378988 36.22708424 24.73439078 36.81338692 26.63085079 C37.62992164 29.27398508 38.44433058 31.91777221 39.25866699 34.56158447 C46.37730446 57.86182868 46.37730446 57.86182868 54 81 C56.31414002 73.45883585 58.62627556 65.9170582 60.9375 58.375 C61.27847717 57.26252899 61.61945435 56.15005798 61.97076416 55.00387573 C66.52584389 40.13833874 71.05529015 25.26605915 75.47241211 10.35888672 C75.79862549 9.26205566 76.12483887 8.16522461 76.4609375 7.03515625 C76.73728027 6.1006665 77.01362305 5.16617676 77.29833984 4.20336914 C78 2 78 2 79 0 C87.58 0 96.16 0 105 0 C108.37430197 7.87337126 108.37430197 7.87337126 109.29931641 11.0222168 C109.61624451 12.08854088 109.61624451 12.08854088 109.9395752 13.17640686 C110.15803101 13.92643478 110.37648682 14.67646271 110.6015625 15.44921875 C110.83951538 16.25213852 111.07746826 17.05505829 111.32263184 17.88230896 C111.83069877 19.59693179 112.33706486 21.31205939 112.84185791 23.02764893 C114.16538221 27.52284537 115.50351113 32.0136689 116.84375 36.50390625 C117.11075714 37.39857605 117.37776428 38.29324585 117.65286255 39.21502686 C121.84810557 53.22348774 126.36828182 67.13022472 131 81 C133.27482797 73.6433068 135.54936806 66.28652464 137.82373047 58.9296875 C138.59352474 56.43975932 139.36337913 53.94984973 140.13330078 51.45996094 C145.43606637 34.31088634 150.72446664 17.15747327 156 0 C165.57 0 175.14 0 185 0 C183.25187616 6.4097874 181.52471229 12.72495475 179.453125 19.01953125 C179.08682228 20.14359123 179.08682228 20.14359123 178.71311951 21.2903595 C177.89483134 23.79864809 177.07254977 26.30560596 176.25 28.8125 C175.6584665 30.62088405 175.06708187 32.4293168 174.47583008 34.23779297 C173.12260735 38.37446532 171.76717266 42.51040655 170.41064453 46.64599609 C168.64044069 52.04379689 166.87376042 57.44273944 165.10888672 62.84228516 C162.76000768 70.02846072 160.40867722 77.21382906 158.05467415 84.39832783 C156.73774796 88.41768632 155.42169674 92.43732608 154.10778809 96.45767212 C152.85597609 100.28757564 151.60117819 104.11648828 150.34413338 107.94467735 C149.87465819 109.37609256 149.40623771 110.80785414 148.9389019 112.23996925 C148.29629425 114.20859931 147.64997639 116.17597213 147.00268555 118.14306641 C146.6385405 119.25469147 146.27439545 120.36631653 145.8992157 121.5116272 C145 124 145 124 144 125 C142.00035018 125.08758003 139.9976389 125.10696576 137.99609375 125.09765625 C136.17368164 125.09282227 136.17368164 125.09282227 134.31445312 125.08789062 C133.03505859 125.07951172 131.75566406 125.07113281 130.4375 125.0625 C129.15423828 125.05798828 127.87097656 125.05347656 126.54882812 125.04882812 C123.36583978 125.03699545 120.18294238 125.02051068 117 125 C116.70154678 124.05230743 116.40309357 123.10461487 116.09559631 122.12820435 C113.2868716 113.21029001 110.47639134 104.29293062 107.66417789 95.3761158 C106.21834555 90.79155052 104.77313899 86.20678991 103.3293457 81.62158203 C101.93677356 77.199122 100.5425797 72.77717629 99.14724541 68.35558701 C98.61438273 66.66602789 98.08211116 64.97628224 97.55043221 63.28635025 C96.80738809 60.92494583 96.06227166 58.564205 95.31665039 56.20361328 C95.09582794 55.50014771 94.87500549 54.79668213 94.64749146 54.07189941 C93.51040478 50.46279622 93.51040478 50.46279622 92 47 C90.05895865 53.08220864 88.12195748 59.16569419 86.1875 65.25 C85.89709839 66.16305908 85.60669678 67.07611816 85.30749512 68.0168457 C80.53355401 83.03868932 75.87700458 98.09321271 71.34057617 113.18847656 C71.12134995 113.91379578 70.90212372 114.63911499 70.67625427 115.38641357 C70.08748911 117.33437594 69.50211466 119.28336223 68.91699219 121.23242188 C68 124 68 124 67 125 C65.00035018 125.08758003 62.9976389 125.10696576 60.99609375 125.09765625 C59.17368164 125.09282227 59.17368164 125.09282227 57.31445312 125.08789062 C56.03505859 125.07951172 54.75566406 125.07113281 53.4375 125.0625 C52.15423828 125.05798828 50.87097656 125.05347656 49.54882812 125.04882812 C46.36583978 125.03699545 43.18294238 125.02051068 40 125 C33.07034931 105.18450803 26.43834581 85.29455779 20.12042236 65.27545166 C14.63033719 47.88415084 8.92862526 30.57030368 3.10644531 13.28759766 C2.74131836 12.20269043 2.37619141 11.1177832 2 10 C1.43297363 8.42484619 1.43297363 8.42484619 0.85449219 6.81787109 C0 4 0 4 0 0 Z " fill="#ffffff" transform="translate(242,175)"/>
<path d="M0 0 C2.31066303 0.0570069 4.62070276 0.08442345 6.93188477 0.11206055 C20.44319443 0.37853204 31.66189233 3.26023602 41.68383789 12.86791992 C47.60381088 21.2768403 49.47345313 28.70162377 48.68383789 38.86791992 C46.66671786 47.54450239 41.51649995 53.45553032 34.68383789 58.86791992 C35.32450195 59.28041992 35.96516602 59.69291992 36.62524414 60.11791992 C44.49559293 65.37263864 51.63745921 70.85146046 54.24633789 80.32495117 C56.00551513 90.55016888 55.10840863 100.41588765 49.14086914 109.11791992 C41.1457895 118.77787885 31.46566783 123.95670763 18.9992218 125.66319275 C13.58144532 126.14223472 8.1259608 126.00922664 2.69165039 126.00073242 C1.33641543 126.00140682 -0.01881941 126.00237798 -1.37405396 126.00363159 C-4.19982059 126.00509916 -7.02555544 126.00298238 -9.85131836 125.99829102 C-13.47973053 125.99256135 -17.10806925 125.99589896 -20.73647881 126.00186348 C-23.52790894 126.00546663 -26.31932146 126.00433222 -29.11075211 126.00173569 C-31.1011688 126.00074224 -33.09158618 126.0037842 -35.08200073 126.00686646 C-36.87989548 126.00213821 -36.87989548 126.00213821 -38.71411133 125.99731445 C-39.77443573 125.99651886 -40.83476013 125.99572327 -41.92721558 125.99490356 C-44.31616211 125.86791992 -44.31616211 125.86791992 -45.31616211 124.86791992 C-45.41216347 123.26102792 -45.438041 121.64990223 -45.43641663 120.04014587 C-45.43779129 118.99541611 -45.43916595 117.95068634 -45.44058228 116.8742981 C-45.436987 115.71840179 -45.43339172 114.56250549 -45.4296875 113.37158203 C-45.42983353 112.16199326 -45.42997955 110.95240448 -45.43013 109.7061615 C-45.42955104 106.37985641 -45.42452184 103.05361273 -45.41755605 99.72731853 C-45.41132189 96.25462063 -45.41071866 92.78192199 -45.40953064 89.30921936 C-45.40641751 82.728958 -45.39820436 76.14871316 -45.38818115 69.56845909 C-45.37701945 62.07885881 -45.37150942 54.58925775 -45.36648571 47.09965122 C-45.35602173 31.68906453 -45.33842264 16.27849435 -45.31616211 0.86791992 C-40.86713399 0.69865054 -36.41796027 0.53354685 -31.96875 0.36914062 C-30.09677822 0.29784313 -30.09677822 0.29784313 -28.18698883 0.22510529 C-18.78060645 -0.11954856 -9.40920689 -0.25125403 0 0 Z M-17.31616211 24.86791992 C-17.31616211 32.45791992 -17.31616211 40.04791992 -17.31616211 47.86791992 C-13.29523851 47.96011944 -9.27703187 48.0396353 -5.25561523 48.08764648 C-3.88992843 48.10767311 -2.52432642 48.13490324 -1.15893555 48.16967773 C0.81170891 48.21858424 2.78299772 48.2388334 4.75415039 48.25854492 C5.9376709 48.27949219 7.12119141 48.30043945 8.34057617 48.32202148 C12.90466771 47.7020996 16.19915429 45.75751724 19.05883789 42.11791992 C20.2184509 37.9433131 20.82786527 33.91396888 18.66821289 30.05151367 C16.51912575 27.36515475 14.96977599 25.96323262 11.68383789 24.86791992 C9.47293844 24.78433034 7.25957711 24.76060228 5.04711914 24.77026367 C3.74838867 24.77348633 2.4496582 24.77670898 1.11157227 24.7800293 C-0.26017319 24.78838461 -1.63191798 24.79684955 -3.00366211 24.80541992 C-4.38712406 24.81043657 -5.77058774 24.81499919 -7.15405273 24.8190918 C-10.54144107 24.83089454 -13.92880701 24.84883026 -17.31616211 24.86791992 Z M-17.31616211 72.86791992 C-17.31616211 82.10791992 -17.31616211 91.34791992 -17.31616211 100.86791992 C-12.72574638 100.93700645 -8.13715334 100.99667117 -3.54663086 101.03271484 C-1.98699817 101.04774862 -0.42740739 101.06818127 1.13208008 101.09423828 C3.38120905 101.13086203 5.62977636 101.14770013 7.87915039 101.16088867 C8.5700174 101.17637253 9.2608844 101.19185638 9.97268677 101.20780945 C14.62444109 101.20940594 17.73327456 100.30575607 21.68383789 97.86791992 C24.94715095 94.34697689 25.97198521 91.56398776 26.18383789 86.86791992 C25.97935273 82.1788637 24.88779975 79.41825604 21.68383789 75.86791992 C17.50129534 72.67269117 13.84583194 72.46521701 8.75805664 72.57495117 C8.01046585 72.57919601 7.26287506 72.58344086 6.49263 72.58781433 C4.11849057 72.60452936 1.74521822 72.64216645 -0.62866211 72.68041992 C-2.24388417 72.69547612 -3.85911962 72.70916289 -5.47436523 72.72143555 C-9.42222893 72.75185052 -13.36823169 72.81058043 -17.31616211 72.86791992 Z " fill="#ffffff" transform="translate(324.316162109375,28.132080078125)"/>
<path d="M0 0 C8.25 0 16.5 0 25 0 C33.80772912 9.08733956 33.80772912 9.08733956 36.0859375 13.1328125 C38.5972191 17.39322901 41.36725762 21.1837089 44.5 25 C45.38819268 26.12280962 46.27356312 27.24785691 47.15625 28.375 C47.836875 29.24125 47.836875 29.24125 48.53125 30.125 C51.3645176 33.74193737 54.1812966 37.37170954 57 41 C65.5938797 52.05962436 74.25013356 63.06266695 83 74 C83.33 49.58 83.66 25.16 84 0 C92.91 0 101.82 0 111 0 C111 41.25 111 82.5 111 125 C86 125 86 125 78.5625 117.8125 C76.79956055 115.41577148 76.79956055 115.41577148 75.63671875 113.37109375 C73.30349734 109.45458455 70.71725894 105.93129662 67.875 102.375 C67.06252602 101.31577466 66.25262214 100.25457295 65.4453125 99.19140625 C62.91141209 95.8736887 60.33417037 92.59113407 57.75 89.3125 C53.4616783 83.86770782 49.19318047 78.40784676 44.9375 72.9375 C44.39641602 72.24245361 43.85533203 71.54740723 43.29785156 70.83129883 C38.17323186 64.24000385 33.09074508 57.6179686 28 51 C27.67 75.42 27.34 99.84 27 125 C18.09 125 9.18 125 0 125 C0 83.75 0 42.5 0 0 Z " fill="#ffffff" transform="translate(13,175)"/>
<path d="M0 0 C31.02 0 62.04 0 94 0 C94 8.58 94 17.16 94 26 C72.22 26 50.44 26 28 26 C28 33.59 28 41.18 28 49 C44.83 49 61.66 49 79 49 C79 57.25 79 65.5 79 74 C62.17 74 45.34 74 28 74 C28 82.25 28 90.5 28 99 C50.11 99 72.22 99 95 99 C95 107.58 95 116.16 95 125 C63.65 125 32.3 125 0 125 C0 83.75 0 42.5 0 0 Z " fill="#ffffff" transform="translate(141,175)"/>
<path d="M0 0 C3.65490723 3.05956271 7.03348365 6.34902697 10.38525391 9.73535156 C11.40425781 10.72148438 11.40425781 10.72148438 12.44384766 11.72753906 C24.33473065 24.06863367 29.07104888 42.28050281 28.85595703 59.01464844 C28.07400239 78.33059178 20.12492773 94.35462422 6.38525391 107.73535156 C5.69302734 108.425 5.00080078 109.11464844 4.28759766 109.82519531 C-10.94338393 124.11792342 -30.12634413 126.41704489 -50.04541016 125.86279297 C-67.25714594 125.00907517 -82.24585331 114.64279469 -93.80224609 102.54785156 C-108.28997395 85.41246913 -111.3399602 66.64853247 -109.61474609 44.73535156 C-107.29316388 26.83168563 -96.60649995 11.67353048 -82.61474609 0.73535156 C-59.32302676 -16.57118912 -23.43676559 -18.35537432 0 0 Z M-85.61474609 31.73535156 C-86.39462891 32.3528125 -87.17451172 32.97027344 -87.97802734 33.60644531 C-93.61630506 38.31606553 -97.73235055 43.51933282 -101.61474609 49.73535156 C-102.29537109 50.80785156 -102.97599609 51.88035156 -103.67724609 52.98535156 C-104.97173451 56.78251759 -104.37858385 58.13712253 -102.61474609 61.73535156 C-92.61964289 78.720701 -77.75938449 90.25148115 -58.67724609 95.54785156 C-39.04472852 99.88196845 -20.3714914 96.74192586 -2.91552734 86.89550781 C5.83718979 81.16739825 12.95921693 74.06074775 18.76025391 65.36035156 C19.14793945 64.78986084 19.535625 64.21937012 19.93505859 63.6315918 C21.71053444 60.77049865 22.39417094 58.97492243 22.26806641 55.58691406 C17.70536656 40.84898979 3.07673274 29.86086808 -9.99755859 22.94628906 C-35.0117943 11.3793418 -64.00625886 14.21797207 -85.61474609 31.73535156 Z " fill="#ffffff" transform="translate(109.61474609375,34.2646484375)"/>
<path d="M0 0 C3.99124768 3.26291781 7.64800215 6.81814376 11.1875 10.5625 C7.33074805 15.27630794 3.2156064 19.67075067 -1.0625 24 C-1.59391602 24.54430664 -2.12533203 25.08861328 -2.67285156 25.64941406 C-4.01379248 26.99377793 -5.40931004 28.28324448 -6.8125 29.5625 C-7.4725 29.5625 -8.1325 29.5625 -8.8125 29.5625 C-9.3075 28.881875 -9.8025 28.20125 -10.3125 27.5 C-17.19691839 19.41080839 -26.92806923 14.20563154 -37.4921875 13.21875 C-50.15765117 12.91294404 -60.10965621 15.41986303 -69.53125 24.15625 C-78.00286184 33.31942199 -80.3163739 43.36035525 -80.0859375 55.4453125 C-79.59858247 65.96928595 -74.47384912 74.18901609 -66.96875 81.3125 C-57.50485449 89.0697914 -46.71112443 90.80183436 -34.82373047 89.82861328 C-25.06090332 88.53685781 -17.33494027 82.47652377 -9.8125 76.5625 C-8.48132843 75.55962412 -7.148797 74.55853619 -5.8125 73.5625 C-0.86193944 77.67725164 3.58578455 81.94326008 7.7421875 86.86328125 C9.23002706 88.65868266 9.23002706 88.65868266 11.1875 90.5625 C10.69271038 96.00518583 6.11930193 99.25906824 2.1875 102.5625 C-15.23100042 114.93703312 -34.11830623 118.94023684 -55.20800781 116.2578125 C-73.61697387 113.06333942 -89.15884671 102.11232057 -99.9375 87.0625 C-109.12904709 72.90930225 -112.23537288 55.07498439 -109.1640625 38.50390625 C-104.80603018 20.60617521 -94.76223723 6.59400474 -79.62109375 -3.7578125 C-54.89953569 -18.54261078 -23.05353371 -17.36803384 0 0 Z " fill="#ffffff" transform="translate(258.8125,39.4375)"/>
<path d="M0 0 C0.41507813 0.35191406 0.83015625 0.70382813 1.2578125 1.06640625 C0.68401078 4.73018368 -0.71488408 6.3940785 -3.33984375 8.95703125 C-4.05849609 9.66601562 -4.77714844 10.375 -5.51757812 11.10546875 C-6.27232422 11.83507812 -7.02707031 12.5646875 -7.8046875 13.31640625 C-8.56330078 14.06148437 -9.32191406 14.8065625 -10.10351562 15.57421875 C-11.97650957 17.41187319 -13.85614361 19.24216349 -15.7421875 21.06640625 C-18.473494 19.78351986 -20.44129077 18.5211057 -22.8671875 16.62890625 C-28.89858807 12.2541994 -36.33903048 10.25878912 -43.7421875 11.06640625 C-48.79652691 12.25667731 -53.81764803 13.48886621 -56.7421875 18.06640625 C-57.48424174 22.5187317 -57.21820704 24.38349792 -54.62109375 28.109375 C-51.85560022 31.25062292 -49.06914529 32.56244936 -45.1171875 34.00390625 C-44.47620117 34.24568604 -43.83521484 34.48746582 -43.17480469 34.73657227 C-39.44416022 36.13312009 -35.68156877 37.43808853 -31.921875 38.75390625 C-18.88270127 43.35444723 -5.81792921 48.19757942 1.3125 60.953125 C5.53170684 70.2152886 5.58279843 81.21598405 2.2890625 90.76171875 C-1.94368804 100.22127488 -10.23621007 107.79773617 -19.6171875 111.94140625 C-36.86403821 118.40897526 -55.13846176 117.25608943 -72.203125 110.74609375 C-78.89106775 107.59983791 -85.7173283 103.55817715 -90.7421875 98.06640625 C-90.7421875 92.74017267 -88.8432753 91.6211491 -85.25 87.97851562 C-84.50492187 87.24439453 -83.75984375 86.51027344 -82.9921875 85.75390625 C-82.26257813 85.00044922 -81.53296875 84.24699219 -80.78125 83.47070312 C-80.07226562 82.76365234 -79.36328125 82.05660156 -78.6328125 81.328125 C-77.98344727 80.67803467 -77.33408203 80.02794434 -76.66503906 79.3581543 C-74.7421875 78.06640625 -74.7421875 78.06640625 -72.67089844 78.21801758 C-70.21117234 79.2999857 -68.44841378 80.98328146 -66.43359375 82.73046875 C-57.89991474 89.47069559 -48.23379934 90.60770757 -37.70703125 89.5390625 C-32.90326856 88.77324526 -29.98655031 87.55964162 -26.8671875 83.81640625 C-25.41822565 80.2744995 -25.26749306 77.86396174 -25.7421875 74.06640625 C-30.27596816 64.99884494 -45.80321994 62.15375187 -54.68505859 59.09643555 C-66.37720468 54.98645019 -77.81626785 49.32206144 -83.7421875 37.87890625 C-88.41449161 27.83669706 -87.44835457 17.30381868 -83.7421875 7.06640625 C-82.07907311 4.01995372 -80.12519166 1.57998598 -77.7421875 -0.93359375 C-77.17757813 -1.54976562 -76.61296875 -2.1659375 -76.03125 -2.80078125 C-55.34108085 -23.14174924 -20.52387055 -16.44485862 0 0 Z " fill="#ffffff" transform="translate(515.7421875,186.93359375)"/>
<path d="M0 0 C2.83526643 2.17895476 5.46481244 4.4797253 8 7 C6.60652624 10.15204981 4.97514921 12.26171773 2.5234375 14.671875 C1.853125 15.33574219 1.1828125 15.99960937 0.4921875 16.68359375 C-0.20648438 17.36550781 -0.90515625 18.04742187 -1.625 18.75 C-2.33140625 19.44738281 -3.0378125 20.14476563 -3.765625 20.86328125 C-5.50598703 22.58012488 -7.25084981 24.29211832 -9 26 C-11.74554117 24.65198809 -14.26910856 23.19904764 -16.8125 21.5 C-24.38350477 16.78203931 -32.65306753 15.66599777 -41.37890625 17.5 C-44.61119373 18.54766592 -46.7639879 19.74253225 -49.0625 22.25 C-50.33893917 25.99422157 -50.08494338 28.20269818 -49 32 C-44.7474288 37.61914799 -39.05083254 39.18240273 -32.5625 41.4375 C-30.39383403 42.22464422 -28.22586045 43.01369877 -26.05859375 43.8046875 C-25.01429199 44.18206055 -23.96999023 44.55943359 -22.89404297 44.94824219 C-10.33551089 49.51228438 1.71594814 54.17345624 8.0625 66.7265625 C12.04838048 76.39232266 12.77488367 86.46116409 9 96.375 C3.99152046 106.81283971 -3.77532708 113.67096572 -14.4609375 117.99609375 C-16.63159737 118.74969493 -18.77539343 119.4263074 -21 120 C-21.70898438 120.18304688 -22.41796875 120.36609375 -23.1484375 120.5546875 C-41.68731317 123.44979959 -60.29435953 120.44948613 -76 110 C-79.16365754 107.48405507 -82.13497197 104.85022169 -85 102 C-79.44964797 95.21623641 -73.23557973 89.14477032 -67 83 C-66.27296875 83.58007812 -66.27296875 83.58007812 -65.53125 84.171875 C-54.53922334 92.71183417 -44.10839028 96.30574267 -30 95 C-25.89590264 93.90331283 -22.15008728 92.80515318 -19.79296875 89.10546875 C-18.52239459 85.73187529 -18.33517558 82.50607403 -19 79 C-25.26871281 70.38051989 -37.99728689 67.77134576 -47.625 64.53125 C-58.74638226 60.66176663 -70.30500952 55.30128752 -76.34765625 44.6171875 C-80.4665425 35.19837234 -80.88768194 25.84699541 -78 16 C-74.12466924 6.34292576 -67.05590471 -0.7460629 -57.59765625 -4.96875 C-56.74042969 -5.3090625 -55.88320313 -5.649375 -55 -6 C-54.21496094 -6.3196875 -53.42992187 -6.639375 -52.62109375 -6.96875 C-35.36795943 -12.80079541 -15.24633978 -9.29341498 0 0 Z " fill="#ffffff" transform="translate(466,35)"/>
<path d="M0 0 C9.21140364 6.90855273 14.30236978 14.90290053 16.234375 26.26953125 C17.38948298 36.82593478 14.33893747 45.73462573 8.234375 54.26953125 C7.615625 55.15640625 6.996875 56.04328125 6.359375 56.95703125 C-0.07165981 63.95551031 -8.25640574 67.74292333 -17.7109375 68.5078125 C-29.14779083 68.77476608 -38.25114062 66.07291583 -46.765625 58.26953125 C-54.53003642 50.61320909 -57.97434838 42.4879221 -58.078125 31.64453125 C-58.10149755 20.1452362 -54.09920005 11.84670534 -46.140625 3.58203125 C-33.51173546 -8.11138499 -14.41829559 -9.02161715 0 0 Z " fill="#ffffff" transform="translate(89.765625,59.73046875)"/>
</svg>
