<?xml version="1.0" encoding="UTF-8"?>
<svg version="1.1" xmlns="http://www.w3.org/2000/svg" width="4096" height="4096">
<path d="M0 0 C0.2346034 13.95890255 -0.38512597 27.85171814 -1.06588554 41.7914257 C-2.38517882 68.85104157 -3.42821707 95.91718881 -4.125 123 C-4.14519699 123.78357376 -4.16539398 124.56714752 -4.186203 125.37446594 C-5.43963986 174.57083948 -5.66206909 223.79065181 -6 273 C-5.24671417 272.66986908 -4.49342834 272.33973816 -3.71731567 271.99960327 C10.72623054 265.68845089 25.11304808 259.47905891 40.125 254.625 C40.87184052 254.37952423 41.61868103 254.13404846 42.38815308 253.88113403 C62.17291466 247.39237441 82.32629923 242.60663202 103 240 C103.67909424 239.9057373 104.35818848 239.81147461 105.05786133 239.71435547 C128.18692444 236.89969426 154.20843163 237.31022082 177 242 C177.96566895 242.19867676 178.93133789 242.39735352 179.92626953 242.60205078 C211.49004878 249.35596091 240.93759973 262.59115762 266 283 C267.02351563 283.81855469 268.04703125 284.63710937 269.1015625 285.48046875 C282.80179176 296.61617567 295.3233759 309.19212153 305.81201172 323.40185547 C306.95736842 324.94264975 308.13634478 326.4582772 309.31640625 327.97265625 C315.49260809 335.95338314 320.83682943 344.34409639 326 353 C326.40863281 353.67740234 326.81726562 354.35480469 327.23828125 355.05273438 C373.20555034 431.88374128 374.99713674 533.10009814 354 618 C345.34332581 651.83401414 331.52665235 684.01763312 312 713 C311.56300781 713.64936523 311.12601563 714.29873047 310.67578125 714.96777344 C304.67327746 723.80068864 298.03336646 731.97233322 291 740 C290.319375 740.79277344 289.63875 741.58554688 288.9375 742.40234375 C278.02933606 754.86577326 266.2218629 766.99625394 253 777 C251.8028477 777.93681326 250.60627509 778.87436758 249.41015625 779.8125 C171.51805322 840.26636347 69.12037066 848.20462773 -61 835 C-87.13350004 831.65313944 -113.05493568 827.20976591 -138.9375 822.3125 C-140.17729614 822.07843445 -141.41709229 821.8443689 -142.69445801 821.60321045 C-155.89630213 819.09854837 -169.02239396 816.50453793 -182 813 C-181.94465088 811.91098389 -181.88930176 810.82196777 -181.83227539 809.69995117 C-178.17604282 737.32723065 -177.81453644 664.90005817 -177.46736908 592.44997787 C-177.44235823 587.23269993 -177.41645265 582.01542686 -177.39027476 576.79815465 C-177.09270106 517.43134304 -176.89555861 458.06469523 -176.87788659 398.69710815 C-176.8762729 393.42257486 -176.87336184 388.14804479 -176.86917603 382.87351292 C-176.82675781 328.96398277 -177.17035469 275.07353355 -178.9375 221.1875 C-178.98095489 219.84011013 -179.02434943 218.49271832 -179.06768799 217.14532471 C-179.36005567 208.09621129 -179.6741735 199.04797548 -180 190 C-180.03760437 188.93473083 -180.07520874 187.86946167 -180.11395264 186.77191162 C-180.81812615 166.96489672 -181.53475308 147.39383365 -186 128 C-186.15726563 127.29101562 -186.31453125 126.58203125 -186.4765625 125.8515625 C-189.80386072 111.13249751 -194.35393453 94.30631672 -207.6875 85.6875 C-218.83792223 79.76904713 -230.4143493 77.91016866 -242.75 76.25 C-244.33347842 76.02837792 -245.91681336 75.80572821 -247.5 75.58203125 C-251.33166314 75.04094911 -255.16533816 74.52096742 -259 74 C-259 65.75 -259 57.5 -259 49 C-240.87801703 45.34642864 -222.73477733 41.81900782 -204.57399774 38.36465716 C-200.81413012 37.64925323 -197.05450832 36.93255941 -193.29484558 36.21607971 C-185.26430625 34.68597524 -177.23342608 33.15766538 -169.20246506 31.629776 C-164.23673101 30.68503088 -159.27108532 29.73982186 -154.30545044 28.79455566 C-115.58111029 21.42324436 -76.85579797 14.05689275 -38.11820984 6.75546646 C-35.44049328 6.2505644 -32.76289676 5.74503002 -30.08532715 5.23934937 C-26.0009018 4.46813865 -21.91612674 3.69881148 -17.83101845 2.93122673 C-16.38029271 2.65840109 -14.92967525 2.38499887 -13.47917747 2.11096382 C-11.55211626 1.74705998 -9.62458377 1.38565435 -7.69702148 1.02441406 C-6.63482895 0.82462952 -5.57263641 0.62484497 -4.47825623 0.41900635 C-2 0 -2 0 0 0 Z M-8 314 C-8.23336138 452.50369347 -8.23336138 452.50369347 -7 591 C-6.98331017 592.1411451 -6.96662033 593.28229019 -6.94942474 594.45801544 C-6.21902673 644.26783365 -5.47416682 694.08236354 -3.9375 743.875 C-3.897388 745.17565399 -3.857276 746.47630798 -3.81594849 747.81637573 C-3.45259025 759.36229205 -3.03930258 770.90598575 -2.50390625 782.4453125 C-2.45036232 783.67083328 -2.45036232 783.67083328 -2.39573669 784.92111206 C-2.22295636 788.40916636 -1.9213875 791.63424057 -1 795 C7.28194115 796.71988027 15.60022854 798.20025018 23.9375 799.625 C25.23107422 799.85445312 26.52464844 800.08390625 27.85742188 800.3203125 C52.1826146 804.4586744 74.93490243 798.74439402 95.01220703 784.50830078 C101.13815321 779.86004537 106.62019384 774.47814488 112 769 C112.77988281 768.20722656 113.55976563 767.41445312 114.36328125 766.59765625 C124.20014348 756.01169429 131.88054917 743.51038874 139 731 C139.35916504 730.37883301 139.71833008 729.75766602 140.08837891 729.11767578 C188.91375953 644.0295293 196.34824203 522.268642 171.96191406 424.49462891 C160.66688787 383.45985609 139.06504072 339.0502941 100.84423828 317.00488281 C95.4505647 314.06599475 89.82916888 311.89769881 84 310 C82.7728125 309.58621094 81.545625 309.17242188 80.28125 308.74609375 C55.78621438 301.50837075 15.10449976 302.44775012 -8 314 Z " fill="#ffffff" transform="translate(2279,1627)"/>
<path d="M0 0 C223.74 0 447.48 0 678 0 C684 200 684 200 684 228 C678.3419272 229.73408982 672.68288067 231.46368275 667.02001953 233.18188477 C665.09278371 233.76811681 663.16634548 234.35697751 661.24072266 234.94848633 C658.47762706 235.79675526 655.71182968 236.63562417 652.9453125 237.47265625 C652.0806839 237.74030289 651.2160553 238.00794952 650.32522583 238.28370667 C649.52454681 238.52403122 648.7238678 238.76435577 647.89892578 239.01196289 C647.1927713 239.22736221 646.48661682 239.44276154 645.75906372 239.66468811 C644 240 644 240 642 239 C641.25455716 237.1143578 640.60715559 235.18973211 640.00390625 233.25390625 C639.42213623 231.42883545 639.42213623 231.42883545 638.82861328 229.56689453 C638.62302795 228.91481018 638.41744263 228.26272583 638.20562744 227.59088135 C624.76972352 185.21493041 604.8858117 142.52339966 573.41601562 110.44677734 C572.01698325 109.01735219 570.64109948 107.56538931 569.265625 106.11328125 C541.0978925 76.92792836 500.21022082 59.20237218 459.71235275 57.8937664 C455.87053609 57.83784726 452.02914313 57.81073202 448.18701172 57.79467773 C446.7175724 57.78507937 445.24813572 57.7750682 443.77870178 57.76467896 C439.81869352 57.73783575 435.8586736 57.71671587 431.89862585 57.69667697 C427.74930076 57.67468917 423.60001078 57.64736355 419.45071411 57.62062073 C411.60642967 57.57086573 403.76212556 57.5258637 395.91780293 57.48259836 C386.98180491 57.43307829 378.04584215 57.37821532 369.1098783 57.32291877 C350.73995166 57.20936294 332.36999168 57.10246725 314 57 C312.47347448 84.99222459 312.47347448 84.99222459 311.01953125 112.98828125 C310.97554514 113.86080347 310.93155903 114.73332569 310.88624001 115.63228798 C309.61438317 141.00763722 308.75862205 166.39157413 308.08532715 191.78985596 C308.0059761 194.77516964 307.92380627 197.760391 307.84082031 200.74560547 C306.9860367 231.94827845 306.7390997 263.16244573 306.40757179 294.37398815 C306.09648399 323.58702786 305.63030855 352.79197407 305 382 C317.01449296 381.78397995 329.02876924 381.5585181 341.04286385 381.32132149 C346.62274082 381.21144682 352.20263952 381.10470744 357.78271484 381.00537109 C363.17751255 380.9092137 368.57208542 380.80450998 373.96660995 380.6941185 C376.01480309 380.65366149 378.06305737 380.61617653 380.11136246 380.58185196 C405.91543262 380.14469927 428.57528627 377.03899542 449 360 C449.96550781 359.23816406 450.93101562 358.47632813 451.92578125 357.69140625 C455.19532567 354.95726196 457.7819782 351.86890143 460.375 348.5 C460.84977783 347.88616455 461.32455566 347.2723291 461.8137207 346.63989258 C479.42072908 323.51714967 487.70854718 296.74308877 495 269 C506.55 269 518.1 269 530 269 C530 360.41 530 451.82 530 546 C518.45 546 506.9 546 495 546 C493.989375 542.101875 492.97875 538.20375 491.9375 534.1875 C482.64736598 499.3047704 467.75277115 463.03320344 435.3125 443.8125 C416.73859256 433.32004042 396.9939515 432.72062524 376.19140625 432.3671875 C374.12774695 432.3259438 372.06410255 432.28394855 370.00047302 432.24124146 C364.62002784 432.13187813 359.23944419 432.0325936 353.85876465 431.93554688 C348.34777795 431.83431926 342.83698748 431.72336743 337.32617188 431.61328125 C326.55094966 431.39944106 315.77555562 431.19626872 305 431 C305.02800186 431.77328644 305.05600372 432.54657288 305.08485413 433.34329224 C305.68429207 450.08263733 306.14554799 466.81331796 306.38787842 483.56222534 C307.23954559 540.42017495 309.77176558 597.2246938 313.69342041 653.9526062 C313.85252314 656.26496678 314.00824669 658.5775631 314.16009521 660.89041138 C316.29187846 693.04863286 319.43499114 729.48006993 344.0625 753.0625 C359.55429353 766.22135 378.88107504 771.60124705 398.81640625 773.0703125 C400.46200783 773.19924393 400.46200783 773.19924393 402.14085388 773.33078003 C405.61430103 773.60154199 409.08835136 773.86340911 412.5625 774.125 C414.93038415 774.30800452 417.2982233 774.49159236 419.66601562 774.67578125 C425.44345785 775.12502544 431.22163284 775.56221271 437 776 C437 787.55 437 799.1 437 811 C292.79 811 148.58 811 0 811 C0 799.45 0 787.9 0 776 C3.2071875 775.55269531 6.414375 775.10539062 9.71875 774.64453125 C12.88018759 774.19418368 16.04093741 773.73926995 19.20166016 773.28393555 C21.37123239 772.97383607 23.54147218 772.66836557 25.71240234 772.36791992 C49.65010126 769.0484559 73.31997186 764.30561235 89.75 744.875 C125.11716775 695.74924431 117.02662651 608.48154393 119.6875 551 C119.74825714 549.69590179 119.80901428 548.39180359 119.87161255 547.04818726 C120.22748876 539.31530009 120.55447178 531.5817355 120.85183716 523.84637451 C120.94786506 521.35344668 121.04701476 518.86063636 121.14987183 516.36798096 C122.41145089 485.08638163 122.1876383 453.76576521 122.18511146 422.4646132 C122.18541183 417.00210324 122.19350975 411.53964364 122.20581055 406.07714844 C122.32761821 350.64647935 121.25108543 295.32187119 118.2478447 239.96261215 C118.11985254 237.59216785 117.99445157 235.2215975 117.86965942 232.85098267 C116.68914156 210.45520372 115.3907235 188.06724978 113.9375 165.6875 C113.86154602 164.49152191 113.78559204 163.29554382 113.70733643 162.06332397 C112.92421015 149.84989785 111.95345046 137.68361641 110.5234375 125.52734375 C110.40729599 124.53071213 110.29115448 123.53408051 110.17149353 122.50724792 C107.18010653 98.32451848 100.51729039 73.1297767 81 57 C62.06851384 43.36911317 40.25847757 38.94132521 17.5 36.75 C15.7902558 36.57659005 14.08061919 36.40211598 12.37109375 36.2265625 C8.24858358 35.80353629 4.12480093 35.40221088 0 35 C0 23.45 0 11.9 0 0 Z " fill="#ffffff" transform="translate(372,1644)"/>
<path d="M0 0 C0.52996582 0.46825195 1.05993164 0.93650391 1.60595703 1.41894531 C7.83569475 6.93934715 13.67424286 12.58851984 19 19 C19.80695312 19.91910156 20.61390625 20.83820313 21.4453125 21.78515625 C63.06874056 69.37528875 85.62659265 130.84034949 93 193 C93.11714355 193.95422852 93.23428711 194.90845703 93.35498047 195.89160156 C103.49868713 282.43716418 85.11640874 372.52304797 30.859375 441.73046875 C17.41827543 458.48349394 2.14124028 475.0250334 -15 488 C-15.53882813 488.41523926 -16.07765625 488.83047852 -16.6328125 489.25830078 C-84.52368347 541.45131061 -173.41426043 554.53262629 -256.75 544.1875 C-287.31500603 540.12209573 -317.22182566 532.58240669 -345 519 C-346.25441895 518.39115967 -346.25441895 518.39115967 -347.53417969 517.77001953 C-360.18605102 511.56551194 -371.78967652 504.53527404 -383 496 C-384.44632813 494.90171875 -384.44632813 494.90171875 -385.921875 493.78125 C-401.2079465 481.81823752 -415.091707 468.2005801 -426.72949219 452.671875 C-427.93835549 451.08111868 -429.19085133 449.52380091 -430.4453125 447.96875 C-485.73520373 378.98972171 -500.34375157 282.70438181 -490.9765625 196.8984375 C-484.44204934 140.14411936 -464.35296287 85.48722688 -428 41 C-427.5570459 40.45408203 -427.1140918 39.90816406 -426.65771484 39.34570312 C-419.5391264 30.65101587 -411.79302722 22.58911682 -403.875 14.625 C-402.96911133 13.70984619 -402.06322266 12.79469238 -401.12988281 11.85180664 C-327.56553414 -61.37332125 -211.13716942 -75.93700517 0 0 Z M-259.74609375 2.9140625 C-265.69011959 9.77185792 -270.5695959 17.09177362 -275 25 C-275.32178223 25.57105469 -275.64356445 26.14210938 -275.97509766 26.73046875 C-316.97899901 100.62312837 -314.19502521 204.7652127 -300 373 C-299.79181641 374.06766602 -299.58363281 375.13533203 -299.36914062 376.23535156 C-292.27147556 411.77827432 -280.30636782 451.28978186 -256 479 C-254.97326172 480.24136719 -254.97326172 480.24136719 -253.92578125 481.5078125 C-241.09482729 496.57324138 -223.08345004 507.18837195 -203.16015625 508.875 C-202.44730469 508.91625 -201.73445313 508.9575 -201 509 C-200.31808594 509.04125 -199.63617187 509.0825 -198.93359375 509.125 C-179.77394 509.68955702 -161.03476819 503.22427405 -146.6875 490.5 C-145.11773718 489.00760228 -143.55453508 487.50825295 -142 486 C-141.39800781 485.47148437 -140.79601563 484.94296875 -140.17578125 484.3984375 C-98.76529031 446.75253665 -93.44606641 371.15315059 -89.3125 319.5625 C-89.25156158 318.80831787 -89.19062317 318.05413574 -89.12783813 317.27709961 C-87.19482747 292.95435202 -86.79265361 268.6371822 -86.8125 244.25 C-86.81276688 243.51309307 -86.81303375 242.77618614 -86.81330872 242.0169487 C-86.82361758 219.30040289 -86.93792456 196.64038919 -89 174 C-89.06552063 173.27409668 -89.13104126 172.54819336 -89.19854736 171.80029297 C-94.48763954 113.95675899 -104.42971032 47.35224981 -144 2 C-144.72703125 1.15953125 -145.4540625 0.3190625 -146.203125 -0.546875 C-158.23408231 -13.46901434 -175.83149623 -22.62435629 -193.56640625 -23.3359375 C-219.89347288 -23.73747764 -241.61162867 -16.72449259 -259.74609375 2.9140625 Z " fill="#ffffff" transform="translate(1462,1922)"/>
<path d="M0 0 C1.10011917 -0.00570007 2.20023834 -0.01140015 3.33369446 -0.01727295 C5.65222229 -0.02665676 7.97076306 -0.03323032 10.28930664 -0.03710938 C13.74716079 -0.04672588 17.20439632 -0.07777742 20.66210938 -0.109375 C79.62465458 -0.38994492 136.26060303 17.81599665 179.11328125 59.203125 C180.09604445 60.12272693 181.07912075 61.04199437 182.0625 61.9609375 C229.67879663 107.20031589 251.43788041 177.51128726 256.11328125 241.203125 C256.16967773 241.92854492 256.22607422 242.65396484 256.28417969 243.40136719 C257.11755318 254.3535715 257.11328125 265.19302245 257.11328125 276.203125 C137.65328125 276.203125 18.19328125 276.203125 -104.88671875 276.203125 C-104.98939367 296.21278352 -104.98939367 296.21278352 -104.13671875 316.140625 C-104.00475098 318.00956421 -104.00475098 318.00956421 -103.87011719 319.91625977 C-101.22723747 354.29768265 -93.28200807 387.71063085 -76.88671875 418.203125 C-76.37367188 419.19441406 -75.860625 420.18570313 -75.33203125 421.20703125 C-52.94336502 463.7454971 -16.41199467 495.65851289 29.39453125 510.37158203 C50.45304883 516.81243251 72.14782567 519.59466363 94.11328125 520.203125 C95.325 520.244375 96.53671875 520.285625 97.78515625 520.328125 C138.65365418 521.05467607 182.36663733 511.05215729 216.11328125 487.203125 C217.29073752 486.39317884 218.46919553 485.5846878 219.6484375 484.77734375 C222.8157128 482.60326134 225.96773267 480.40850962 229.11328125 478.203125 C233.30443988 482.26799636 237.12427724 486.58689402 240.92578125 491.015625 C241.52326172 491.70849609 242.12074219 492.40136719 242.73632812 493.11523438 C244.19707162 494.80969683 245.6560034 496.50568214 247.11328125 498.203125 C237.85902521 517.22700127 217.91011099 533.79960361 201.11328125 546.203125 C200.27893555 546.82864258 200.27893555 546.82864258 199.42773438 547.46679688 C130.57255994 598.96757495 46.80289679 616.57430703 -37.58276367 604.9375 C-66.85438391 600.64614594 -95.31131611 592.24345583 -121.88671875 579.203125 C-123.18005127 578.57083984 -123.18005127 578.57083984 -124.49951172 577.92578125 C-137.28856841 571.60742009 -149.26148182 564.4654724 -160.88671875 556.203125 C-161.45712891 555.79852051 -162.02753906 555.39391602 -162.61523438 554.97705078 C-183.00112341 540.38458748 -202.33178251 522.83258325 -217.88671875 503.203125 C-218.83125187 502.05817553 -219.77797915 500.91503363 -220.7265625 499.7734375 C-264.93801072 446.22103647 -282.09453738 377.14692478 -282.13671875 308.828125 C-282.13773087 307.3457988 -282.13773087 307.3457988 -282.13876343 305.83352661 C-282.04513109 218.93484114 -252.90171731 137.40937906 -191.26171875 75.328125 C-185.08759656 69.1915334 -178.79949329 63.50257845 -171.88671875 58.203125 C-170.92121094 57.42066406 -169.95570313 56.63820313 -168.9609375 55.83203125 C-122.45029283 18.40722115 -59.13343031 0.24663647 0 0 Z M-49.88671875 61.265625 C-59.65064411 72.37629868 -66.6739001 84.85682481 -72.88671875 98.203125 C-73.32081055 99.10756348 -73.32081055 99.10756348 -73.76367188 100.03027344 C-92.11375401 138.33972738 -99.74435139 182.08989108 -101.4375 224.28515625 C-101.48152954 225.34013306 -101.52555908 226.39510986 -101.57092285 227.48205566 C-101.67806584 230.055674 -101.78329433 232.629355 -101.88671875 235.203125 C-63.77347813 234.67074495 -25.66204649 234.02962463 12.44854736 233.33416748 C17.26764777 233.24635032 22.08677784 233.16055961 26.90594482 233.07647705 C32.66404944 232.97587635 38.42206211 232.87104032 44.18003273 232.76305008 C46.32543122 232.72348798 48.4708569 232.68537029 50.61630821 232.64878464 C53.57966266 232.59796911 56.54287118 232.54181957 59.50610352 232.484375 C60.36653196 232.47083796 61.22696041 232.45730091 62.11346245 232.44335365 C67.18303982 232.33833128 72.09189123 231.91569796 77.11328125 231.203125 C77.77422735 134.51127948 77.77422735 134.51127948 36.11328125 51.203125 C9.33178365 27.85300678 -27.24953011 37.53875803 -49.88671875 61.265625 Z " fill="#ffffff" transform="translate(2974.88671875,1860.796875)"/>
<path d="M0 0 C1.80326009 28.51329895 3.13601776 57.04688129 4.45513916 85.58599854 C4.68430702 90.52928849 4.91608856 95.47245459 5.1478672 100.41562271 C5.37197535 105.20075586 5.59469641 109.98595275 5.81696701 114.77117157 C5.92264863 117.04375701 6.02870475 119.31632506 6.13515091 121.58887482 C6.28239749 124.73789874 6.42782981 127.88700126 6.57275391 131.03613281 C6.61636551 131.96167465 6.65997711 132.88721649 6.70491028 133.84080505 C6.90509712 138.23192322 7.04939269 142.60275188 7 147 C3.04995694 148.14269374 -0.90106325 149.28193605 -4.85302734 150.41796875 C-6.19770272 150.80503783 -7.54210579 151.19305416 -8.88623047 151.58203125 C-10.81666612 152.14050415 -12.74816271 152.6953057 -14.6796875 153.25 C-15.84226074 153.58515625 -17.00483398 153.9203125 -18.20263672 154.265625 C-21 155 -21 155 -23 155 C-23.31638428 154.13536133 -23.63276855 153.27072266 -23.95874023 152.37988281 C-33.12767221 127.33741111 -33.12767221 127.33741111 -44 103 C-44.38333496 102.21415527 -44.76666992 101.42831055 -45.16162109 100.61865234 C-53.25743868 84.21179093 -62.90386684 68.77324001 -75 55 C-75.81597656 54.03964844 -76.63195313 53.07929687 -77.47265625 52.08984375 C-99.12899578 27.08867691 -129.28992154 12.77071274 -162.04296875 10.25390625 C-181.9856933 9.05076613 -203.26349953 12.47071817 -218.8359375 25.90869141 C-237.73999679 43.15144853 -246.86456179 65.16646934 -248.1875 90.60546875 C-248.61099378 114.45346231 -241.05364238 134.2444775 -224.71484375 151.4140625 C-194.90559309 179.80790989 -151.89208031 194.11910901 -114.19622803 208.61264038 C-96.03514039 215.59852047 -78.42994578 223.33799187 -61 232 C-60.20223145 232.39155273 -59.40446289 232.78310547 -58.58251953 233.18652344 C-41.91796049 241.40617964 -25.91802292 251.65672843 -12 264 C-11.13246094 264.75925781 -10.26492188 265.51851562 -9.37109375 266.30078125 C-6.88549621 268.5048506 -4.43537265 270.74067838 -2 273 C-1.38511719 273.56074219 -0.77023437 274.12148437 -0.13671875 274.69921875 C24.41673145 298.01088526 35.96439211 334.45105627 37.12597656 367.59448242 C37.20703983 371.77206255 37.24659859 375.94674088 37.25 380.125 C37.25067474 380.87333099 37.25134949 381.62166199 37.25204468 382.39266968 C37.18287059 430.98067759 22.28401399 475.92671374 -12 511 C-12.63808594 511.69996094 -13.27617187 512.39992188 -13.93359375 513.12109375 C-20.72355756 520.3949748 -28.99059609 526.15628359 -37 532 C-37.92643311 532.67748291 -37.92643311 532.67748291 -38.87158203 533.36865234 C-88.33969069 569.06431175 -151.34409453 578.26645684 -210.9375 578.1875 C-211.794505 578.18689575 -212.65151001 578.1862915 -213.53448486 578.18566895 C-378.12500072 577.87499928 -378.12500072 577.87499928 -414 542 C-414.20269462 539.76807098 -414.33518535 537.52978518 -414.44287109 535.29125977 C-414.47865391 534.56694952 -414.51443672 533.84263927 -414.55130386 533.09638023 C-414.67229361 530.60744458 -414.78558665 528.11822352 -414.8984375 525.62890625 C-414.98361259 523.81750712 -415.06885029 522.00611094 -415.15414429 520.19471741 C-416.3839442 493.66767593 -417.35933902 467.12870007 -418.37096477 440.59261477 C-418.65706535 433.09000983 -418.9456806 425.58750215 -419.23443532 418.08499897 C-419.82561512 402.72343397 -420.41386128 387.36175822 -421 372 C-417.2319077 370.829423 -413.45999521 369.67220622 -409.68408203 368.52709961 C-407.77031126 367.94369183 -405.85973798 367.34982861 -403.94921875 366.75585938 C-402.74394531 366.39169922 -401.53867188 366.02753906 -400.296875 365.65234375 C-399.18666992 365.31195068 -398.07646484 364.97155762 -396.93261719 364.62084961 C-394.08299175 364.01756977 -392.64278061 363.83519 -390 365 C-388.75830078 367.22363281 -388.75830078 367.22363281 -387.6953125 370.203125 C-387.07837524 371.87012451 -387.07837524 371.87012451 -386.44897461 373.57080078 C-386.01206299 374.78493652 -385.57515137 375.99907227 -385.125 377.25 C-373.00654501 409.72950734 -356.86729115 440.99265251 -335 468 C-334.30801514 468.85658203 -334.30801514 468.85658203 -333.60205078 469.73046875 C-318.45886424 488.31458931 -300.7170371 503.23796025 -278.77246094 513.19335938 C-277.19375609 513.9118223 -275.63074495 514.66454512 -274.0703125 515.421875 C-246.82460019 527.925573 -210.75786138 529.51690639 -182.625 519.25 C-170.06617708 514.31316791 -160.56323129 507.32624159 -151 498 C-150.34257812 497.41605469 -149.68515625 496.83210938 -149.0078125 496.23046875 C-134.90889817 483.39850755 -126.54290763 462.70398866 -125.61328125 443.9765625 C-124.8903439 417.72514974 -132.4074469 397.2708028 -150.625 377.875 C-176.18803887 353.43689001 -214.71901784 340.92932126 -247.27813721 328.95532227 C-262.38612242 323.39885728 -277.31375869 317.60945785 -292 311 C-292.91249512 310.59120605 -293.82499023 310.18241211 -294.76513672 309.76123047 C-320.40587359 298.17636688 -344.17169152 284.008165 -365 265 C-366.33804688 263.78763672 -366.33804688 263.78763672 -367.703125 262.55078125 C-394.79911728 236.77550558 -406.25044623 199.51814587 -407.21875 162.9453125 C-408.00873301 116.1723564 -394.24664048 74.19773736 -361.8359375 39.9296875 C-360.89087632 38.95288179 -359.94555605 37.97632669 -359 37 C-358.49887695 36.4730957 -357.99775391 35.94619141 -357.48144531 35.40332031 C-293.53403218 -31.73150282 -193.97357545 -39.52236628 0 0 Z " fill="#ffffff" transform="translate(3687,1891)"/>
<path d="M0 0 C0 42.57 0 85.14 0 129 C3.63 121.41 7.26 113.82 11 106 C27.97357938 76.82070062 48.40280327 51.74741606 76 32 C76.59683594 31.56381348 77.19367188 31.12762695 77.80859375 30.67822266 C94.57062632 18.49154081 113.85667573 8.12337945 134 3 C134.65210449 2.82791016 135.30420898 2.65582031 135.97607422 2.47851562 C168.76704577 -5.79897582 210.06238764 0.65578106 240 16 C239.43689232 21.97074497 237.66389951 26.91940021 235.390625 32.4453125 C235.00398682 33.4042189 234.61734863 34.36312531 234.21899414 35.35108948 C233.36051156 37.47796838 232.4984761 39.60341568 231.63342285 41.72763062 C229.44777101 47.0950905 227.28308492 52.47100393 225.11644745 57.84615898 C224.294478 59.88453597 223.47151973 61.92251194 222.64849854 63.96046448 C217.51262838 76.6863513 212.44049333 89.43737116 207.375 102.19140625 C206.75100437 103.76219814 206.75100437 103.76219814 206.11440277 105.36472321 C202.3119816 114.93677579 198.51112135 124.50944762 194.71203613 134.08282471 C192.69457293 139.16631706 190.6753766 144.24911801 188.6550293 149.33146477 C187.90057779 151.23033535 187.14678434 153.12946754 186.39367676 155.02887154 C185.35552779 157.64708596 184.31522522 160.26443475 183.27441406 162.8815918 C182.97014622 163.65053331 182.66587837 164.41947483 182.35239029 165.21171761 C181.02458652 168.54454646 179.68839339 171.83146049 178 175 C172.68669605 173.46504553 168.1857438 171.02501552 163.375 168.375 C123.66554133 147.06993493 78.43058059 138.19680722 34.51953125 150.8515625 C21.59759291 155.06804404 7.81253459 160.94428123 0.25390625 172.89868164 C-2.73858607 180.30008935 -2.41184163 188.68178678 -2.75 196.5625 C-2.85809766 198.65471009 -2.96792233 200.74683157 -3.0793457 202.83886719 C-3.36736047 208.42416415 -3.61567961 214.0105432 -3.85284424 219.59820557 C-3.99712837 222.93361668 -4.1526964 226.2683033 -4.31201172 229.60302734 C-8.29488337 313.77758158 -6.21324991 398.18947928 2 482.0625 C2.07168396 482.82499054 2.14336792 483.58748108 2.21722412 484.37307739 C4.11020122 504.18883581 8.22456573 523.54085367 20 540 C20.46019531 540.65742188 20.92039062 541.31484375 21.39453125 541.9921875 C28.50656081 551.21528059 40.27472184 556.83165959 51.60473633 558.54516602 C52.950626 558.70419591 54.29728926 558.85677185 55.64453125 559.00390625 C56.37872787 559.08704071 57.1129245 559.17017517 57.86936951 559.25582886 C66.75069291 560.23403383 75.65530955 560.93177866 84.5625 561.625 C86.26760151 561.76012186 87.97267979 561.89553725 89.67773438 562.03125 C93.78486617 562.35806689 97.89239944 562.67892648 102 563 C102 573.89 102 584.78 102 596 C-16.8 596 -135.6 596 -258 596 C-258 585.11 -258 574.22 -258 563 C-242.8125 560.8125 -242.8125 560.8125 -238.10864258 560.15942383 C-225.44847472 558.25536679 -214.37138835 554.76760098 -204 547 C-202.700625 546.13375 -202.700625 546.13375 -201.375 545.25 C-186.23153538 530.90355984 -181.59366165 509.51715792 -179.484375 489.6328125 C-179.29452782 487.87741905 -179.29452782 487.87741905 -179.10084534 486.08656311 C-177.84359448 474.10202134 -176.95384023 462.0989243 -176.17456055 450.07495117 C-175.94270543 446.51737204 -175.69765368 442.96088865 -175.45117188 439.40429688 C-172.77501578 399.73236698 -171.65392404 360.04323796 -171.73925781 320.28564453 C-171.75066561 314.93823731 -171.74383566 309.59102905 -171.73238277 304.2436285 C-171.66118995 264.99802056 -172.84584495 225.81853245 -175.9375 186.6875 C-176.02370605 185.56737518 -176.10991211 184.44725037 -176.19873047 183.29318237 C-178.35849617 132.24836902 -178.35849617 132.24836902 -203.08984375 89.33203125 C-214.64201771 80.07478581 -227.43199529 77.90744607 -241.8125 76.9375 C-244.02756016 76.7830203 -246.24241722 76.62559258 -248.45703125 76.46484375 C-249.42616455 76.399021 -250.39529785 76.33319824 -251.39379883 76.26538086 C-254 76 -254 76 -258 75 C-258 67.08 -258 59.16 -258 51 C-253.49632918 49.49877639 -249.43121599 48.39122585 -244.81317139 47.48027039 C-244.11140565 47.34072601 -243.40963992 47.20118163 -242.68660855 47.05740863 C-240.3448511 46.5927414 -238.00203464 46.13365948 -235.65917969 45.67456055 C-233.97223383 45.34101852 -232.2853561 45.00713182 -230.59854126 44.67292786 C-226.00439161 43.76372601 -221.4092979 42.85937986 -216.81402493 41.95587516 C-211.93562231 40.99583706 -207.05810287 40.03133223 -202.18048096 39.06733704 C-192.86761313 37.2274813 -183.55395695 35.39164838 -174.24001622 33.55723268 C-163.90793217 31.52209306 -153.57672141 29.48253892 -143.24559307 27.44255424 C-130.20143956 24.86689163 -117.15709863 22.29219088 -104.11169434 19.72286987 C-103.13704711 19.53090637 -102.16239989 19.33894286 -101.15821791 19.14116228 C-97.27708376 18.37676012 -93.3959492 17.61236007 -89.51480389 16.84801459 C-76.98684463 14.38051255 -64.46077428 11.90369979 -51.93662977 9.41691005 C-47.24834555 8.48638727 -42.55968338 7.5577707 -37.87100434 6.62923962 C-33.58493838 5.78019333 -29.29952688 4.92794163 -25.01460075 4.07316256 C-21.84267842 3.44139594 -18.66980187 2.81445557 -15.49707031 2.18676758 C-14.37520576 1.96180666 -13.25334122 1.73684574 -12.09748077 1.50506783 C-11.07831322 1.30434103 -10.05914566 1.10361423 -9.00909424 0.89680481 C-8.13127918 0.72222653 -7.25346413 0.54764826 -6.34904861 0.36777973 C-4 0 -4 0 0 0 Z " fill="#ffffff" transform="translate(1819,1859)"/>
</svg>
