<?xml version="1.0" encoding="UTF-8"?>
<svg version="1.1" xmlns="http://www.w3.org/2000/svg" width="1042" height="280">
<path d="M0 0 C0 6.6 0 13.2 0 20 C6.27 20 12.54 20 19 20 C19 22.31 19 24.62 19 27 C12.73 27 6.46 27 0 27 C0.08556248 35.7798927 0.1793441 44.55959257 0.28752708 53.33923626 C0.33743569 57.41614579 0.38376611 61.4930301 0.421875 65.57006836 C0.45879662 69.50592374 0.50517505 73.44156525 0.55806351 77.37723732 C0.57657097 78.8774623 0.59169237 80.37773307 0.60334396 81.87802696 C0.62026923 83.98230177 0.6493183 86.08609067 0.68115234 88.19018555 C0.69447601 89.38709518 0.70779968 90.58400482 0.7215271 91.81718445 C0.99762525 94.97285774 1.54940297 97.19496894 3 100 C6.12706959 101.5635348 9.57982443 101.39958487 13 101 C13.99 100.34 14.98 99.68 16 99 C16.99 99 17.98 99 19 99 C19.03867187 97.96552734 19.03867187 97.96552734 19.078125 96.91015625 C19.57174276 88.73180739 20.89201641 81.56534784 27.0625 75.75 C35.04514529 69.65842162 44.73319684 66.9600768 54.27441406 64.31835938 C60.96275413 62.36173744 65.37297429 59.92864628 68.875 53.625 C71.02797199 46.6876458 70.2422245 40.44815544 67 34 C64.0776618 30.53182277 60.39340605 28.09835151 56 27 C52.65915224 26.85071713 49.34138683 26.88321366 46 27 C46.9075 27.556875 47.815 28.11375 48.75 28.6875 C52.83777047 31.59610591 55.40501434 34.21504302 57 39 C57.77514301 45.55694743 56.87712917 49.65584898 53 55 C47.83019983 59.79152211 43.63691556 60.36898094 36.79296875 60.26953125 C32.38828018 59.8444634 30.45855998 58.82331427 27 56 C23.56496116 51.47106486 22.31495241 46.80883581 22.625 41.16015625 C23.71686216 34.87057527 27.77885908 30.56998184 32.54296875 26.63671875 C45.93029863 17.71892667 64.04214859 16.23657089 79.62890625 18.53515625 C89.48777797 20.62573971 97.29583756 23.35009665 103 32 C106.60906175 39.34955996 106.36221162 46.80877813 106.22265625 54.828125 C106.20892403 56.82522816 106.19520245 58.82233146 106.18211269 60.81943893 C106.1603916 63.5931765 106.12510753 66.36667094 106.0894165 69.14025879 C106.02727112 74.01127312 105.97488916 78.88231129 105.94029236 83.75360107 C105.92054736 86.34130519 105.89093303 88.92895714 105.85035706 91.51641846 C105.83560585 93.27414581 105.83560585 93.27414581 105.82055664 95.06738281 C105.80032188 96.60884979 105.80032188 96.60884979 105.77967834 98.18145752 C106.01178737 101.15079406 106.7516075 103.31175924 108 106 C111.3 105.67 114.6 105.34 118 105 C118 109 118 109 116.8203125 110.5625 C107.62244956 118.36160959 96.88072659 120.91646559 85 120 C78.01088606 118.50317459 73.95949266 114.93923899 70 109 C69.49210937 109.47050781 68.98421875 109.94101563 68.4609375 110.42578125 C60.99164206 117.18171701 54.59574611 120.39221878 44.4609375 120.20703125 C35.93140588 119.48946748 29.68164925 116.41740239 24 110 C21.92939028 106.63525921 21 104.92791315 21 101 C20.34 101 19.68 101 19 101 C18.6596875 102.0828125 18.6596875 102.0828125 18.3125 103.1875 C15.12836051 110.01065606 8.39778552 114.19338107 1.61328125 116.98046875 C-6.89629494 119.82590003 -15.11329357 120.01835836 -23.66796875 117.17578125 C-28.67312004 114.65224601 -32.00293783 110.48071702 -34.07174683 105.33346558 C-35.12395051 101.55487923 -35.24025455 98.35560182 -35.22705078 94.43408203 C-35.22734283 93.70168808 -35.22763489 92.96929413 -35.22793579 92.21470642 C-35.22655094 89.81228471 -35.21102997 87.41017952 -35.1953125 85.0078125 C-35.19157936 83.33487111 -35.18873381 81.66192752 -35.18673706 79.98898315 C-35.1791243 75.59954728 -35.15949619 71.2102451 -35.1373291 66.82086182 C-35.11681976 62.33632211 -35.10772448 57.85176066 -35.09765625 53.3671875 C-35.07624796 44.57806385 -35.04214065 35.78904859 -35 27 C-37.97 27 -40.94 27 -44 27 C-44 26.01 -44 25.02 -44 24 C-43.01902344 23.67128906 -42.03804687 23.34257812 -41.02734375 23.00390625 C-27.27665225 18.2274045 -15.35888888 12.005017 -4.953125 1.65234375 C-3 0 -3 0 0 0 Z M69 62 C60.24258953 71.07103674 54.60475188 77.76723146 54.72265625 90.56640625 C55.09341401 95.15649175 55.72337858 96.80960546 59 100 C63.17297924 102.66360377 64.90617525 103 70 103 C70 89.47 70 75.94 70 62 C69.67 62 69.34 62 69 62 Z " fill="#ffffff" transform="translate(244,106)"/>
<path d="M0 0 C15.18 0 30.36 0 46 0 C46.01458252 3.82625977 46.02916504 7.65251953 46.04418945 11.59472656 C46.09446757 24.21956265 46.16089948 36.84427003 46.23571491 49.4689827 C46.28069089 57.1253039 46.32010133 64.7815784 46.34643555 72.43798828 C46.36940112 79.11090062 46.40278283 85.78366538 46.44870156 92.45646071 C46.47265345 95.99006199 46.49136924 99.52351694 46.49761391 103.05719757 C46.50477816 107.00086008 46.53519608 110.94415557 46.56762695 114.88769531 C46.56619186 116.060858 46.56475677 117.23402069 46.5632782 118.44273376 C46.57581635 119.51682999 46.58835449 120.59092621 46.60127258 121.6975708 C46.60588155 122.6304253 46.61049051 123.5632798 46.61523914 124.52440262 C47.07490233 127.48193057 47.96314852 128.834625 50 131 C52.58498512 132.26847685 52.58498512 132.26847685 55 133 C55 133.99 55 134.98 55 136 C40.15 136 25.3 136 10 136 C9.67 132.7 9.34 129.4 9 126 C8.23429688 126.79664063 8.23429688 126.79664063 7.453125 127.609375 C0.17086138 134.68504958 -7.41736406 138.07706088 -17.625 138.4375 C-27.37456995 137.98924391 -35.09675341 135.02249654 -42 128 C-53.10085015 113.70981873 -54.24618433 95.3915543 -53 78 C-51.83667147 69.92844746 -49.28569852 61.96023218 -45 55 C-44.67773438 54.4225 -44.35546875 53.845 -44.0234375 53.25 C-38.51262005 44.3692582 -29.12206207 39.24869842 -19.265625 36.62109375 C-9.48981076 34.76181808 0.54936095 35.36624063 9 41 C9.33 29.12 9.66 17.24 10 5 C5.05 4.01 5.05 4.01 0 3 C0 2.01 0 1.02 0 0 Z M-12 47 C-14.68151171 50.71932502 -15.37973624 53.29808359 -15.40405273 57.85668945 C-15.41673691 59.01171463 -15.42942108 60.16673981 -15.44248962 61.35676575 C-15.43955399 62.59641586 -15.43661835 63.83606598 -15.43359375 65.11328125 C-15.4388356 66.39679977 -15.44407745 67.6803183 -15.44947815 69.00273132 C-15.45839715 71.71700891 -15.45600201 74.43099212 -15.44604492 77.14526367 C-15.43458263 80.60525408 -15.45472879 84.06421968 -15.48396206 87.52407551 C-15.50684639 90.8455294 -15.49985124 94.16675065 -15.49609375 97.48828125 C-15.50732773 98.72185867 -15.51856171 99.9554361 -15.53013611 101.22639465 C-15.47322568 108.29083331 -14.8440102 113.01136637 -11 119 C-7.3904552 122.30015525 -3.86092289 122.46142313 0.84765625 122.2890625 C3.85701074 121.88490237 5.69237741 120.9579828 8 119 C10.19090036 115.60785757 10.26313938 112.75372082 10.29052734 108.76611328 C10.30328705 107.50445343 10.31604675 106.24279358 10.32919312 104.94290161 C10.33225086 103.5687068 10.33447857 102.19450993 10.3359375 100.8203125 C10.34236782 99.40550604 10.34909636 97.99070091 10.35610962 96.57589722 C10.36807459 93.61192748 10.37179128 90.64807421 10.37060547 87.68408203 C10.37040236 83.89548882 10.39769849 80.10764643 10.43214989 76.31923103 C10.45444393 73.39717208 10.45844226 70.47529308 10.45738602 67.55315781 C10.45973845 66.15696501 10.46854187 64.76076699 10.48405075 63.36465836 C10.50375675 61.40742994 10.49533838 59.44998035 10.48583984 57.49267578 C10.4901149 55.82532883 10.4901149 55.82532883 10.49447632 54.1242981 C9.7962236 49.71245963 7.77654554 46.39585721 4.25 43.625 C-2.37010741 41.78608127 -6.78889005 42.51602167 -12 47 Z " fill="#ffffff" transform="translate(800,88)"/>
<path d="M0 0 C15.18 0 30.36 0 46 0 C46.029729 5.64065552 46.029729 5.64065552 46.06005859 11.39526367 C46.12691319 23.80852664 46.20445371 36.22170347 46.28752708 48.63486767 C46.33764127 56.16223813 46.38408431 63.68959777 46.421875 71.21704102 C46.45482405 77.77823251 46.49467135 84.3393397 46.54279006 90.90043813 C46.56802614 94.37424146 46.5898159 97.84798907 46.60334396 101.32185936 C46.61857796 105.20059559 46.64921327 109.07912724 46.68115234 112.95776367 C46.68331253 114.10862961 46.68547272 115.25949554 46.68769836 116.44523621 C46.69886185 117.50387878 46.71002533 118.56252136 46.7215271 119.65324402 C46.72705786 120.57042804 46.73258862 121.48761206 46.73828697 122.43258953 C47.03262283 125.32003071 47.6677147 127.42218953 49 130 C52.01696409 131.84274976 52.01696409 131.84274976 55 133 C55 133.99 55 134.98 55 136 C40.48 136 25.96 136 11 136 C10.67 132.37 10.34 128.74 10 125 C9.54625 125.70125 9.0925 126.4025 8.625 127.125 C2.48841036 133.84602675 -5.41032871 137.40192752 -14.3671875 138.21484375 C-24.4499956 138.60747646 -32.5410382 135.78999662 -40 129 C-51.34199907 117.65800093 -52.72391402 101.53424134 -53.00683594 86.32568359 C-52.96130214 70.83443448 -47.99467392 57.49437802 -37.3828125 46.29296875 C-31.49667063 40.7307055 -23.13154045 36.49784942 -15 36 C-14.12859375 35.938125 -13.2571875 35.87625 -12.359375 35.8125 C-3.68175778 35.45649519 3.72294821 37.14863214 11 42 C10.67 30.12 10.34 18.24 10 6 C5.02373118 4.33106898 5.02373118 4.33106898 0 3 C0 2.01 0 1.02 0 0 Z M-11 46 C-14.38920576 50.5578974 -15.11908714 54.60053245 -15.16113281 60.17651367 C-15.17074036 61.20826218 -15.1803479 62.24001068 -15.19024658 63.30302429 C-15.19449646 64.41345596 -15.19874634 65.52388763 -15.203125 66.66796875 C-15.20882507 67.81735428 -15.21452515 68.96673981 -15.22039795 70.1509552 C-15.22984334 72.58443279 -15.2363801 75.01792315 -15.24023438 77.45141602 C-15.24991764 81.15599199 -15.28093713 84.86000784 -15.3125 88.56445312 C-15.31903265 90.93228838 -15.32428209 93.3001276 -15.328125 95.66796875 C-15.3404718 96.76827927 -15.3528186 97.86858978 -15.36553955 99.00224304 C-15.34607461 105.79632461 -15.15699599 113.09786562 -10.68951416 118.61979675 C-7.39275582 121.64919334 -4.44631345 123 0 123 C4.50025402 121.68096003 7.65928773 120.16811468 10.19485474 116.11328125 C12.0922751 111.13308318 11.54201013 105.53140007 11.49609375 100.28125 C11.49624892 98.93656333 11.49774089 97.59187622 11.50050354 96.24719238 C11.50188408 93.43623961 11.48938861 90.62579922 11.46655273 87.81494141 C11.43816829 84.22374922 11.44090963 80.63340753 11.45364285 77.0421524 C11.46061979 74.26760681 11.45278796 71.49325551 11.44038582 68.71873474 C11.4337155 66.75459901 11.43800075 64.79043587 11.44248962 62.82629395 C11.42980545 61.62484741 11.41712128 60.42340088 11.40405273 59.18554688 C11.39864975 58.13330933 11.39324677 57.08107178 11.38768005 55.99694824 C10.7474046 51.04731933 9.00701166 47.86969189 5.25 44.625 C-0.7122699 41.64386505 -5.50148467 42.37597853 -11 46 Z " fill="#ffffff" transform="translate(517,88)"/>
<path d="M0 0 C6.03662829 4.53389317 8.361463 10.76802512 9.5534668 18.05786133 C10.24942329 23.88804487 10.20941563 29.74381212 10.25323296 35.6082859 C10.26981812 37.74794739 10.29305344 39.88744542 10.31813049 42.02702332 C10.38847845 48.10411305 10.44925538 54.18126196 10.50024414 60.25854492 C10.53200998 63.98963671 10.57325567 67.72052511 10.62043953 71.45145226 C10.63644601 72.86959893 10.64877385 74.2877921 10.65734673 75.70600319 C10.66948406 77.68273892 10.69466534 79.65938162 10.72045898 81.63598633 C10.73592018 83.32187614 10.73592018 83.32187614 10.75169373 85.04182434 C10.8242746 88.02786362 10.8242746 88.02786362 13.0234375 90.81640625 C15.07347705 92.00873238 15.07347705 92.00873238 17.0234375 92.81640625 C17.0234375 93.80640625 17.0234375 94.79640625 17.0234375 95.81640625 C0.5234375 95.81640625 -15.9765625 95.81640625 -32.9765625 95.81640625 C-32.9765625 94.49640625 -32.9765625 93.17640625 -32.9765625 91.81640625 C-31.34024358 90.76748387 -29.67170387 89.76733922 -27.9765625 88.81640625 C-26.90385657 85.59828845 -26.83683353 83.24825984 -26.81542969 79.86376953 C-26.80582214 78.63884796 -26.7962146 77.41392639 -26.78631592 76.15188599 C-26.78146795 74.8134988 -26.77718912 73.47510946 -26.7734375 72.13671875 C-26.76768333 70.76292927 -26.76192563 69.3891398 -26.75616455 68.01535034 C-26.74566443 65.13539252 -26.73981527 62.25546254 -26.73632812 59.37548828 C-26.7308446 55.69116869 -26.7068159 52.00721888 -26.67835617 48.32301521 C-26.65970224 45.48508642 -26.65452275 42.64724624 -26.65299225 39.80926132 C-26.64997152 38.45132297 -26.64196253 37.09338596 -26.62880707 35.73550797 C-26.61169056 33.83302411 -26.61547973 31.93038723 -26.62011719 30.02783203 C-26.61647156 28.94656036 -26.61282593 27.8652887 -26.60906982 26.75125122 C-27.03145154 23.37805513 -27.91740031 21.50506088 -29.9765625 18.81640625 C-35.87579122 16.84999668 -40.40745938 17.49719134 -45.9765625 19.81640625 C-46.06925411 28.48296629 -46.1403228 37.14935563 -46.18381119 45.81630325 C-46.20468383 49.84076702 -46.23299485 53.8648916 -46.27832031 57.88916016 C-46.3217907 61.77304161 -46.34570204 65.65659687 -46.35607147 69.54070282 C-46.36346081 71.02230718 -46.37789068 72.50389374 -46.39948273 73.98535919 C-46.42853462 76.06126946 -46.43251806 78.13583312 -46.43066406 80.21191406 C-46.44398773 81.9839621 -46.44398773 81.9839621 -46.45758057 83.79180908 C-45.87649308 87.44563352 -44.84055872 88.55836202 -41.9765625 90.81640625 C-39.84347058 92.05152704 -39.84347058 92.05152704 -37.9765625 92.81640625 C-37.9765625 93.80640625 -37.9765625 94.79640625 -37.9765625 95.81640625 C-55.1365625 95.81640625 -72.2965625 95.81640625 -89.9765625 95.81640625 C-88.9765625 91.81640625 -88.9765625 91.81640625 -86.4765625 89.75390625 C-80.6728408 82.93453325 -82.81610054 70.08501237 -82.80859375 61.53125 C-82.80536969 60.18087226 -82.80200481 58.83049486 -82.79850769 57.4801178 C-82.79256675 54.66894725 -82.79066276 51.85780723 -82.79125977 49.04663086 C-82.79136159 45.47073067 -82.77766595 41.89502811 -82.76048756 38.31917477 C-82.74929678 35.53682072 -82.74734265 32.75451359 -82.74786949 29.97213936 C-82.74614046 28.02144519 -82.73535562 26.07076565 -82.72431946 24.12010193 C-82.62796954 13.79146246 -82.62796954 13.79146246 -84.9765625 3.81640625 C-87.91318922 1.59314946 -87.91318922 1.59314946 -90.9765625 0.81640625 C-90.9765625 -0.17359375 -90.9765625 -1.16359375 -90.9765625 -2.18359375 C-76.1265625 -2.18359375 -61.2765625 -2.18359375 -45.9765625 -2.18359375 C-45.9765625 2.76640625 -45.9765625 7.71640625 -45.9765625 12.81640625 C-45.1721875 11.62015625 -44.3678125 10.42390625 -43.5390625 9.19140625 C-33.46868676 -4.13356399 -14.56293682 -8.72049379 0 0 Z " fill="#ffffff" transform="translate(448.9765625,128.18359375)"/>
<path d="M0 0 C1.49152588 0.0002417 1.49152588 0.0002417 3.01318359 0.00048828 C14.36146175 0.17224014 25.59820578 2.02920096 36.125 6.375 C36.15413072 10.74998593 36.17184286 15.12494674 36.1875 19.5 C36.19587891 20.7375 36.20425781 21.975 36.21289062 23.25 C36.21611328 24.44882813 36.21933594 25.64765625 36.22265625 26.8828125 C36.22789307 27.98254395 36.23312988 29.08227539 36.23852539 30.21533203 C36.1258558 33.35118105 35.71126376 36.29559383 35.125 39.375 C32.77905273 39.12548828 32.77905273 39.12548828 30.125 38.375 C28.73461914 36.62841797 28.73461914 36.62841797 27.66015625 34.3671875 C27.25216797 33.54476562 26.84417969 32.72234375 26.42382812 31.875 C25.8118457 30.575625 25.8118457 30.575625 25.1875 29.25 C21.21127357 20.95509701 17.19473207 12.94647858 8.40234375 9.03125 C2.78306404 7.41197214 -2.74020199 7.66340066 -8.25 9.5 C-12.32166495 12.40833211 -15.26178079 15.53534238 -16.875 20.375 C-17.85865301 27.16096063 -16.82252679 32.19222858 -13 37.890625 C-8.68691552 42.93312818 -3.25219935 46.56690629 2.125 50.375 C37.45107118 75.78993372 37.45107118 75.78993372 40.125 90.375 C41.08990068 102.52241029 38.45529119 112.56912802 31.125 122.375 C21.57404105 133.02507725 7.27775935 139.15493454 -6.875 140.375 C-22.19922086 141.12025086 -36.4581882 138.28017479 -50.875 133.375 C-51.68066406 133.13394531 -52.48632812 132.89289063 -53.31640625 132.64453125 C-54.875 131.375 -54.875 131.375 -55.484375 128.41796875 C-55.53078125 127.14566406 -55.5771875 125.87335938 -55.625 124.5625 C-55.65392334 123.87414062 -55.68284668 123.18578125 -55.71264648 122.4765625 C-56.05206192 113.11736234 -55.96377078 103.73826904 -55.875 94.375 C-54.225 94.375 -52.575 94.375 -50.875 94.375 C-50.16537109 95.88126953 -50.16537109 95.88126953 -49.44140625 97.41796875 C-39.89402363 118.07387708 -39.89402363 118.07387708 -22.375 131.25 C-15.38975841 133.23565243 -9.27327226 132.85989775 -2.875 129.375 C1.04757072 125.55565482 2.97694688 121.58830098 3.23046875 116.0859375 C2.89046035 107.95092165 -0.36817188 102.67211746 -6.2265625 97.1640625 C-12.31239925 92.04765107 -18.8278353 87.50907376 -25.30859375 82.9140625 C-38.04718914 73.85937828 -49.70492897 65.31945669 -53.625 49.3125 C-54.7069807 36.5992268 -52.10961042 26.77916039 -44.125 16.6875 C-32.95836545 4.41553868 -16.02942161 -0.02455571 0 0 Z " fill="#ffffff" transform="translate(162.875,85.625)"/>
<path d="M0 0 C5.86711583 5.13037754 8.63233373 11.35102033 9.243927 19.08435059 C9.31307529 22.66991861 9.28505546 26.24244465 9.22265625 29.828125 C9.20892403 31.82522816 9.19520245 33.82233146 9.18211269 35.81943893 C9.1603916 38.5931765 9.12510753 41.36667094 9.0894165 44.14025879 C9.02727112 49.01127312 8.97488916 53.88231129 8.94029236 58.75360107 C8.92054736 61.34130519 8.89093303 63.92895714 8.85035706 66.51641846 C8.83560585 68.27414581 8.83560585 68.27414581 8.82055664 70.06738281 C8.8070668 71.09502747 8.79357697 72.12267212 8.77967834 73.18145752 C9.01178737 76.15079406 9.7516075 78.31175924 11 81 C15.95 80.505 15.95 80.505 21 80 C21 84 21 84 19.8203125 85.5625 C10.62244956 93.36160959 -0.11927341 95.91646559 -12 95 C-18.98911394 93.50317459 -23.04050734 89.93923899 -27 84 C-27.50789062 84.47050781 -28.01578125 84.94101563 -28.5390625 85.42578125 C-36.00835794 92.18171701 -42.40425389 95.39221878 -52.5390625 95.20703125 C-60.99735538 94.49546058 -67.48023829 91.51179262 -73 85 C-77.63999161 78.28905168 -77.95316339 70.92992632 -77 63 C-75.29749694 56.24035769 -71.83292876 51.73483198 -66 48 C-58.71575716 43.86673436 -50.75525147 41.54156705 -42.72558594 39.31835938 C-36.03724587 37.36173744 -31.62702571 34.92864628 -28.125 28.625 C-25.97202801 21.6876458 -26.7577755 15.44815544 -30 9 C-32.9223382 5.53182277 -36.60659395 3.09835151 -41 2 C-44.34084776 1.85071713 -47.65861317 1.88321366 -51 2 C-50.0925 2.556875 -49.185 3.11375 -48.25 3.6875 C-44.16222953 6.59610591 -41.59498566 9.21504302 -40 14 C-39.15210788 20.14116147 -40.06336669 24.26800408 -43.6328125 29.33984375 C-46.6796016 33.03951622 -49.63639396 34.77041406 -54.453125 35.23828125 C-60.91711377 35.40981168 -64.91654574 35.14975858 -70 31 C-73.43503884 26.47106486 -74.68504759 21.80883581 -74.375 16.16015625 C-73.28313784 9.87057527 -69.22114092 5.56998184 -64.45703125 1.63671875 C-47.81256998 -9.45076817 -16.91086146 -12.00748382 0 0 Z M-28 37 C-36.75741047 46.07103674 -42.39524812 52.76723146 -42.27734375 65.56640625 C-41.90658599 70.15649175 -41.27662142 71.80960546 -38 75 C-33.82702076 77.66360377 -32.09382475 78 -27 78 C-27 64.47 -27 50.94 -27 37 C-27.33 37 -27.66 37 -28 37 Z " fill="#ffffff" transform="translate(649,131)"/>
<path d="M0 0 C14.85 0 29.7 0 45 0 C44.97679687 6.13851562 44.95359375 12.27703125 44.9296875 18.6015625 C44.91946685 22.49349382 44.90983879 26.38540856 44.90234375 30.27734375 C44.89039435 36.45299726 44.87626716 42.62859138 44.84912109 48.80419922 C44.82736947 53.78383408 44.81542644 58.76340524 44.81024551 63.74308395 C44.80655394 65.64165626 44.79934522 67.54022514 44.78853989 69.43877029 C44.77399421 72.10069528 44.77202335 74.76235799 44.77294922 77.42431641 C44.76575867 78.20690826 44.75856812 78.98950012 44.75115967 79.79580688 C44.76779267 84.22347461 45.08541396 87.97308969 47 92 C50.52451159 93.46022435 50.52451159 93.46022435 54 94 C54.33 95.32 54.66 96.64 55 98 C37.18 98 19.36 98 1 98 C2 94 2 94 4.52603149 91.7472229 C7.69359396 88.2297973 7.68411768 85.55081662 7.58349609 81.04443359 C7.58583252 80.25848312 7.58816895 79.47253265 7.59057617 78.6627655 C7.59218654 76.07397244 7.55820551 73.4869767 7.5234375 70.8984375 C7.5166459 69.09673709 7.51192502 67.29502778 7.50918579 65.49331665 C7.49578509 60.75621272 7.45149906 56.01986013 7.40161133 51.28302002 C7.3661897 47.41223224 7.3531286 43.54152003 7.34119225 39.67059898 C7.32641079 35.05899782 7.30118912 30.44747675 7.2734375 25.8359375 C7.26852673 24.95460522 7.26361595 24.07327293 7.25855637 23.16523361 C7.24229322 20.67565939 7.21888922 18.1862665 7.19287109 15.69677734 C7.18648117 14.58862419 7.18648117 14.58862419 7.17996216 13.45808411 C7.14084687 10.37248805 6.98341919 7.95025757 6 5 C2.99152582 3.77479736 2.99152582 3.77479736 0 3 C0 2.01 0 1.02 0 0 Z " fill="#ffffff" transform="translate(666,126)"/>
<path d="M0 0 C25.08 0 50.16 0 76 0 C76 7.59 76 15.18 76 23 C77.65 21.35 79.3 19.7 81 18 C85.00037998 15.78926369 88.47270351 15.5957771 93 16 C97.22753492 17.82552644 99.03103294 19.88275479 101 24 C101.31888452 26.85591605 101.48775347 29.50672929 101.51171875 32.36328125 C101.52966995 33.15526413 101.54762115 33.94724701 101.56611633 34.76322937 C101.62006838 37.27959962 101.65406563 39.79578185 101.6875 42.3125 C101.72068651 44.02411462 101.75517741 45.73570448 101.79101562 47.44726562 C101.87578582 51.63137442 101.94266843 55.81542893 102 60 C103.485 60.495 103.485 60.495 105 61 C105 61.33 105 61.66 105 62 C97.08 62 89.16 62 81 62 C81.66 61.01 82.32 60.02 83 59 C83.2774565 55.6997236 83.2774565 55.6997236 83.1953125 51.92578125 C83.19106766 50.90003242 83.19106766 50.90003242 83.18673706 49.8535614 C83.17555684 47.67302835 83.15045691 45.49290855 83.125 43.3125 C83.11496738 41.83268823 83.10584202 40.35287001 83.09765625 38.87304688 C83.07562481 35.248564 83.04111002 31.62432234 83 28 C79.52852158 27.25042843 79.52852158 27.25042843 76 27 C76.06885413 31.5029078 76.1568066 36.00488488 76.26245117 40.50708008 C76.29569818 42.03855059 76.32373093 43.57014356 76.34643555 45.10180664 C76.37998718 47.30407887 76.4322991 49.50522912 76.48828125 51.70703125 C76.49467117 52.39150833 76.5010611 53.07598541 76.50764465 53.78120422 C76.6396279 58.05150522 76.81256897 58.81256897 80 62 C71.75 62 63.5 62 55 62 C55.99 60.35 56.98 58.7 58 57 C58.44711019 54.42397912 58.44711019 54.42397912 58.38818359 51.70654297 C58.39764008 50.6755246 58.40709656 49.64450623 58.4168396 48.58224487 C58.40773056 46.92891647 58.40773056 46.92891647 58.3984375 45.2421875 C58.40274277 43.53218063 58.40274277 43.53218063 58.40713501 41.78762817 C58.40917372 39.38201398 58.40365743 36.97638313 58.39111328 34.57080078 C58.37502817 30.88146118 58.39098464 27.19321225 58.41015625 23.50390625 C58.40817437 21.16666424 58.40433183 18.82942292 58.3984375 16.4921875 C58.40451019 15.3859201 58.41058289 14.27965271 58.4168396 13.13986206 C58.40738312 12.11514801 58.39792664 11.09043396 58.38818359 10.03466797 C58.38460342 8.68162064 58.38460342 8.68162064 58.38095093 7.30123901 C58.15941058 4.57728186 58.15941058 4.57728186 55 2 C55 6.95 55 11.9 55 17 C54.01 17 53.02 17 52 17 C51.60167969 16.22914062 51.20335937 15.45828125 50.79296875 14.6640625 C50.26316406 13.66117188 49.73335938 12.65828125 49.1875 11.625 C48.40439453 10.12839844 48.40439453 10.12839844 47.60546875 8.6015625 C46.10835316 5.77123883 46.10835316 5.77123883 43 4 C40.67612053 3.60612212 38.34206251 3.26513915 36 3 C36.06687417 10.49340813 36.15663071 17.98628931 36.26245117 25.47924805 C36.2957461 28.02931456 36.32376363 30.57945559 36.34643555 33.12963867 C36.379897 36.79117649 36.43220981 40.45202864 36.48828125 44.11328125 C36.49467117 45.2571077 36.5010611 46.40093414 36.50764465 47.579422 C36.53733589 49.17073189 36.53733589 49.17073189 36.56762695 50.79418945 C36.58428154 52.19650566 36.58428154 52.19650566 36.60127258 53.62715149 C37.07497605 56.44618655 37.73176705 57.31005483 40 59 C40.99 59.33 41.98 59.66 43 60 C43 60.66 43 61.32 43 62 C32.77 62 22.54 62 12 62 C12 61.34 12 60.68 12 60 C12.81139938 59.57301315 13.62279877 59.14602631 14.45878601 58.70610046 C17.21437485 57.26139055 17.21437485 57.26139055 17.63923645 54.58918762 C17.64589828 53.63654526 17.65256012 52.68390289 17.65942383 51.70239258 C17.67906693 50.62149857 17.69871002 49.54060455 17.71894836 48.42695618 C17.71501572 47.26125595 17.71108307 46.09555573 17.70703125 44.89453125 C17.72215256 43.70018967 17.73727386 42.50584808 17.75285339 41.27531433 C17.79590004 37.4541867 17.80458533 33.63384645 17.8125 29.8125 C17.83563091 27.22458819 17.86099328 24.63669529 17.88867188 22.04882812 C17.95169208 15.69921143 17.98649149 9.34990454 18 3 C12.56959936 3.43501242 12.56959936 3.43501242 8.3125 6.625 C5.90556786 9.90862928 3.9323737 13.42153019 2 17 C1.34 17 0.68 17 0 17 C0 11.39 0 5.78 0 0 Z " fill="#ffffff" transform="translate(299,45)"/>
<path d="M0 0 C3.84534619 1.81367802 7.20137355 4.14008594 10.68359375 6.5625 C13.05711107 8.03544161 15.40348886 8.98672736 18 10 C18.99 10.66 19.98 11.32 21 12 C21.33 11.34 21.66 10.68 22 10 C27.88761439 12.38308202 32.15272652 16.30545303 35 22 C36.32 21.67 37.64 21.34 39 21 C39 19.02 39 17.04 39 15 C39.66 14.67 40.32 14.34 41 14 C42.32 16.97 43.64 19.94 45 23 C45.33 22.34 45.66 21.68 46 21 C47.98 21.33 49.96 21.66 52 22 C52 21.67 52 21.34 52 21 C52.71542969 20.90203125 53.43085937 20.8040625 54.16796875 20.703125 C61.04502225 19.67112215 67.48370756 18.07164498 74.08984375 15.90234375 C87.35594214 11.78896291 102.74646886 12.76975843 115.12890625 19.0859375 C116.8125 20.125 116.8125 20.125 119 22 C119 22.66 119 23.32 119 24 C114.71 24 110.42 24 106 24 C106 24.66 106 25.32 106 26 C105.00419922 26.09087891 105.00419922 26.09087891 103.98828125 26.18359375 C99.60041998 26.59996015 95.30808574 27.04264761 91 28 C89.4221875 28.2475 89.4221875 28.2475 87.8125 28.5 C85.05891181 28.85231278 85.05891181 28.85231278 83 30 C83.474375 30.7425 83.94875 31.485 84.4375 32.25 C85.79646914 34.64178568 86.42045741 36.36673854 87 39 C85.84775972 38.07038578 84.70340824 37.1309875 83.5625 36.1875 C82.92441406 35.66542969 82.28632812 35.14335938 81.62890625 34.60546875 C80 33 80 33 79 30 C78.26394531 30.33773437 77.52789063 30.67546875 76.76953125 31.0234375 C75.79371094 31.46945313 74.81789063 31.91546875 73.8125 32.375 C72.84957031 32.81585938 71.88664063 33.25671875 70.89453125 33.7109375 C63.66666667 36.92982456 63.66666667 36.92982456 59.4375 37.375 C55.91996868 37.67043612 55.91996868 37.67043612 53.9375 40.125 C52.9784375 41.053125 52.9784375 41.053125 52 42 C48.84354192 41.86848091 46.66441947 41.35175149 43.875 39.875 C42.01679182 38.79844318 42.01679182 38.79844318 39.875 39.3125 C37.9478068 39.97944346 37.9478068 39.97944346 36 41 C36.309375 40.360625 36.61875 39.72125 36.9375 39.0625 C38.33723729 35.02796312 38.61918821 31.2523983 39 27 C34.71 26.67 30.42 26.34 26 26 C25.01 22.37 24.02 18.74 23 15 C20.36 15.33 17.72 15.66 15 16 C15 16.99 15 17.98 15 19 C17.31 19.33 19.62 19.66 22 20 C20.02 20.99 20.02 20.99 18 22 C18.33 23.32 18.66 24.64 19 26 C17.68 26.33 16.36 26.66 15 27 C15.99 27.66 16.98 28.32 18 29 C14.65854032 29.23312509 12.28416126 29.10501612 9.125 27.9375 C7 26 7 26 6.8125 22.5625 C6.874375 21.386875 6.93625 20.21125 7 19 C6.06716704 16.79932579 6.06716704 16.79932579 5 15 C5 14.01 5 13.02 5 12 C4.22224996 10.28617224 3.38159914 8.60029393 2.5 6.9375 C0 2.20833333 0 2.20833333 0 0 Z M45 29 C46.1678266 32.81413002 46.1678266 32.81413002 49.125 35.3125 C49.74375 35.539375 50.3625 35.76625 51 36 C53.45579697 32.31435916 53.45579697 32.31435916 54 28 C49.34947128 27.73067479 49.34947128 27.73067479 45 29 Z " fill="#ffffff" transform="translate(879,86)"/>
<path d="M0 0 C0.495 1.485 0.495 1.485 1 3 C-0.22038036 4.45126313 -1.44676363 5.8984359 -2.71875 7.3046875 C-4.76248769 10.0089014 -5.27755454 12.71615699 -6 16 C-6.66 16 -7.32 16 -8 16 C-7.5875 16.804375 -7.175 17.60875 -6.75 18.4375 C-5.6848703 23.49686608 -7.62077199 26.57581569 -10 31 C-10.66 31 -11.32 31 -12 31 C-11.97679687 31.77085937 -11.95359375 32.54171875 -11.9296875 33.3359375 C-11.91164063 34.33882812 -11.89359375 35.34171875 -11.875 36.375 C-11.85179687 37.37273437 -11.82859375 38.37046875 -11.8046875 39.3984375 C-12 42 -12 42 -14 44 C-16.18019305 37.32315878 -17.19585333 31.5914475 -14 25 C-14.969375 24.896875 -15.93875 24.79375 -16.9375 24.6875 C-28.4235385 22.9599251 -28.4235385 22.9599251 -32.3125 18.125 C-32.869375 17.09375 -33.42625 16.0625 -34 15 C-35.31543279 13.31916921 -36.64316249 11.6475884 -38 10 C-37.938125 11.216875 -37.87625 12.43375 -37.8125 13.6875 C-37.84033877 17.61972606 -38.26227807 19.99733724 -41 23 C-46.96721311 25.3442623 -46.96721311 25.3442623 -51 24 C-52.1875 21.9375 -52.1875 21.9375 -53 20 C-53.66 20 -54.32 20 -55 20 C-57.06404327 24.26957337 -57.35283215 28.27574182 -57.5 32.9375 C-57.65869075 37.93625871 -58.17310775 42.29280586 -60 47 C-60.66 47 -61.32 47 -62 47 C-62.66 41.06 -63.32 35.12 -64 29 C-64.99 29 -65.98 29 -67 29 C-67.84800767 36.692641 -68.12152487 44.26291674 -68 52 C-68.66 51.67 -69.32 51.34 -70 51 C-70.88671875 48.015625 -70.88671875 48.015625 -71.6875 44.25 C-71.95949219 43.01765625 -72.23148438 41.7853125 -72.51171875 40.515625 C-72.96515396 37.25089146 -72.89155218 35.13539156 -72 32 C-75.00404583 33.46709215 -77.82857148 34.87874568 -80.5625 36.8125 C-83 38 -83 38 -85.8125 37.1875 C-86.534375 36.795625 -87.25625 36.40375 -88 36 C-88.2475 36.61875 -88.495 37.2375 -88.75 37.875 C-90.20628639 40.35068687 -91.37812506 40.95125002 -94 42 C-95.625 39.75 -95.625 39.75 -97 37 C-95.85296796 33.71531734 -94.03551258 31.91782507 -91.375 29.75 C-90.74335937 29.22921875 -90.11171875 28.7084375 -89.4609375 28.171875 C-88.73777344 27.59179688 -88.73777344 27.59179688 -88 27 C-88.99 27 -89.98 27 -91 27 C-93.00309329 26.68578929 -95.00371336 26.3548954 -97 26 C-94.5 24 -94.5 24 -92 22 C-91.175 21.2575 -90.35 20.515 -89.5 19.75 C-86.6887101 17.78209707 -85.35201791 17.61691224 -82 18 C-81.7525 17.38125 -81.505 16.7625 -81.25 16.125 C-79.77952822 13.62519797 -78.58596924 13.16683978 -76 12 C-76.34933594 12.60328125 -76.69867187 13.2065625 -77.05859375 13.828125 C-77.51363281 14.62734375 -77.96867188 15.4265625 -78.4375 16.25 C-78.88996094 17.03890625 -79.34242188 17.8278125 -79.80859375 18.640625 C-80.89311602 20.78833468 -81.53148716 22.65205061 -82 25 C-81.01 24.67 -80.02 24.34 -79 24 C-78.9071875 23.01 -78.9071875 23.01 -78.8125 22 C-77.67863503 17.81342164 -75.40368936 14.57449008 -73 11 C-69.5 14.5 -69.5 14.5 -66 18 C-64.824375 17.0409375 -64.824375 17.0409375 -63.625 16.0625 C-59.99223662 13.58285721 -56.58075498 13.48367563 -52.26953125 13.37109375 C-49.5093296 12.9197699 -48.67375181 12.20230501 -47 10 C-46.67 9.01 -46.34 8.02 -46 7 C-47.98 7 -49.96 7 -52 7 C-51 5 -51 5 -48.63671875 4.1484375 C-47.66347656 3.89320313 -46.69023438 3.63796875 -45.6875 3.375 C-44.72199219 3.11460937 -43.75648438 2.85421875 -42.76171875 2.5859375 C-40 2 -40 2 -36 2 C-35.4225 3.155 -34.845 4.31 -34.25 5.5 C-33.87617187 6.22445312 -33.50234375 6.94890625 -33.1171875 7.6953125 C-32 10 -32 10 -31.1953125 12.2421875 C-30.32417559 14.50714346 -29.59506076 16.16192445 -28 18 C-25.35010439 18.94972259 -22.94151399 19.36177748 -20.14453125 19.6484375 C-19.08298828 19.82246094 -19.08298828 19.82246094 -18 20 C-17.505 20.99 -17.505 20.99 -17 22 C-15.515 22.495 -15.515 22.495 -14 23 C-13.896875 22.05125 -13.79375 21.1025 -13.6875 20.125 C-13 17 -13 17 -10 15 C-9.62875 13.39125 -9.62875 13.39125 -9.25 11.75 C-7.79231795 7.37695385 -6.12649516 5.96916992 -2.55859375 3.26171875 C-0.8598027 2.06444119 -0.8598027 2.06444119 0 0 Z M-49 14 C-49.33 15.65 -49.66 17.3 -50 19 C-48.68 18.67 -47.36 18.34 -46 18 C-46.66 16.68 -47.32 15.36 -48 14 C-48.33 14 -48.66 14 -49 14 Z M-66 22 C-66 22.33 -66 22.66 -66 23 C-64.35 23 -62.7 23 -61 23 C-61 22.67 -61 22.34 -61 22 C-62.65 22 -64.3 22 -66 22 Z M-83 30 C-83 30.33 -83 30.66 -83 31 C-81.02 31 -79.04 31 -77 31 C-77 30.67 -77 30.34 -77 30 C-78.98 30 -80.96 30 -83 30 Z " fill="#ffffff" transform="translate(965,127)"/>
<path d="M0 0 C4.44768263 3.16073742 6.43512965 6.98100898 7.6875 12.19921875 C7.6875 14.50921875 7.6875 16.81921875 7.6875 19.19921875 C-0.2325 19.19921875 -8.1525 19.19921875 -16.3125 19.19921875 C-15.26918508 28.04544524 -15.26918508 28.04544524 -10.3125 33.19921875 C-7.20296621 34.75398565 -4.74983239 34.48566312 -1.3125 34.19921875 C1.90579104 32.27628357 1.90579104 32.27628357 4.6875 30.19921875 C5.6775 30.19921875 6.6675 30.19921875 7.6875 30.19921875 C5.46346433 35.31822823 3.58450539 39.16773922 -1.3125 42.19921875 C-8.506046 45.02161569 -16.34068818 45.42686968 -23.75 43.13671875 C-29.20849507 39.00956394 -32.51704695 34.87039751 -34.3125 28.19921875 C-35.16454574 20.30293439 -34.96623655 12.86784124 -30.3125 6.19921875 C-22.22056183 -2.7707808 -10.9610713 -6.29819621 0 0 Z M-13.3125 1.19921875 C-16.44519705 4.3319158 -16.36744397 7.17250298 -16.375 11.44921875 C-16.354375 12.68671875 -16.33375 13.92421875 -16.3125 15.19921875 C-13.6725 15.19921875 -11.0325 15.19921875 -8.3125 15.19921875 C-8.28555149 13.24096002 -8.26612782 11.28259649 -8.25 9.32421875 C-8.23839844 8.23367187 -8.22679687 7.143125 -8.21484375 6.01953125 C-8.11505697 3.24744329 -8.11505697 3.24744329 -9.3125 1.19921875 C-10.6325 1.19921875 -11.9525 1.19921875 -13.3125 1.19921875 Z " fill="#ffffff" transform="translate(438.3125,63.80078125)"/>
<path d="M0 0 C3.9285121 2.94424436 6.2584475 6.74018625 7.79296875 11.34375 C8.52785277 18.23479359 7.95593866 22.75660617 3.79296875 28.34375 C-0.7622061 32.92271167 -4.52784119 34.50123146 -10.95703125 34.65625 C-17.97948507 34.5884002 -21.50266091 33.04812034 -26.51953125 28.03125 C-29.91204708 22.62835442 -30.65387113 17.69103897 -29.74609375 11.484375 C-28.36143718 5.98588368 -24.76149574 2.45411599 -20.20703125 -0.65625 C-13.69698773 -4.27294084 -6.34964 -3.548701 0 0 Z " fill="#ffffff" transform="translate(742.20703125,126.65625)"/>
<path d="M0 0 C2.55078125 1.00390625 2.55078125 1.00390625 4.0703125 3.6015625 C4.49699219 4.74496094 4.92367187 5.88835938 5.36328125 7.06640625 C5.86660568 8.34942598 6.37461559 9.63061514 6.88671875 10.91015625 C7.15323242 11.58175781 7.41974609 12.25335938 7.69433594 12.9453125 C9.13135975 16.39941306 10.80283007 19.7282115 12.48828125 23.06640625 C12.82327637 23.7421167 13.15827148 24.41782715 13.50341797 25.11401367 C15.08372565 28.26589596 16.71869762 31.27418702 18.58203125 34.2734375 C24.2081233 43.43889483 24.63321666 51.51105684 24.55078125 62.00390625 C23.98875 61.71773437 23.42671875 61.4315625 22.84765625 61.13671875 C20.52207202 59.98974694 18.17307924 58.92550831 15.80078125 57.87890625 C15.0015625 57.52570313 14.20234375 57.1725 13.37890625 56.80859375 C12.47398437 56.41027344 12.47398437 56.41027344 11.55078125 56.00390625 C12.04578125 55.05515625 12.54078125 54.10640625 13.05078125 53.12890625 C15.05442852 48.4505789 14.92431886 44.01074693 14.55078125 39.00390625 C14.45667969 37.71871094 14.36257813 36.43351562 14.265625 35.109375 C13.71278613 30.89187701 12.10216373 27.88729267 9.86328125 24.25390625 C9.13509488 23.04863793 8.40988216 21.84156853 7.6875 20.6328125 C7.3270459 20.03227051 6.9665918 19.43172852 6.59521484 18.81298828 C4.43319961 15.06812319 2.62480869 11.14088607 0.77734375 7.234375 C-0.2493402 4.86707634 -0.2493402 4.86707634 -2.44921875 4.00390625 C-1.48312745 18.10883925 4.5556624 30.20976363 13.55078125 41.00390625 C13.22078125 41.66390625 12.89078125 42.32390625 12.55078125 43.00390625 C2.19505568 35.78627934 -2.878958 24.68839597 -6.44921875 13.00390625 C-7.17203641 21.49701372 -3.50124177 28.31338928 1.55078125 35.00390625 C3.9138706 37.60862866 6.29715577 40.18759949 8.72265625 42.734375 C10.55078125 45.00390625 10.55078125 45.00390625 10.55078125 48.00390625 C8.88411458 47.00390625 7.21744792 46.00390625 5.55078125 45.00390625 C4.37515625 44.38515625 4.37515625 44.38515625 3.17578125 43.75390625 C-3.71481559 39.16017503 -7.82789557 33.3633695 -11.44921875 26.00390625 C-10.85035745 33.48967247 -8.18970073 37.58512475 -2.69921875 42.50390625 C1.2561353 45.84216559 5.36339951 48.96359983 9.55078125 52.00390625 C5.60522039 53.3190932 4.48317924 52.3655474 0.80078125 50.56640625 C-6.53661157 46.71582767 -11.47151755 42.304426 -14.38671875 34.44140625 C-15.50323638 30.51997846 -15.70815575 27.06058589 -15.44921875 23.00390625 C-14.45921875 22.67390625 -13.46921875 22.34390625 -12.44921875 22.00390625 C-11.48463545 19.11015635 -11.37120572 17.3726562 -11.44921875 14.37890625 C-11.48696231 12.92106142 -11.4956759 11.46149942 -11.44921875 10.00390625 C-10.44921875 9.00390625 -10.44921875 9.00390625 -7.88671875 8.94140625 C-7.08234375 8.96203125 -6.27796875 8.98265625 -5.44921875 9.00390625 C-5.32546875 7.89015625 -5.20171875 6.77640625 -5.07421875 5.62890625 C-4.10484643 0.0065468 -4.10484643 0.0065468 0 0 Z " fill="#ffffff" transform="translate(891.44921875,39.99609375)"/>
<path d="M0 0 C0.66 0 1.32 0 2 0 C2.99 2.31 3.98 4.62 5 7 C9.34464536 6.39174965 13.67551867 5.73832608 18 5 C18 4.34 18 3.68 18 3 C19.65 2.67 21.3 2.34 23 2 C23.06058594 2.74765625 23.12117187 3.4953125 23.18359375 4.265625 C23.30927734 5.74289063 23.30927734 5.74289063 23.4375 7.25 C23.51871094 8.22453125 23.59992187 9.1990625 23.68359375 10.203125 C23.95074584 12.56461753 24.35371968 14.71901065 25 17 C24.34 17 23.68 17 23 17 C22.01 15.02 21.02 13.04 20 11 C19.608125 12.216875 19.21625 13.43375 18.8125 14.6875 C16.8844798 19.80173198 14.20958071 22.96886233 9.1875 25.3125 C8.465625 25.539375 7.74375 25.76625 7 26 C4.24331998 22.04476345 3.4682121 18.77576339 3 14 C-0.72614153 15.11854586 -0.72614153 15.11854586 -3 18 C-2.01 17.67 -1.02 17.34 0 17 C0.33 18.32 0.66 19.64 1 21 C-1.31 21 -3.62 21 -6 21 C-5.125 13.125 -5.125 13.125 -4 12 C-1.67182036 11.63239269 0.6618385 11.29758419 3 11 C2.319375 9.9275 1.63875 8.855 0.9375 7.75 C-1.03471002 4.33842267 -1.03471002 4.33842267 -0.75 1.5625 C-0.5025 1.046875 -0.255 0.53125 0 0 Z " fill="#ffffff" transform="translate(882,113)"/>
<path d="M0 0 C0.66 0 1.32 0 2 0 C2.13078141 5.56755165 1.74498598 10.66395297 0.6875 16.125 C0.56955078 16.80175781 0.45160156 17.47851562 0.33007812 18.17578125 C-0.49296708 22.54003119 -1.84517759 26.12494122 -4 30 C-3.01 30 -2.02 30 -1 30 C-0.835 30.94875 -0.67 31.8975 -0.5 32.875 C0.62222102 36.08126412 0.62222102 36.08126412 2.9140625 36.84375 C4.92184864 37.32618625 6.96141284 37.67119562 9 38 C9 38.66 9 39.32 9 40 C10.32 40.33 11.64 40.66 13 41 C13 41.66 13 42.32 13 43 C4.42 43 -4.16 43 -13 43 C-12.67 42.01 -12.34 41.02 -12 40 C-9.36 40 -6.72 40 -4 40 C-4.30035156 39.39671875 -4.60070312 38.7934375 -4.91015625 38.171875 C-5.48056641 36.97304687 -5.48056641 36.97304687 -6.0625 35.75 C-6.44535156 34.96109375 -6.82820312 34.1721875 -7.22265625 33.359375 C-8.11691578 30.64514004 -7.95179036 29.64732946 -7 27 C-6.7628125 26.27683594 -6.525625 25.55367187 -6.28125 24.80859375 C-6.0234375 24.02613281 -5.765625 23.24367187 -5.5 22.4375 C-4.34043371 18.66333472 -3.75785164 15.18760947 -3.5 11.25 C-3.1993674 6.74051095 -2.37819695 3.82579509 0 0 Z " fill="#ffffff" transform="translate(895,180)"/>
<path d="M0 0 C2 3 2 3 2 6 C2.99 5.67 3.98 5.34 5 5 C4.47064235 10.84254004 3.24333055 15.69645778 1.0625 21.125 C0.53157125 22.48138732 0.00160731 23.83815272 -0.52734375 25.1953125 C-0.7785498 25.83500977 -1.02975586 26.47470703 -1.28857422 27.13378906 C-2.27766192 29.72836229 -3.14804613 32.35770829 -4 35 C-5.60258331 30.99354172 -4.27217434 27.63150436 -3.125 23.6875 C-0.96051862 15.7645427 -0.23569668 8.20224442 0 0 Z " fill="#fff" transform="translate(900,171)"/>
<path d="M0 0 C0.96679688 0.00902344 1.93359375 0.01804687 2.9296875 0.02734375 C3.65414062 0.03894531 4.37859375 0.05054687 5.125 0.0625 C1.58250352 2.42416432 -0.53913084 2.47667454 -4.75 2.875 C-11.40437997 3.60155297 -17.08797443 5.38052134 -23.265625 8.0390625 C-25.875 9.0625 -25.875 9.0625 -28.875 9.0625 C-28.545 8.0725 -28.215 7.0825 -27.875 6.0625 C-25.29700296 5.03367996 -22.84353648 4.19972836 -20.1875 3.4375 C-19.47916016 3.2209375 -18.77082031 3.004375 -18.04101562 2.78125 C-12.00710603 0.97609145 -6.32721394 -0.07716115 0 0 Z " fill="#fff" transform="translate(963.875,96.9375)"/>
<path d="M0 0 C3.23033539 2.15355692 4.02464895 3.42776721 5.75 6.8125 C6.19859375 7.66457031 6.6471875 8.51664063 7.109375 9.39453125 C8.13318122 12.38961349 7.88260245 14.00238069 7 17 C5.38869156 13.82255999 3.86627821 10.61046325 2.375 7.375 C1.92898438 6.41335937 1.48296875 5.45171875 1.0234375 4.4609375 C0 2 0 2 0 0 Z " fill="#fff" transform="translate(932,128)"/>
<path d="M0 0 C-2.85478326 1.90318884 -4.41941308 2.4619099 -7.6875 3.125 C-8.49574219 3.29257813 -9.30398438 3.46015625 -10.13671875 3.6328125 C-10.75160156 3.75398437 -11.36648438 3.87515625 -12 4 C-11.67 2.68 -11.34 1.36 -11 0 C-9.54263913 -0.19491452 -8.08405407 -0.38069358 -6.625 -0.5625 C-5.81289063 -0.66691406 -5.00078125 -0.77132812 -4.1640625 -0.87890625 C-2 -1 -2 -1 0 0 Z " fill="#fff" transform="translate(950,173)"/>
<path d="M0 0 C3.3 0 6.6 0 10 0 C10 0.66 10 1.32 10 2 C6.7 2.33 3.4 2.66 0 3 C0 2.01 0 1.02 0 0 Z " fill="#fff" transform="translate(924,103)"/>
</svg>
