<?xml version="1.0" encoding="UTF-8"?>
<svg version="1.1" xmlns="http://www.w3.org/2000/svg" width="395" height="296">
<path d="M0 0 C1.40897804 0.02997826 1.40897804 0.02997826 2.84642029 0.06056213 C3.90744461 0.08065842 4.96846893 0.1007547 6.06164551 0.12145996 C7.21579453 0.14849503 8.36994354 0.17553009 9.55906677 0.2033844 C10.73404221 0.22699539 11.90901764 0.25060638 13.11959839 0.27493286 C16.88990186 0.35179542 20.66001149 0.43572215 24.43016052 0.51979065 C26.97897901 0.57298873 29.52780709 0.62572925 32.0766449 0.67799377 C38.3404758 0.80657681 44.60399501 0.94469746 50.86766052 1.08229065 C50.86766052 10.65229065 50.86766052 20.22229065 50.86766052 30.08229065 C43.27766052 30.41229065 35.68766052 30.74229065 27.86766052 31.08229065 C27.53766052 72.99229065 27.20766052 114.90229065 26.86766052 158.08229065 C34.78766052 158.08229065 42.70766052 158.08229065 50.86766052 158.08229065 C50.86766052 167.98229065 50.86766052 177.88229065 50.86766052 188.08229065 C33.04766052 188.08229065 15.22766052 188.08229065 -3.13233948 188.08229065 C-3.15488411 163.7177888 -3.17331725 139.35329536 -3.18415165 114.98878574 C-3.18931521 103.67676992 -3.19635905 92.36476102 -3.20777893 81.05274963 C-3.21772393 71.19701363 -3.22419246 61.34128264 -3.22642797 51.48554176 C-3.22773539 46.26357429 -3.23082322 41.04162117 -3.23806953 35.81965828 C-3.24482685 30.91058956 -3.24695703 26.00154119 -3.24544716 21.09246826 C-3.24572362 19.28521044 -3.24773044 17.47795198 -3.25154495 15.67069817 C-3.25647771 13.2143694 -3.25533933 10.75811869 -3.25259399 8.30178833 C-3.25550684 7.57709384 -3.25841968 6.85239935 -3.26142079 6.10574442 C-3.24319629 0.12516053 -3.24319629 0.12516053 0 0 Z " fill="#ffffff" transform="translate(108.13233947753906,20.917709350585938)"/>
<path d="M0 0 C0 62.04 0 124.08 0 188 C-17.49 188 -34.98 188 -53 188 C-53 178.1 -53 168.2 -53 158 C-45.41 158 -37.82 158 -30 158 C-30 115.76 -30 73.52 -30 30 C-37.59 30 -45.18 30 -53 30 C-53 20.43 -53 10.86 -53 1 C-45.61271327 0.85749636 -38.22542549 0.71504988 -30.83813477 0.57275391 C-28.32283462 0.52428579 -25.80753514 0.47578323 -23.29223633 0.42724609 C-19.68571136 0.3576577 -16.07918405 0.28819143 -12.47265625 0.21875 C-10.77424339 0.18593933 -10.77424339 0.18593933 -9.04151917 0.15246582 C-8.00051559 0.13244507 -6.95951202 0.11242432 -5.88696289 0.09179688 C-4.96540909 0.07403198 -4.04385529 0.05626709 -3.09437561 0.03796387 C-1 0 -1 0 0 0 Z " fill="#ffffff" transform="translate(293,21)"/>
<path d="M0 0 C4.66271896 3.99661625 9.27997919 7.98914087 13.8125 12.125 C14.38419922 12.63675781 14.95589844 13.14851562 15.54492188 13.67578125 C18.4128439 16.29768881 20.30327056 18.54512105 22 22 C23.33092664 22.67145849 24.66483014 23.3370191 26 24 C28.19775278 25.88633032 30.21755757 27.93838376 32.25 30 C33.08144531 30.81984375 33.08144531 30.81984375 33.9296875 31.65625 C38 35.7466133 38 35.7466133 38 38 C38.88993652 38.4031543 38.88993652 38.4031543 39.79785156 38.81445312 C42.00540033 40.00290732 43.46542882 41.20742389 45.234375 42.96875 C45.80800781 43.53980469 46.38164062 44.11085937 46.97265625 44.69921875 C47.55917969 45.29347656 48.14570313 45.88773438 48.75 46.5 C49.35199219 47.09425781 49.95398438 47.68851563 50.57421875 48.30078125 C51.14269531 48.87183594 51.71117187 49.44289062 52.296875 50.03125 C52.81604492 50.55267578 53.33521484 51.07410156 53.87011719 51.61132812 C55 53 55 53 55 55 C55.99 55.33 56.98 55.66 58 56 C59.52781574 59.05563147 59.14210254 62.24623882 59.1328125 65.59765625 C59.13376923 66.34712021 59.13472595 67.09658417 59.13571167 67.86875916 C59.13639241 69.45327844 59.13454551 71.03780052 59.13037109 72.62231445 C59.12501383 75.05621555 59.13032347 77.48993273 59.13671875 79.92382812 C59.1360581 81.46093791 59.1347772 82.99804758 59.1328125 84.53515625 C59.13483673 85.26742935 59.13686096 85.99970245 59.13894653 86.75416565 C59.11495668 91.88504332 59.11495668 91.88504332 58 93 C56.18944975 93.09376053 54.37522799 93.1174411 52.56225586 93.11352539 C50.79609924 93.11334412 50.79609924 93.11334412 48.9942627 93.11315918 C47.74705444 93.10804321 46.49984619 93.10292725 45.21484375 93.09765625 C44.07567505 93.09664917 42.93650635 93.09564209 41.76281738 93.09460449 C37.48770142 93.08935338 33.21259975 93.07539227 28.9375 93.0625 C19.388125 93.041875 9.83875 93.02125 0 93 C0 62.31 0 31.62 0 0 Z " fill="#ffffff" transform="translate(170,116)"/>
<path d="M0 0 C19.47 0 38.94 0 59 0 C59 30.36 59 60.72 59 92 C55.13025547 90.06512774 52.69834092 88.14644271 49.49707031 85.27954102 C48.69152458 84.55876373 48.69152458 84.55876373 47.8697052 83.82342529 C42.89063482 79.34159938 38.00974782 74.7549933 33.1581459 70.13583469 C29.90966494 67.046254 26.63806835 63.99818157 23.27880859 61.02905273 C-0.70339475 39.76741915 -0.70339475 39.76741915 -1.85456085 23.12582588 C-2.06370338 15.31783141 -0.85064048 7.81769821 0 0 Z " fill="#ffffff" transform="translate(170,22)"/>
<path d="M0 0 C4.29 0 8.58 0 13 0 C13 2.97 13 5.94 13 9 C15.64 9 18.28 9 21 9 C21 11.97 21 14.94 21 18 C18.36 18 15.72 18 13 18 C13 23.28 13 28.56 13 34 C15.64 34 18.28 34 21 34 C21 36.97 21 39.94 21 43 C18.24835568 43.13517903 15.50335479 43.23415251 12.75 43.3125 C11.97269531 43.35439453 11.19539063 43.39628906 10.39453125 43.43945312 C6.55273691 43.52154275 4.62213272 43.46083905 1.46875 41.125 C-0.65322429 36.61016108 -0.43075439 32.6061051 -0.25 27.6875 C-0.23195312 26.75615234 -0.21390625 25.82480469 -0.1953125 24.86523438 C-0.14834888 22.57575803 -0.08269475 20.28841816 0 18 C-1.98 18 -3.96 18 -6 18 C-6 26.25 -6 34.5 -6 43 C-9.96 43 -13.92 43 -18 43 C-18.33 42.34 -18.66 41.68 -19 41 C-20.423125 41.7734375 -20.423125 41.7734375 -21.875 42.5625 C-26.61058647 44.5782588 -31.08692517 44.3951763 -36 43 C-38.96673883 40.46741807 -39.78416769 38.69066339 -40.9375 35 C-41.01479384 31.28989551 -40.32482902 29.86728912 -38 27 C-32.26287015 22.69715261 -26.03555562 21.71283446 -19 22 C-19.33 20.68 -19.66 19.36 -20 18 C-22.64 18 -25.28 18 -28 18 C-28.33 18.99 -28.66 19.98 -29 21 C-32.63 21 -36.26 21 -40 21 C-38.72111349 16.00071637 -37.08434205 13.19644161 -33 10 C-26.71385591 7.61560052 -20.55815337 7.40288502 -14 9 C-11.51496747 10.44999978 -10.00360319 11.88809393 -8 14 C-7.34 12.35 -6.68 10.7 -6 9 C-4.02 9 -2.04 9 0 9 C0 6.03 0 3.06 0 0 Z M-19 28 C-20.31571603 28.2547514 -21.62760376 28.52934141 -22.9375 28.8125 C-23.66839844 28.96332031 -24.39929688 29.11414063 -25.15234375 29.26953125 C-26.06693359 29.63111328 -26.06693359 29.63111328 -27 30 C-27.33 30.99 -27.66 31.98 -28 33 C-26.17213728 35.20857238 -26.17213728 35.20857238 -23.5625 35.4375 C-20.7713409 35.25518529 -20.7713409 35.25518529 -19.125 32.625 C-18.75375 31.75875 -18.3825 30.8925 -18 30 C-18.33 29.34 -18.66 28.68 -19 28 Z " fill="#ffffff" transform="translate(218,223)"/>
<path d="M0 0 C5.61 0 11.22 0 17 0 C17.92232422 1.97033203 17.92232422 1.97033203 18.86328125 3.98046875 C19.67954918 5.71621089 20.49596311 7.45188437 21.3125 9.1875 C21.71662109 10.05181641 22.12074219 10.91613281 22.53710938 11.80664062 C22.93349609 12.64775391 23.32988281 13.48886719 23.73828125 14.35546875 C24.09962158 15.12528076 24.46096191 15.89509277 24.83325195 16.68823242 C26.09719463 19.19257919 27.55672213 21.59453688 29 24 C29.33 16.08 29.66 8.16 30 0 C33.96 0 37.92 0 42 0 C42 14.85 42 29.7 42 45 C36.39 45 30.78 45 25 45 C19.555 33.12 19.555 33.12 14 21 C13.67 28.92 13.34 36.84 13 45 C8.71 45 4.42 45 0 45 C0 30.15 0 15.3 0 0 Z " fill="#ffffff" transform="translate(133,221)"/>
<path d="M0 0 C4.29 0 8.58 0 13 0 C13.33 4.62 13.66 9.24 14 14 C15.65 13.01 17.3 12.02 19 11 C23.55812215 10.13364459 27.01640413 10.40574416 31 12.8125 C34.29972722 16.42157664 34.1197162 19.50044846 34.09765625 24.19921875 C34.09443359 25.40771484 34.09121094 26.61621094 34.08789062 27.86132812 C34.07532227 29.7552832 34.07532227 29.7552832 34.0625 31.6875 C34.05798828 32.96173828 34.05347656 34.23597656 34.04882812 35.54882812 C34.03702883 38.6992387 34.01909318 41.84962519 34 45 C29.71 45 25.42 45 21 45 C21 37.41 21 29.82 21 22 C15.48436516 22.32188877 15.48436516 22.32188877 14 24 C13.84313751 25.55948542 13.74923361 27.12542668 13.68359375 28.69140625 C13.64169922 29.63564453 13.59980469 30.57988281 13.55664062 31.55273438 C13.51732422 32.54595703 13.47800781 33.53917969 13.4375 34.5625 C13.39431641 35.55958984 13.35113281 36.55667969 13.30664062 37.58398438 C13.20019833 40.05581111 13.09956241 42.5278866 13 45 C8.71 45 4.42 45 0 45 C0 30.15 0 15.3 0 0 Z " fill="#ffffff" transform="translate(51,221)"/>
<path d="M0 0 C3.77147015 4.17555624 4.12815023 7.93295858 4.09765625 13.421875 C4.09443359 14.44667969 4.09121094 15.47148437 4.08789062 16.52734375 C4.07532227 18.12255859 4.07532227 18.12255859 4.0625 19.75 C4.05798828 20.82894531 4.05347656 21.90789062 4.04882812 23.01953125 C4.03705742 25.67971125 4.01912239 28.33986269 4 31 C0.04 31 -3.92 31 -8 31 C-8.33 30.34 -8.66 29.68 -9 29 C-9.969375 29.515625 -10.93875 30.03125 -11.9375 30.5625 C-16.43846808 32.47974806 -20.32284462 32.26125538 -25 31 C-28.01414884 29.43013081 -29.53150655 28.39962419 -30.625 25.1328125 C-31.24306406 21.72058383 -31.16997555 19.47805623 -30 16.1875 C-26.34989854 12.19520153 -21.27375373 10.65921922 -16 10 C-13.66698014 9.96175377 -11.33288492 9.95425716 -9 10 C-9.66 8.68 -10.32 7.36 -11 6 C-13.91634129 5.7497843 -13.91634129 5.7497843 -17 6 C-17.99 7.485 -17.99 7.485 -19 9 C-21.6015625 9.29296875 -21.6015625 9.29296875 -24.625 9.1875 C-26.12933594 9.14689453 -26.12933594 9.14689453 -27.6640625 9.10546875 C-28.43492187 9.07066406 -29.20578125 9.03585938 -30 9 C-29.26830205 4.58763965 -28.11124641 2.28903192 -25 -1 C-18.09883229 -5.60077848 -6.41591182 -5.2493824 0 0 Z M-18 19 C-17.67 20.32 -17.34 21.64 -17 23 C-14.08347826 23.16681109 -14.08347826 23.16681109 -11 23 C-10.34 22.34 -9.68 21.68 -9 21 C-9 19.68 -9 18.36 -9 17 C-13.7897321 16.76571687 -13.7897321 16.76571687 -18 19 Z " fill="#ffffff" transform="translate(361,235)"/>
<path d="M0 0 C3.96 0 7.92 0 12 0 C12.66 0.66 13.32 1.32 14 2 C14.55816406 1.67902344 15.11632812 1.35804688 15.69140625 1.02734375 C19.68686221 -0.75066795 23.72202555 -0.69222888 28 0 C31.34625024 2.52676039 32.67977847 4.03933542 34 8 C34.08291953 9.9920303 34.10738177 11.98673713 34.09765625 13.98046875 C34.09443359 15.14384766 34.09121094 16.30722656 34.08789062 17.50585938 C34.07532227 19.32827148 34.07532227 19.32827148 34.0625 21.1875 C34.05798828 22.41404297 34.05347656 23.64058594 34.04882812 24.90429688 C34.03703076 27.93621865 34.01909514 30.9681154 34 34 C29.71 34 25.42 34 21 34 C20.67 26.74 20.34 19.48 20 12 C16.25308553 10.60229416 16.25308553 10.60229416 14 12 C13.67 19.26 13.34 26.52 13 34 C8.71 34 4.42 34 0 34 C0 22.78 0 11.56 0 0 Z " fill="#ffffff" transform="translate(294,232)"/>
<path d="M0 0 C4.6282917 3.87484887 7.21296358 7.35185433 8.6875 13.25 C8.6875 14.9 8.6875 16.55 8.6875 18.25 C0.7675 18.25 -7.1525 18.25 -15.3125 18.25 C-14.9825 19.57 -14.6525 20.89 -14.3125 22.25 C-13.054375 22.29125 -11.79625 22.3325 -10.5 22.375 C-9.79230469 22.39820313 -9.08460937 22.42140625 -8.35546875 22.4453125 C-5.99890281 22.38254462 -5.99890281 22.38254462 -3.3125 20.25 C-0.61328125 20.0546875 -0.61328125 20.0546875 2.375 20.125 C3.86580078 20.15207031 3.86580078 20.15207031 5.38671875 20.1796875 C6.14597656 20.20289063 6.90523437 20.22609375 7.6875 20.25 C6.91933926 25.13680981 5.5565726 27.05380959 1.6875 30.25 C-4.65853645 34.21627278 -11.11716386 33.85399811 -18.3125 32.25 C-23.00933275 29.9977645 -25.42023847 26.71839085 -27.3125 21.9375 C-28.98122858 15.78082438 -28.48753819 10.64527017 -25.6875 4.9375 C-18.82289794 -2.83033917 -9.19200727 -4.85615478 0 0 Z M-13.125 8.6875 C-13.846875 9.533125 -14.56875 10.37875 -15.3125 11.25 C-11.3525 11.25 -7.3925 11.25 -3.3125 11.25 C-4.8248986 7.1818136 -4.8248986 7.1818136 -7.625 6.1875 C-10.59404986 5.97098794 -10.59404986 5.97098794 -13.125 8.6875 Z " fill="#ffffff" transform="translate(115.3125,233.75)"/>
<path d="M0 0 C7.24784483 6.87616048 7.24784483 6.87616048 7.640625 11.921875 C7.80109052 22.6730648 7.80109052 22.6730648 4.4375 27.3125 C-0.07279082 31.82279082 -4.81080721 33.06681314 -11.0625 33.625 C-17.26636634 33.07108336 -22.05820805 30.55940384 -26.5625 26.3125 C-29.06712264 22.80602831 -29.6147458 18.55187355 -29.5625 14.3125 C-28.458129 8.34292705 -26.42404152 4.13228262 -21.5625 0.3125 C-14.90989245 -2.93911992 -6.67238233 -3.16060216 0 0 Z M-13.6875 8.75 C-16.09701857 12.04300872 -15.96551902 14.21347209 -15.8984375 18.19140625 C-15.6670369 20.60821822 -15.6670369 20.60821822 -13.5625 23.3125 C-11.2193787 23.05688677 -8.88406597 22.71979228 -6.5625 22.3125 C-4.83856599 18.86463198 -5.06027073 15.08256772 -5.5625 11.3125 C-7.25166631 8.70143869 -7.25166631 8.70143869 -9.5625 7.3125 C-11.71399669 7.12573021 -11.71399669 7.12573021 -13.6875 8.75 Z " fill="#ffffff" transform="translate(284.5625,233.6875)"/>
<path d="M0 0 C13.2 0 26.4 0 40 0 C40 3.63 40 7.26 40 11 C39.67 11.33 39.34 11.66 39 12 C34.71 12 30.42 12 26 12 C26 22.89 26 33.78 26 45 C21.71 45 17.42 45 13 45 C13 34.11 13 23.22 13 12 C8.71 12 4.42 12 0 12 C0 8.04 0 4.08 0 0 Z " fill="#ffffff" transform="translate(10,221)"/>
<path d="M0 0 C4.29 0 8.58 0 13 0 C13 14.85 13 29.7 13 45 C8.71 45 4.42 45 0 45 C0 30.15 0 15.3 0 0 Z " fill="#ffffff" transform="translate(368,221)"/>
<path d="M0 0 C3.96 0 7.92 0 12 0 C12 11.22 12 22.44 12 34 C7.71 34 3.42 34 -1 34 C-1.02465288 29.31860746 -1.04283739 24.63725241 -1.05493164 19.95581055 C-1.05997157 18.36205386 -1.0668035 16.76830181 -1.07543945 15.17456055 C-1.08751999 12.88849747 -1.09323155 10.60249533 -1.09765625 8.31640625 C-1.10281754 7.59973282 -1.10797882 6.88305939 -1.11329651 6.14466858 C-1.11349263 4.42936328 -1.06192007 2.71418734 -1 1 C-0.67 0.67 -0.34 0.34 0 0 Z " fill="#ffffff" transform="translate(242,232)"/>
<path d="M0 0 C4.29 0 8.58 0 13 0 C13 2.97 13 5.94 13 9 C8.71 9 4.42 9 0 9 C0 6.03 0 3.06 0 0 Z " fill="#ffffff" transform="translate(241,221)"/>
</svg>
