<?xml version="1.0" encoding="UTF-8"?>
<svg version="1.1" xmlns="http://www.w3.org/2000/svg" width="600" height="600">
<path d="M0 0 C11.99612131 8.15874533 18.84905756 19.35132925 21.89033818 33.43664658 C22.54804104 37.23545535 22.62073822 40.94733293 22.57894897 44.79490662 C22.57075593 46.02588378 22.57075593 46.02588378 22.56239736 47.28172916 C22.4202776 56.00942432 21.31415367 64.53222698 20.04931641 73.15649414 C19.8051542 74.88986445 19.56213234 76.6233957 19.32014465 78.35707092 C18.6688909 82.9982065 18.00138546 87.63686168 17.33013582 92.27514195 C16.62714582 97.14961019 15.93803267 102.02604309 15.24691772 106.90220642 C14.08750001 115.06739877 12.91768517 123.23104763 11.74121094 131.39379883 C10.38077409 140.83366771 9.0358147 150.27564326 7.69917738 159.71890932 C6.40967238 168.82742972 5.11065403 177.93456683 3.80680466 187.04104424 C3.25291735 190.91022134 2.70215941 194.77982491 2.15385818 198.64979744 C1.5099396 203.19091007 0.85765095 207.73074244 0.19875145 212.26970482 C-0.04199553 213.93745753 -0.27986635 215.60562823 -0.51470375 217.27422333 C-0.83467982 219.5442525 -1.16490142 221.81255312 -1.49789429 224.08070374 C-1.6804093 225.35206712 -1.86292431 226.6234305 -2.05097008 227.93332005 C-2.6875 230.875 -2.6875 230.875 -4.6875 232.875 C-9.10514307 223.50480523 -13.22898968 214.03252478 -17.25991821 204.49142456 C-18.35069747 201.90958791 -19.44396971 199.32881872 -20.5378418 196.74829102 C-21.70999472 193.98296754 -22.88197636 191.2175726 -24.0532074 188.45185852 C-28.10785538 178.87747135 -32.17924646 169.31023415 -36.25219727 159.74362183 C-37.50504292 156.80065405 -38.75747102 153.85750893 -40.00976562 150.91430664 C-44.79756003 139.66211701 -49.58874088 128.41137719 -54.38357544 117.16218567 C-56.54316944 112.09445304 -58.70050404 107.02578167 -60.85253906 101.95483398 C-61.25884552 100.99744827 -61.66515198 100.04006256 -62.08377075 99.05366516 C-62.87478251 97.18968284 -63.66569889 95.32566004 -64.45651245 93.46159363 C-66.63297412 88.33722412 -68.83346283 83.22451032 -71.05859375 78.12109375 C-78.90372123 60.02017386 -84.18365135 43.14552677 -76.97265625 23.68359375 C-74.79132039 18.91647981 -72.01287139 14.91200087 -68.6875 10.875 C-68.06359375 10.10285156 -67.4396875 9.33070312 -66.796875 8.53515625 C-49.92953068 -10.29575297 -21.12862901 -12.27666218 0 0 Z " fill="#ffffff" transform="translate(279.6875,113.125)"/>
<path d="M0 0 C10.82751787 10.09682648 17.06358753 23.58717635 17.78442383 38.33203125 C17.62012318 49.87269491 14.20468731 59.71325902 9.6875 70.125 C9.0619976 71.601018 8.43801648 73.07768146 7.81542969 74.55493164 C6.15264686 78.48942027 4.47023323 82.41521335 2.78363037 86.33953857 C1.06935143 90.33729578 -0.62694127 94.3426585 -2.32421875 98.34765625 C-4.42986456 103.31314167 -6.53744077 108.27777492 -8.65307617 113.23901367 C-13.86018047 125.45121983 -19.00785957 137.68734627 -24.125 149.9375 C-31.36562251 167.26965935 -38.65436521 184.58105344 -45.97021484 201.8815918 C-49.75305877 210.8283171 -53.53091966 219.7765237 -57.25 228.75 C-57.91 228.75 -58.57 228.75 -59.25 228.75 C-62.10685675 209.80895253 -64.95833872 190.86710327 -67.80351925 171.92429829 C-69.1248695 163.12777947 -70.44794139 154.33152619 -71.77514648 145.53588867 C-72.93266262 137.86478157 -74.08686694 130.19318453 -75.23718649 122.52099484 C-75.84572298 118.46306245 -76.45585427 114.40538508 -77.06995964 110.3482914 C-77.64938853 106.51993351 -78.22434559 102.69092925 -78.79606056 98.86141205 C-79.0052577 97.46531539 -79.21600775 96.06945027 -79.42853546 94.67385674 C-83.62573061 67.08854481 -83.62573061 67.08854481 -78.8125 56.625 C-74.96949955 52.31334096 -70.21018115 49.64058833 -65.25 46.75 C-66.79950268 45.20049732 -68.34990594 45.53344807 -70.50390625 45.43359375 C-71.35791016 45.39169922 -72.21191406 45.34980469 -73.09179688 45.30664062 C-73.98962891 45.26732422 -74.88746094 45.22800781 -75.8125 45.1875 C-76.71419922 45.14431641 -77.61589844 45.10113281 -78.54492188 45.05664062 C-80.77978485 44.95021858 -83.01476308 44.84820012 -85.25 44.75 C-86.04437798 28.79624231 -82.91150961 16.35217804 -72.59375 3.72265625 C-53.52189818 -16.8335614 -21.15468412 -17.2160961 0 0 Z " fill="#ffffff" transform="translate(397.25,117.25)"/>
<path d="M0 0 C2.22794501 1.43667812 4.34694454 2.9250324 6.44921875 4.5390625 C7.27808594 5.16039062 8.10695313 5.78171875 8.9609375 6.421875 C21.167222 16.807756 27.00993141 34.51946487 33.2121582 48.91552734 C34.67736703 52.31628419 36.15136054 55.71321365 37.62472534 59.11044312 C38.39901463 60.89592394 39.17287585 62.68159047 39.94631958 64.46743774 C43.70953718 73.15321384 47.51453874 81.820419 51.3258667 90.48516846 C56.1778668 101.51598835 61.02358147 112.54947438 65.8359375 123.59765625 C66.19403503 124.41970551 66.55213257 125.24175476 66.92108154 126.0887146 C68.69153577 130.15425213 70.46001822 134.22063594 72.22607422 138.28808594 C75.73296781 146.35744912 79.27595271 154.40836932 82.8828125 162.43359375 C83.59497328 164.0240959 84.30697185 165.61467069 85.01879883 167.20532227 C86.35848384 170.19893551 87.71030633 173.1866477 89.0690918 176.17163086 C89.66765982 177.50742362 90.26575127 178.84343007 90.86328125 180.1796875 C91.38873535 181.34016602 91.91418945 182.50064453 92.45556641 183.69628906 C93.44921875 186.5390625 93.44921875 186.5390625 92.44921875 189.5390625 C79.54949222 180.74921047 66.65612685 171.95020666 53.77587891 163.13183594 C49.8341967 160.43345873 45.89165985 157.73633076 41.94921875 155.0390625 C40.36588143 153.955735 38.78254809 152.87240167 37.19921875 151.7890625 C36.41546875 151.2528125 35.63171875 150.7165625 34.82421875 150.1640625 C19.78255208 139.87239583 4.74088542 129.58072917 -10.30078125 119.2890625 C-11.08493408 118.7525708 -11.86908691 118.2160791 -12.67700195 117.66333008 C-14.25639411 116.58262495 -15.83565896 115.50173374 -17.41479492 114.4206543 C-21.43239172 111.67055064 -25.4523178 108.923962 -29.4765625 106.18359375 C-33.44551721 103.47962251 -37.40822896 100.76679385 -41.36425781 98.04394531 C-42.77907297 97.07019357 -44.19501594 96.0980776 -45.61230469 95.12792969 C-59.80773335 85.38402917 -71.42871505 75.04802941 -75.55078125 57.5390625 C-77.74257451 42.49699745 -75.73463392 27.7975372 -66.67578125 15.2265625 C-65.65579868 13.97934331 -64.61416904 12.74948662 -63.55078125 11.5390625 C-63.03902344 10.93449219 -62.52726562 10.32992187 -62 9.70703125 C-47.0018956 -6.72287309 -19.18450955 -10.98775892 0 0 Z " fill="#ffffff" transform="translate(181.55078125,175.4609375)"/>
<path d="M0 0 C11.7131012 9.87575199 18.04539619 22.85247237 19.54296875 38.05859375 C19.91532184 53.44918815 14.41148297 66.44677856 3.94921875 77.5234375 C-3.47232611 84.55612896 -11.91046089 90.29368141 -20.4453125 95.87890625 C-24.13394077 98.30811223 -27.77437232 100.80129262 -31.41015625 103.30859375 C-32.0853833 103.77386475 -32.76061035 104.23913574 -33.45629883 104.71850586 C-34.83627022 105.66967535 -36.21607059 106.62109299 -37.59570312 107.57275391 C-40.94809412 109.88406416 -44.30427703 112.18985257 -47.66015625 114.49609375 C-48.99350859 115.41273277 -50.3268419 116.32939947 -51.66015625 117.24609375 C-70.32682292 130.07942708 -88.99348958 142.91276042 -107.66015625 155.74609375 C-108.32047852 156.20008545 -108.98080078 156.65407715 -109.66113281 157.12182617 C-110.99113492 158.03616201 -112.32121275 158.95038773 -113.65136719 159.86450195 C-117.03630552 162.19092148 -120.41980468 164.5193884 -123.80078125 166.8515625 C-131.70870311 172.30320759 -139.64707992 177.69957171 -147.66015625 182.99609375 C-148.32015625 182.66609375 -148.98015625 182.33609375 -149.66015625 181.99609375 C-149.41198151 181.4253714 -149.16380676 180.85464905 -148.90811157 180.26663208 C-133.24731676 144.25452015 -133.24731676 144.25452015 -117.72265625 108.18359375 C-117.20100891 106.96547501 -117.20100891 106.96547501 -116.66882324 105.7227478 C-112.73876972 96.54432168 -108.81611766 87.36274579 -104.89778805 78.17930889 C-102.74719445 73.13939332 -100.59428864 68.10046831 -98.44017887 63.06205463 C-97.12152628 59.97737043 -95.80443117 56.89204331 -94.48953247 53.80575562 C-84.96732328 31.45617286 -84.96732328 31.45617286 -80.1953125 21.19140625 C-79.89035858 20.52842026 -79.58540466 19.86543427 -79.27120972 19.18235779 C-73.02753631 5.97637654 -62.37822876 -4.06460026 -48.66015625 -9.00390625 C-31.97177699 -14.55700806 -13.77766404 -10.37876895 0 0 Z " fill="#ffffff" transform="translate(488.66015625,181.00390625)"/>
<path d="M0 0 C4.64631861 3.3220096 9.34425605 6.5693789 14.03808594 9.82373047 C15.9822537 11.17506662 17.92626325 12.52663042 19.87011719 13.87841797 C21.321521 14.88727051 21.321521 14.88727051 22.80224609 15.91650391 C27.61088756 19.25934102 32.41817486 22.60412428 37.22558594 25.94873047 C39.14224597 27.28207334 41.05891264 28.61540667 42.97558594 29.94873047 C54.47558594 37.94873047 54.47558594 37.94873047 57.35083008 39.94897461 C59.26659005 41.28162768 61.18244285 42.61414733 63.09838867 43.9465332 C67.90469962 47.28918382 72.70935069 50.63417289 77.51074219 53.98388672 C79.43649373 55.32637726 81.36227482 56.6688254 83.28808594 58.01123047 C84.22273682 58.66365723 85.1573877 59.31608398 86.12036133 59.98828125 C91.07445509 63.43850708 96.05022794 66.85156136 101.06152344 70.21826172 C102.08431396 70.90718506 103.10710449 71.5961084 104.16088867 72.3059082 C106.12772161 73.62784642 108.09846239 74.94399311 110.07348633 76.25366211 C110.94739014 76.84139404 111.82129395 77.42912598 112.72167969 78.03466797 C113.49697021 78.55077637 114.27226074 79.06688477 115.07104492 79.59863281 C115.61704346 80.04416504 116.16304199 80.48969727 116.72558594 80.94873047 C116.72558594 81.60873047 116.72558594 82.26873047 116.72558594 82.94873047 C95.08019087 83.018986 73.43481476 83.07179942 51.78932858 83.10416698 C41.73768731 83.11959901 31.68611712 83.14061802 21.63452148 83.17504883 C12.86783042 83.20506385 4.10119086 83.22433207 -4.66555017 83.23099595 C-9.30228109 83.23488781 -13.93886472 83.24395678 -18.57554817 83.26592064 C-22.95120505 83.28647757 -27.32665576 83.29252601 -31.70235634 83.28805351 C-33.29733658 83.28887021 -34.89232465 83.2947204 -36.48726273 83.30634689 C-54.12310248 83.42846007 -71.20310654 81.25252158 -84.72363281 68.67138672 C-95.08218815 57.16477991 -101.05589788 43.33018376 -100.48925781 27.69091797 C-99.19922593 11.22542015 -93.12192681 0.23404636 -81.15332031 -11.05126953 C-54.38979939 -33.83709285 -23.96971858 -17.23945598 0 0 Z " fill="#ffffff" transform="translate(166.2744140625,299.05126953125)"/>
<path d="M0 0 C1.41353591 1.03883261 2.81004563 2.10127884 4.1875 3.1875 C4.87457031 3.70054687 5.56164062 4.21359375 6.26953125 4.7421875 C15.6397258 12.23117664 21.60898316 23.55481222 24.1875 35.1875 C25.6571565 50.82352895 23.92645693 65.23380345 14.046875 77.984375 C13.43328125 78.71140625 12.8196875 79.4384375 12.1875 80.1875 C11.61515625 80.89390625 11.0428125 81.6003125 10.453125 82.328125 C2.27084738 91.48947858 -8.8804406 95.72790478 -20.8125 97.1875 C-26.43249152 97.45800462 -32.04151811 97.44129799 -37.66674805 97.41455078 C-39.34322605 97.41398562 -41.01970454 97.41430526 -42.69618225 97.41543579 C-47.216092 97.41600623 -51.73589414 97.4043023 -56.25577903 97.39028788 C-60.99097371 97.37772867 -65.72617124 97.37660594 -70.46138 97.37423706 C-79.41419382 97.36803748 -88.3669584 97.35164738 -97.31975061 97.33153808 C-107.51811188 97.30913156 -117.71647558 97.29817372 -127.91485536 97.28814721 C-148.88076432 97.26727971 -169.84662905 97.23213351 -190.8125 97.1875 C-185.35030097 91.67560276 -185.35030097 91.67560276 -182.4140625 89.63671875 C-181.46635986 88.9730127 -181.46635986 88.9730127 -180.49951172 88.29589844 C-179.81904785 87.82700195 -179.13858398 87.35810547 -178.4375 86.875 C-177.70418457 86.36356445 -176.97086914 85.85212891 -176.21533203 85.32519531 C-174.60802746 84.20524547 -172.99906716 83.08766905 -171.38867188 81.97216797 C-168.71930519 80.1229384 -166.05453523 78.26723633 -163.390625 76.41015625 C-158.52489283 73.0196413 -153.65509351 69.63501839 -148.78417969 66.25195312 C-143.95859102 62.89957243 -139.13565423 59.54338175 -134.3125 56.1875 C-132.39584661 54.85414758 -130.47917993 53.52081427 -128.5625 52.1875 C-127.61375 51.5275 -126.665 50.8675 -125.6875 50.1875 C-117.0625 44.1875 -117.0625 44.1875 -114.18676758 42.18701172 C-112.27251577 40.85534415 -110.35829046 39.5236385 -108.4440918 38.19189453 C-103.61569568 34.83276025 -98.78682293 31.47431497 -93.95703125 28.1171875 C-92.9920874 27.4461499 -92.02714355 26.7751123 -91.03295898 26.08374023 C-89.10487029 24.74358019 -87.17600456 23.40453734 -85.24633789 22.06665039 C-80.61126576 18.84931828 -75.99469439 15.61087971 -71.4140625 12.31640625 C-49.99163027 -3.04050593 -25.32912682 -16.09499881 0 0 Z " fill="#ffffff" transform="translate(522.8125,284.8125)"/>
<path d="M0 0 C5.94 0 11.88 0 18 0 C20.22813028 4.81778687 22.45323646 9.63675603 24.67114258 14.45922852 C25.42498572 16.09607594 26.18048843 17.73216019 26.93774414 19.36743164 C28.03198725 21.73119873 29.12004006 24.09773461 30.20703125 26.46484375 C30.54152786 27.18397446 30.87602448 27.90310516 31.22065735 28.64402771 C33.51389271 33.65916112 35.3513304 38.73877678 37 44 C37.66 44 38.32 44 39 44 C39.19335938 43.41992188 39.38671875 42.83984375 39.5859375 42.2421875 C42 35 42 35 43.21875 32.24169922 C44.23714364 28.01600212 43.30875247 26.41069498 41.3515625 22.578125 C41.06018402 21.99206482 40.76880554 21.40600464 40.46859741 20.80218506 C39.53911957 18.94149128 38.58337273 17.09595109 37.625 15.25 C36.67950174 13.3873492 35.7395985 11.52202127 34.80282593 9.65496826 C33.95329258 7.96850324 33.08952753 6.28922981 32.22509766 4.61035156 C31 2 31 2 31 0 C36.94 0 42.88 0 49 0 C52 7 52 7 52 10 C52.66 10 53.32 10 54 10 C54.99 6.7 55.98 3.4 57 0 C62.94 0 68.88 0 75 0 C73.10630307 4.89205041 71.15309619 9.71466687 68.91796875 14.4609375 C68.551875 15.24871582 68.18578125 16.03649414 67.80859375 16.84814453 C67.06995711 18.43061563 66.3189081 20.00736103 65.5546875 21.57763672 C63.442709 26.13480381 62.44224567 29.00102475 64 34 C64.93098885 36.54160407 64.93098885 36.54160407 66.0625 38.875 C66.60583984 40.04675781 66.60583984 40.04675781 67.16015625 41.2421875 C67.43730469 41.82226562 67.71445312 42.40234375 68 43 C69.57317153 40.64024271 70.66513192 38.66179249 71.77172852 36.09521484 C72.10870255 35.3178598 72.44567657 34.54050476 72.79286194 33.73959351 C73.33045387 32.48790878 73.33045387 32.48790878 73.87890625 31.2109375 C74.43710304 29.92239365 74.43710304 29.92239365 75.00657654 28.6078186 C76.1946684 25.86473997 77.37895267 23.12004221 78.5625 20.375 C79.74981489 17.62290432 80.93799238 14.87119931 82.12913513 12.12075806 C82.87041229 10.40900144 83.60945048 8.69627324 84.34608459 6.98251343 C86.88745123 1.11254877 86.88745123 1.11254877 88 0 C89.41570123 -0.08651611 90.835595 -0.10704904 92.25390625 -0.09765625 C93.53491211 -0.09282227 93.53491211 -0.09282227 94.84179688 -0.08789062 C96.18854492 -0.07532227 96.18854492 -0.07532227 97.5625 -0.0625 C98.46419922 -0.05798828 99.36589844 -0.05347656 100.29492188 -0.04882812 C102.53001314 -0.03700225 104.76497437 -0.0205222 107 0 C100.29255877 16.63652605 93.02325921 32.99428894 85.59814453 49.3203125 C80.53655249 60.46837633 75.69397389 71.69222488 71 83 C70.34 83 69.68 83 69 83 C64.05 72.44 59.1 61.88 54 51 C51.95993285 54.06010072 50.50170693 57.07963497 48.9609375 60.41796875 C48.67521881 61.03521317 48.38950012 61.65245758 48.09512329 62.28840637 C47.18605881 64.25369189 46.28048737 66.22056419 45.375 68.1875 C44.75804242 69.52289271 44.14085751 70.85818041 43.5234375 72.19335938 C42.01298847 75.46102679 40.50566731 78.73012605 39 82 C38.01 82 37.02 82 36 82 C25.98244766 60.38691518 16.00256972 38.76151142 6.34130859 16.98632812 C5.42277893 14.94128719 4.4873268 12.90378658 3.53759766 10.87304688 C3.07788574 9.88884766 2.61817383 8.90464844 2.14453125 7.890625 C1.73178955 7.01954102 1.31904785 6.14845703 0.89379883 5.25097656 C0 3 0 3 0 0 Z " fill="#ffffff" transform="translate(407,412)"/>
<path d="M0 0 C39 0 39 0 49 5 C54.11836879 11.05847734 55.35026528 15.42907412 55.2890625 23.140625 C54.68726783 29.09351281 51.55697447 33.36268371 48 38 C48.81404297 38.61875 48.81404297 38.61875 49.64453125 39.25 C55.69681712 44.13544877 58.4144403 47.9300907 59.30859375 55.671875 C59.59546842 61.96573145 58.8202847 66.89511664 55 72 C51.04068403 76.21263713 46.86152173 79.68141279 40.89122009 80.17398071 C38.29375282 80.23127137 35.70339057 80.22475399 33.10546875 80.1953125 C32.26520142 80.19329834 31.42493408 80.19128418 30.5592041 80.18920898 C27.43524681 80.17878405 24.31136764 80.15086154 21.1875 80.125 C10.6996875 80.063125 10.6996875 80.063125 0 80 C0 53.6 0 27.2 0 0 Z M17 14 C17 19.94 17 25.88 17 32 C20.0628125 32.0928125 20.0628125 32.0928125 23.1875 32.1875 C24.91033203 32.23970703 24.91033203 32.23970703 26.66796875 32.29296875 C30.30565259 31.9731255 32.09175862 31.15094164 35 29 C37.13272462 26.28562321 36.99745956 24.95173167 36.8125 21.4375 C35.88587292 17.503305 35.88587292 17.503305 33 15 C27.83608171 13.2786939 22.40708764 13.94646448 17 14 Z M17 46 C17 52.6 17 59.2 17 66 C19.701875 66.0825 22.40375 66.165 25.1875 66.25 C26.45049927 66.30462402 26.45049927 66.30462402 27.73901367 66.36035156 C31.67603679 66.41837972 33.56872297 66.27286024 36.98828125 64.109375 C39.55145736 61.42177287 39.94460172 60.48011842 40.375 56.75 C39.87855761 51.78557614 38.52492587 50.44295085 35 47 C31.37918537 45.79306179 28.0749281 45.89217921 24.3125 45.9375 C21.899375 45.958125 19.48625 45.97875 17 46 Z " fill="#ffffff" transform="translate(132,412)"/>
<path d="M0 0 C8.99155326 6.74366495 8.99155326 6.74366495 12.21875 10.05859375 C12.92386719 10.77466797 13.62898438 11.49074219 14.35546875 12.22851562 C15.06316406 12.95748047 15.77085937 13.68644531 16.5 14.4375 C21.21241343 19.26579244 25.96711566 23.91202053 31.08496094 28.30981445 C34.15880221 31.02274193 37.01139105 33.94353301 39.875 36.875 C43.56790637 40.91777506 43.56790637 40.91777506 48 44 C48.33 30.47 48.66 16.94 49 3 C54.61 3 60.22 3 66 3 C66 30.39 66 57.78 66 86 C58.1386704 79.26171749 58.1386704 79.26171749 54.66015625 75.72265625 C53.90669922 74.96146484 53.15324219 74.20027344 52.37695312 73.41601562 C50.83785767 71.85094387 49.298795 70.28583987 47.75976562 68.72070312 C44.38838342 65.31477217 41.02983352 61.96862256 37.37109375 58.87109375 C30.62257325 52.89452197 24.37424267 46.37424267 18 40 C17.67 54.19 17.34 68.38 17 83 C11.39 83 5.78 83 0 83 C0 55.61 0 28.22 0 0 Z " fill="#ffffff" transform="translate(289,409)"/>
<path d="M0 0 C7.77714613 6.66612525 15.42509072 13.33654169 22.625 20.625 C25.64643569 23.68024196 28.66511398 26.65292307 31.9375 29.4375 C37.5426258 34.35276416 42.72850795 39.72850795 48 45 C48.33 31.14 48.66 17.28 49 3 C54.61 3 60.22 3 66 3 C66 30.39 66 57.78 66 86 C60.9489834 81.6705572 56.24297309 77.32951658 51.62695312 72.58789062 C48.94799686 69.86612814 46.21008359 67.28909279 43.30859375 64.8046875 C37.94000678 60.16146424 32.99406688 55.10098829 28 50.0625 C24.7 46.741875 21.4 43.42125 18 40 C17.67 54.19 17.34 68.38 17 83 C11.39 83 5.78 83 0 83 C0 55.61 0 28.22 0 0 Z " fill="#ffffff" transform="translate(57,409)"/>
<path d="M0 0 C14.19 0 28.38 0 43 0 C43 4.95 43 9.9 43 15 C34.42 15 25.84 15 17 15 C17 20.61 17 26.22 17 32 C25.58 32 34.16 32 43 32 C43 36.95 43 41.9 43 47 C34.42 47 25.84 47 17 47 C17 52.94 17 58.88 17 65 C25.58 65 34.16 65 43 65 C43 69.95 43 74.9 43 80 C28.81 80 14.62 80 0 80 C0 53.6 0 27.2 0 0 Z " fill="#ffffff" transform="translate(362,412)"/>
<path d="M0 0 C0 5.61 0 11.22 0 17 C-1.423125 16.505 -2.84625 16.01 -4.3125 15.5 C-11.97262488 13.25274192 -18.83235987 12.67330079 -26.25 16 C-32.05881444 19.25589599 -36.23440618 23.70957516 -39.375 29.5625 C-41.43322142 37.58956354 -41.38815844 44.92614207 -37.80859375 52.53125 C-33.93678417 58.86118391 -29.46233342 62.62697433 -22.359375 64.8125 C-13.89155726 66.70474977 -7.91447569 65.16579028 0 62 C0 67.94 0 73.88 0 80 C-12.25806462 83.06451615 -25.49043314 84.23919281 -37 78 C-48.22040737 71.25178347 -55.06568586 61.10395211 -58.3125 48.5 C-60.58867935 36.22176331 -58.34406387 25.79778931 -51.66015625 15.3203125 C-44.60373103 5.45792055 -34.48349769 -0.0038829 -22.8125 -2.75 C-14.81295902 -3.27456006 -7.60637588 -2.53545863 0 0 Z " fill="#ffffff" transform="translate(252,412)"/>
<path d="M0 0 C0 5.61 0 11.22 0 17 C-2.80664034 15.87734386 -5.59862253 14.70633612 -8.3125 13.375 C-13.73844476 11.35176636 -18.3956273 11.45910817 -24 13 C-24.3042656 14.40986438 -24.56720908 15.82868811 -24.8125 17.25 C-24.96332031 18.03890625 -25.11414063 18.8278125 -25.26953125 19.640625 C-25.22416438 22.21025336 -25.22416438 22.21025336 -22.90625 24.08984375 C-19.91115171 26.05839626 -16.89036843 27.70531213 -13.6875 29.3125 C-6.52054276 33.1029519 0.49517579 37.37185319 4 45 C6.26608876 52.55902465 5.67701968 60.46933687 2.46484375 67.63671875 C-1.4205502 73.90515432 -6.85780697 78.20135481 -14 80 C-16.63641695 80.23716721 -19.11746185 80.38035773 -21.75 80.375 C-22.44939697 80.37556396 -23.14879395 80.37612793 -23.86938477 80.37670898 C-29.70892095 80.25358015 -36.66381234 79.33618766 -41 75 C-41.08631874 73.65732587 -41.10706473 72.31025678 -41.09765625 70.96484375 C-41.09443359 70.15595703 -41.09121094 69.34707031 -41.08789062 68.51367188 C-41.07951172 67.66353516 -41.07113281 66.81339844 -41.0625 65.9375 C-41.05798828 65.08349609 -41.05347656 64.22949219 -41.04882812 63.34960938 C-41.03700373 61.23304337 -41.01906769 59.11651315 -41 57 C-38.52821431 58.18055436 -36.53030418 59.34954108 -34.3125 61 C-30.2939249 63.42630949 -26.70071363 64.73042502 -22 65 C-18.22402481 63.81126707 -16.56657093 62.71765651 -14.125 59.625 C-12.41634779 55.63814485 -12.64388931 53.06833207 -14 49 C-15.63897241 48.26788549 -17.31402467 47.61620566 -19 47 C-21.36085754 45.76218927 -23.68323669 44.50181765 -26 43.1875 C-26.60328125 42.85685547 -27.2065625 42.52621094 -27.828125 42.18554688 C-31.82427276 39.92251102 -34.85909743 37.40688891 -38 34 C-38.556875 33.401875 -39.11375 32.80375 -39.6875 32.1875 C-43.48861436 25.85230939 -43.57852049 19.03997093 -42 12 C-39.56420526 5.60130606 -34.71107248 -0.0485905 -28.4375 -2.875 C-18.48531414 -6.04678442 -9.32024343 -3.9766372 0 0 Z " fill="#ffffff" transform="translate(552,414)"/>
</svg>
